<svg xmlns="http://www.w3.org/2000/svg" xmlns:xlink="http://www.w3.org/1999/xlink" viewBox="0 0 300 600"><defs><clipPath id="a"><rect x="91" y="18.7" width="111" height="47.02" style="fill:none"/></clipPath></defs><title>logo2</title><g style="clip-path:url(#a)"><path d="M179.1,44.3c-.4-.5-1-.4-1.5,0s-1.1.3-.7-1.2a38.2,38.2,0,0,1,1.7-4.3c.3-.6,0-1.3-1.1-1.4a2,2,0,0,0-1.4.4,2.9,2.9,0,0,0-2.5-1c-1.9-.1-4.6,1.5-6.2,3.9a15,15,0,0,1-3.5,3.6,1.6,1.6,0,0,1-1.2.4c-.6-.3-.4-1.1.9-2.7s2.7-4.2,1.5-5.3a3.3,3.3,0,0,0-3.7-.2,10,10,0,0,0-3.1,2.3c2-4.1,4.4-8.8,6.1-11.5.7-1.2.7-2.3-.4-2.4s-1.9.3-2.6,1.8c-1.8,3.7-3.2,7-4.9,10.6h0a19,19,0,0,1-5.8,7.1,1.9,1.9,0,0,1-1.2.3c-.6-.3-.5-1.2.9-2.7s2.7-4.3,1.5-5.3-2.2-.8-3.7-.2a16.9,16.9,0,0,0-3.7,2.8c.9-1.2.8-2.3,0-2.6s-1.5.1-2.5,2.8-1.9,4-3.8,4.8c-.4.2-1.2.3-.9-1.2a43.5,43.5,0,0,1,1.8-4.3c.3-.6,0-1.3-1.1-1.4a1.6,1.6,0,0,0-1.4.4,3.7,3.7,0,0,0-2.5-1.1c-2.6.1-6.4,2.6-7.4,6.5a3.4,3.4,0,0,1-2.4,1.4c-2,0-3.1-1.7-3.5-3.7,4.4-.9,8.6-3.4,9.4-7.3s-1.7-6.9-6.3-6.8a14.2,14.2,0,0,0-11.5,6.6c-.7,1.3-.1,2.4.9,2.3a2.4,2.4,0,0,0,2.2-1.7c.6-2.1,3-4.5,7-4.9s4.8,1.7,4.5,4.2-3.4,4.8-6.4,5.6v-.2c0-.9,0-1.6-.6-1.8s-.2-.6-.6-.7-1.1-.2-1.8.7c-2.1,3.3-3.2,4.8-5.3,7.6s-1,2.5,0,2.9,1.9-.2,2.7-1.5,1.9-3.3,2.7-4.7h.7c.1,2.7,1.5,6.6,5.3,5.9a5.4,5.4,0,0,0,3.1-1.6c.6,1.5,2.4,1.9,4.3,1a11,11,0,0,0,3.6-2.8c-1.1,2.8,1.1,4.9,4.4,2.2l.4-.3c-1.6,3.5-3.7,7.4-5,10.1s-.4,2.6.7,2.7,1.6-.5,2.3-2,2.6-6.6,5.2-11.8,5.8-6.1,6.5-5.7-.3,1.5-1.7,3.4-1.6,3.6-.8,4.3,2.7,1,4.8-.7a12.2,12.2,0,0,0,1.6-1.4c-.7,1.4-1,2.4-.1,2.7a1.4,1.4,0,0,0,1.9-.8,18.6,18.6,0,0,1,3.5-5.3c1.8-2.1,3.6-2.5,3.9-2.2s-.2,1.5-1.7,3.4-1.5,3.6-.7,4.3,2.7,1.1,4.8-.7a10.8,10.8,0,0,0,1.5-1.3c.1,2.3,2.2,2.9,4.3,1.9a10.5,10.5,0,0,0,3.7-2.8c-.9,3,1.8,4.7,4.5,2.3.7-.6.8-1.4.5-1.7m-47.5-.4c-1.1.7-2.6.4-1.9-1.6a4.2,4.2,0,0,1,3.3-2.9,1.9,1.9,0,0,1,1.8,1.2,11,11,0,0,1-3.2,3.3m39.5,0c-1.1.7-2.6.4-1.9-1.5a4.1,4.1,0,0,1,3.2-3,2.2,2.2,0,0,1,1.9,1.2,11,11,0,0,1-3.2,3.3" style="fill:#fff"/><path d="M183.2,43.6a1.7,1.7,0,0,0-1.7,1.7,1.8,1.8,0,0,0,1.7,1.6,1.7,1.7,0,0,0,1.6-1.7,1.6,1.6,0,0,0-1.6-1.6" style="fill:#fff"/></g></svg>