<svg xmlns="http://www.w3.org/2000/svg" xmlns:xlink="http://www.w3.org/1999/xlink" viewBox="0 0 300 600"><defs><clipPath id="a"><rect x="54.5" y="260.7" width="191" height="80.88" style="fill:none"/></clipPath></defs><title>logo1</title><g style="clip-path:url(#a)"><path d="M206.1,304.6c-.7-.8-1.8-.6-2.7.1s-1.8.6-1.1-2.1,2.7-6.6,3-7.4-.1-2.3-2-2.5a3.8,3.8,0,0,0-2.3.8,5.6,5.6,0,0,0-4.3-1.8c-3.4,0-8,2.6-10.8,6.8a23.6,23.6,0,0,1-6,6.2,2.4,2.4,0,0,1-2,.6c-1.1-.4-.8-1.9,1.5-4.5,3.7-4.2,4.7-7.4,2.6-9.3s-3.9-1.4-6.3-.2a17.1,17.1,0,0,0-5.4,3.9c3.4-7,7.6-15.1,10.4-19.7,1.3-2.1,1.3-4-.5-4.3s-3.3.6-4.5,3.2c-3.1,6.3-5.6,11.9-8.5,18.2h0c-1.9,3.9-5.4,9.2-10,12.3-.7.4-1.5.7-1.9.5s-.9-2,1.4-4.5c3.7-4.3,4.7-7.4,2.6-9.2s-3.8-1.4-6.3-.3-4.6,3.1-6.3,4.8c1.4-2.1,1.3-4-.1-4.5s-2.7.2-4.4,4.9c-.8,2.3-3.1,6.7-6.4,8.2-.8.4-2.1.5-1.6-2.1a72.6,72.6,0,0,1,3.1-7.4c.5-1-.1-2.3-1.9-2.4a2.9,2.9,0,0,0-2.3.7,5.8,5.8,0,0,0-4.4-1.8c-4.4,0-11,4.4-12.7,11.1a5.8,5.8,0,0,1-4.2,2.3c-3.4.1-5.2-2.9-6-6.4,7.6-1.5,14.9-5.8,16.2-12.5s-3-11.8-10.9-11.7c-10.7.3-18,8.1-19.7,11.4s-.1,4.1,1.5,4a4.2,4.2,0,0,0,3.8-3c1-3.6,5.1-7.7,12.1-8.3,5.2-.4,8.2,2.8,7.7,7.2s-5.8,8.2-11.1,9.6V295c0-1.5-.2-2.7-1.2-3a1.4,1.4,0,0,0-.9-1.3c-.9-.4-2-.3-3.1,1.2-3.7,5.7-5.5,8.3-9.1,13.1-1.7,2.2-1.7,4.4-.1,4.9s3.3-.2,4.7-2.4,3.3-5.8,4.7-8.2h1.1c.2,4.9,2.6,11.4,9.2,10.3a10.4,10.4,0,0,0,5.3-2.8c1,2.6,4.1,3.3,7.3,1.8a18.6,18.6,0,0,0,6.3-4.9c-2,4.9,1.8,8.5,7.6,3.9l.6-.7c-2.8,6.1-6.4,12.9-8.5,17.4s-.8,4.6,1,4.7,2.9-.8,4.1-3.4,4.4-11.4,9-20.3,10-10.6,11-9.8-.4,2.6-2.9,5.8-2.6,6.3-1.3,7.5,4.6,1.7,8.3-1.2a15.8,15.8,0,0,0,2.6-2.5c-1.2,2.3-1.6,4.1,0,4.7a2.4,2.4,0,0,0,3.2-1.5,34.5,34.5,0,0,1,6-9.1c3.2-3.5,6.2-4.2,6.8-3.7s-.4,2.6-2.9,5.7-2.7,6.4-1.3,7.6,4.6,1.7,8.3-1.3a11.4,11.4,0,0,0,2.5-2.3c.2,4,3.9,5.1,7.5,3.4a18.6,18.6,0,0,0,6.3-4.9c-1.6,5.1,3,8.2,7.8,3.9,1.1-1,1.4-2.4.8-2.9m-81.8-.6c-1.9,1.2-4.3.7-3.2-2.7s3.9-5.1,5.6-5.1a3.4,3.4,0,0,1,3.2,2.1,16.7,16.7,0,0,1-5.6,5.7m68,.1c-1.8,1.1-4.4.6-3.2-2.8s3.7-5.1,5.5-5.1a3.9,3.9,0,0,1,3.3,2.1,18.9,18.9,0,0,1-5.6,5.8" style="fill:#fff"/><path d="M213.1,303.5a2.7,2.7,0,0,0-2.8,2.8,2.9,2.9,0,0,0,2.8,2.8,2.8,2.8,0,0,0,0-5.6" style="fill:#fff"/></g></svg>