<svg id="_1_-_black_friday_is_coming" data-name="1 - black friday is coming" xmlns="http://www.w3.org/2000/svg" xmlns:xlink="http://www.w3.org/1999/xlink" viewBox="0 0 300 250"><defs><style>.cls-1{fill:none;}.cls-2{clip-path:url(#clip-path);}.cls-3{fill:#fff;}</style><clipPath id="clip-path"><rect class="cls-1" x="119.75" y="6.02" width="58.85" height="34.09"/></clipPath></defs><title>300x250logo-top</title><g id="english"><g class="cls-2"><path class="cls-3" d="M172.1,24.53c-.31-.33-.74-.24-1.12,0s-.77.24-.5-.89a21.61,21.61,0,0,1,1.29-3.1c.18-.43-.06-1-.84-1a1.41,1.41,0,0,0-1,.33,2.24,2.24,0,0,0-1.8-.76A6.06,6.06,0,0,0,163.59,22a10,10,0,0,1-2.54,2.62,1,1,0,0,1-.84.25c-.47-.17-.32-.81.63-1.92,1.56-1.76,2-3.09,1.11-3.88a2.4,2.4,0,0,0-2.66-.11A7.38,7.38,0,0,0,157,20.57c1.44-2.95,3.2-6.37,4.41-8.31.54-.89.52-1.67-.23-1.8s-1.38.23-1.91,1.36c-1.29,2.64-2.33,5-3.56,7.64v0a13.47,13.47,0,0,1-4.21,5.16,1.17,1.17,0,0,1-.82.24c-.5-.18-.37-.85.6-1.92,1.54-1.79,2-3.12,1.09-3.89a2.43,2.43,0,0,0-2.64-.12A8.59,8.59,0,0,0,147.05,21c.6-.88.55-1.69,0-1.9-.74-.24-1.13.06-1.86,2.05a6.29,6.29,0,0,1-2.72,3.46c-.31.16-.88.22-.64-.88a27.88,27.88,0,0,1,1.3-3.12c.19-.41,0-1-.8-1a1.24,1.24,0,0,0-1,.31,2.37,2.37,0,0,0-1.82-.77,6.34,6.34,0,0,0-5.36,4.68,2.46,2.46,0,0,1-1.77,1c-1.44,0-2.21-1.23-2.54-2.69,3.22-.64,6.28-2.45,6.83-5.27.56-2.67-1.26-5-4.58-4.93a10.33,10.33,0,0,0-8.32,4.78c-.5,1-.06,1.73.62,1.69A1.75,1.75,0,0,0,126,17.07c.45-1.52,2.16-3.26,5.11-3.51,2.2-.18,3.46,1.2,3.24,3-.24,2.19-2.42,3.46-4.65,4l0-.15c0-.66-.06-1.13-.5-1.29a.57.57,0,0,0-.38-.53c-.37-.19-.85-.14-1.32.5-1.54,2.4-2.3,3.52-3.83,5.52-.68.92-.71,1.85,0,2.08s1.39-.09,2-1c.77-1.23,1.41-2.42,2-3.43l.47,0c.09,2,1.1,4.79,3.87,4.33a4.31,4.31,0,0,0,2.26-1.2c.39,1.11,1.73,1.38,3.07.76a8.49,8.49,0,0,0,2.66-2.06c-.84,2.07.75,3.6,3.18,1.63a2.16,2.16,0,0,1,.28-.26c-1.2,2.55-2.69,5.4-3.61,7.32-.6,1.33-.34,1.92.45,2s1.23-.34,1.71-1.45c.65-1.5,1.86-4.79,3.78-8.53s4.21-4.47,4.66-4.15-.18,1.1-1.23,2.45-1.11,2.65-.55,3.15c.71.63,2,.74,3.51-.5a10.51,10.51,0,0,0,1.1-1c-.51,1-.67,1.72,0,2a1,1,0,0,0,1.36-.62A15.16,15.16,0,0,1,157,22.21c1.37-1.48,2.63-1.78,2.9-1.56.49.31-.2,1.09-1.25,2.42s-1.11,2.68-.53,3.18,1.95.74,3.51-.54a6.72,6.72,0,0,0,1-.95c.09,1.66,1.64,2.12,3.16,1.39a7.82,7.82,0,0,0,2.66-2c-.7,2.16,1.27,3.45,3.27,1.66.48-.44.58-1,.34-1.24m-34.46-.26c-.8.51-1.84.3-1.37-1.14A3,3,0,0,1,138.65,21a1.39,1.39,0,0,1,1.35.85,7.24,7.24,0,0,1-2.36,2.41m28.65,0c-.79.49-1.85.29-1.35-1.15A2.93,2.93,0,0,1,167.23,21a1.63,1.63,0,0,1,1.42.91,8.08,8.08,0,0,1-2.36,2.41"/><path class="cls-3" d="M175.07,24a1.2,1.2,0,0,0-1.2,1.21,1.23,1.23,0,0,0,1.18,1.17,1.16,1.16,0,0,0,1.17-1.18,1.19,1.19,0,0,0-1.15-1.2"/></g></g></svg>