<svg id="_1_-_black_friday_is_coming" data-name="1 - black friday is coming" xmlns="http://www.w3.org/2000/svg" xmlns:xlink="http://www.w3.org/1999/xlink" viewBox="0 0 300 250"><defs><style>.cls-1{fill:none;}.cls-2{clip-path:url(#clip-path);}.cls-3{fill:#fff;}</style><clipPath id="clip-path"><rect class="cls-1" x="104.14" y="99.02" width="90.09" height="52.18"/></clipPath></defs><title>300x250logo</title><g id="english"><g class="cls-2"><path class="cls-3" d="M184.28,127.35a1.23,1.23,0,0,0-1.72.07c-.45.3-1.17.36-.76-1.37a33,33,0,0,1,2-4.74c.28-.65-.09-1.49-1.28-1.61a2.22,2.22,0,0,0-1.51.51,3.36,3.36,0,0,0-2.75-1.16c-2.21,0-5.2,1.67-7,4.37a15.13,15.13,0,0,1-3.89,4,1.55,1.55,0,0,1-1.29.39c-.71-.27-.49-1.24,1-2.95,2.38-2.69,3.05-4.73,1.69-5.94a3.65,3.65,0,0,0-4.06-.16,11.11,11.11,0,0,0-3.49,2.52c2.2-4.51,4.9-9.76,6.74-12.73.83-1.35.8-2.54-.35-2.74s-2.1.34-2.91,2.07c-2,4-3.58,7.68-5.46,11.71v0a20.55,20.55,0,0,1-6.45,7.88,1.7,1.7,0,0,1-1.26.37c-.76-.26-.56-1.29.93-2.93,2.35-2.75,3-4.78,1.67-6-.93-.84-2.47-.91-4.05-.19a13.18,13.18,0,0,0-4.1,3.14c.91-1.35.84-2.6,0-2.91-1.13-.36-1.74.1-2.85,3.13-.52,1.51-2,4.36-4.16,5.31-.48.23-1.34.33-1-1.35a40.66,40.66,0,0,1,2-4.78c.29-.63-.07-1.47-1.23-1.57a1.86,1.86,0,0,0-1.52.47,3.67,3.67,0,0,0-2.79-1.19c-2.87,0-7.12,2.86-8.19,7.17a3.8,3.8,0,0,1-2.71,1.52c-2.21.06-3.39-1.88-3.9-4.12,4.93-1,9.61-3.75,10.47-8.06.85-4.09-1.94-7.66-7-7.55a15.85,15.85,0,0,0-12.75,7.31c-.77,1.47-.08,2.65,1,2.59a2.66,2.66,0,0,0,2.43-1.93c.69-2.32,3.31-5,7.82-5.37,3.36-.27,5.29,1.84,5,4.67-.37,3.35-3.7,5.3-7.12,6.18l0-.25c0-1-.09-1.72-.77-2a.84.84,0,0,0-.58-.81c-.56-.3-1.3-.22-2,.76-2.36,3.68-3.52,5.38-5.86,8.45-1,1.4-1.09,2.84,0,3.19s2.14-.14,3-1.59c1.17-1.88,2.14-3.69,3-5.25.23,0,.46,0,.71,0,.14,3.1,1.68,7.33,5.92,6.62a6.54,6.54,0,0,0,3.46-1.83c.61,1.7,2.65,2.12,4.71,1.16a12.59,12.59,0,0,0,4.06-3.16c-1.27,3.17,1.16,5.52,4.87,2.5a2.91,2.91,0,0,1,.43-.39c-1.84,3.89-4.12,8.26-5.52,11.2-.92,2-.52,2.93.68,3s1.88-.52,2.62-2.22c1-2.3,2.85-7.33,5.79-13.06,2.84-5.52,6.45-6.84,7.14-6.35s-.29,1.68-1.9,3.74c-1.77,2.21-1.69,4.06-.83,4.82,1.09,1,3,1.15,5.37-.76a16.09,16.09,0,0,0,1.69-1.58c-.79,1.5-1,2.63-.05,3a1.59,1.59,0,0,0,2.09-.94,23,23,0,0,1,3.84-5.9c2.09-2.26,4-2.73,4.43-2.39.76.47-.3,1.67-1.91,3.71-1.77,2.24-1.7,4.1-.81,4.87,1,1,3,1.12,5.38-.82a9.67,9.67,0,0,0,1.59-1.47c.14,2.55,2.52,3.26,4.84,2.14a12.18,12.18,0,0,0,4.08-3.13c-1.07,3.31,1.94,5.28,5,2.54.74-.66.89-1.57.52-1.9M131.53,127c-1.23.78-2.83.46-2.1-1.75.7-2,2.52-3.29,3.64-3.25a2.14,2.14,0,0,1,2.06,1.31,11.06,11.06,0,0,1-3.6,3.69m43.86,0c-1.21.76-2.84.44-2.07-1.76s2.38-3.3,3.5-3.32a2.48,2.48,0,0,1,2.17,1.4,12.54,12.54,0,0,1-3.6,3.68"/><path class="cls-3" d="M188.82,126.61a1.83,1.83,0,0,0-1.83,1.85,1.87,1.87,0,0,0,1.8,1.79,1.79,1.79,0,0,0,1.8-1.81,1.83,1.83,0,0,0-1.77-1.83"/></g></g></svg>