<?xml version="1.0" encoding="utf-8"?>
<!-- Generator: Adobe Illustrator 22.1.0, SVG Export Plug-In . SVG Version: 6.00 Build 0)  -->
<svg version="1.1" id="_1_-_black_friday_is_coming"
	 xmlns="http://www.w3.org/2000/svg" xmlns:xlink="http://www.w3.org/1999/xlink" x="0px" y="0px" viewBox="0 0 300 250"
	 style="enable-background:new 0 0 300 250;" xml:space="preserve">
<style type="text/css">
	.st0{fill:#FFFFFF;}
</style>
<title>300x250txt2</title>
<g id="english">
	<rect x="58.6" y="199" class="st0" width="190" height="35"/>
	<path d="M67.2,209.5h3.5c2.5,0,3.7,1.3,3.7,3.6c0.1,1.2-0.5,2.4-1.6,2.9c1.3,0.5,2.1,1.9,1.9,3.2c0,2.3-1,4-3.7,4h-3.7v-13.7H67.2z
		 M69.5,215.1h0.9c0.9,0,1.6-0.6,1.6-1.5c0-0.1,0-0.2,0-0.3c0-1.3-0.5-1.9-1.5-1.9h-0.9L69.5,215.1z M69.5,221.2h1
		c1.2,0,1.7-0.7,1.7-2.1s-0.5-2.1-1.9-2.1h-0.8C69.5,217,69.5,221.2,69.5,221.2z"/>
	<path d="M79,223.2h-2.3v-13.7H80c2.6,0,4,1.1,4,4c0,2.2-0.8,3.1-1.7,3.5l2,6.2h-2.4l-1.7-5.7c-0.4,0-0.8,0.1-1.2,0.1L79,223.2z
		 M79,215.6h0.8c1.3,0,1.8-0.5,1.8-2.1s-0.5-2.1-1.8-2.1H79V215.6z"/>
	<path d="M86.2,212.8c0.1-2,1.8-3.5,3.8-3.4c1.8,0.1,3.3,1.6,3.4,3.4v7.1c-0.1,2-1.8,3.5-3.8,3.4c-1.8-0.1-3.3-1.6-3.4-3.4V212.8z
		 M88.5,219.8c0,1,0.3,1.5,1.3,1.5s1.2-0.5,1.2-1.5v-6.9c0-1-0.3-1.5-1.2-1.5s-1.3,0.5-1.3,1.5V219.8z"/>
	<path d="M99.8,209.5h1.9l1.6,8.7l0,0l1.3-8.7h2.2l-2.4,13.7h-2l-1.7-9.1l0,0l-1.6,9.1h-2l-2.6-13.7h2.2l1.4,8.7l0,0L99.8,209.5z"/>
	<path d="M112.6,212.9c-0.1-1.2-0.7-1.5-1.2-1.5c-0.8,0-1.2,0.5-1.2,1.4c0,2.3,4.8,3.4,4.8,7.2c0,2.3-1.5,3.5-3.7,3.5
		s-3.4-1.8-3.5-3.8l2.2-0.3c0.1,1.4,0.7,2.1,1.4,2.1c0.7,0.1,1.3-0.4,1.4-1c0-0.1,0-0.1,0-0.2c0-2.7-4.8-3.4-4.8-7.4
		c0-2.2,1.3-3.4,3.7-3.4c1.9,0,3.1,1.4,3.3,3.3L112.6,212.9z"/>
	<path d="M116.8,223.2v-13.7h6.3v2.1h-4v3.5h3v2.1h-3v4h4.2v2.1L116.8,223.2z"/>
	<path d="M130.8,211.5h-2.3v-2.1h6.9v2.1h-2.3v11.7h-2.4v-11.7H130.8z"/>
	<path d="M136.8,223.2v-13.7h2.4v5.6h2.5v-5.6h2.3v13.7h-2.4v-6.1h-2.5v6.1H136.8z"/>
	<path d="M146.3,223.2v-13.7h6.3v2.1h-4v3.5h3v2.1h-3v4h4.2v2.1L146.3,223.2z"/>
	<path d="M163.7,214.1V213c0-1.2-0.5-1.6-1.1-1.6c-1,0-1.2,0.5-1.2,1.5v6.9c0,1,0.3,1.5,1.2,1.5s1.1-0.5,1.1-1.4v-1.6h2.4v1.6
		c-0.1,2-1.8,3.5-3.7,3.4c-1.8-0.1-3.3-1.5-3.4-3.4v-7.1c-0.1-1.8,1.2-3.4,3-3.5c0.2,0,0.4,0,0.6,0c2.4,0,3.5,1.7,3.5,3.8v1
		L163.7,214.1L163.7,214.1z"/>
	<path d="M168.5,212.8c0-2,1.6-3.6,3.6-3.6s3.6,1.6,3.6,3.6l0,0v7.1c0,2-1.6,3.6-3.6,3.6s-3.6-1.6-3.6-3.6V212.8z M170.8,219.8
		c0,1,0.3,1.5,1.2,1.5s1.2-0.5,1.2-1.5v-6.9c0-1-0.3-1.5-1.2-1.5s-1.2,0.5-1.2,1.5V219.8z"/>
	<path d="M177.9,223.2v-13.7h2.4v11.7h3.7v2.1h-6.1V223.2z"/>
	<path d="M185.2,223.2v-13.7h2.4v11.7h3.7v2.1h-6.1V223.2z"/>
	<path d="M192.8,223.2v-13.7h6.3v2.1h-3.9v3.5h3v2.1h-3v4h4.2v2.1L192.8,223.2z"/>
	<path d="M205.9,214.1V213c0-1.2-0.5-1.6-1.1-1.6c-1,0-1.3,0.5-1.3,1.5v6.9c0,1,0.3,1.5,1.3,1.5s1.1-0.5,1.1-1.4v-1.6h2.4v1.6
		c0.1,1.8-1.2,3.4-3,3.5c-0.2,0-0.3,0-0.5,0c-1.8,0.2-3.4-1.1-3.6-2.9c0-0.2,0-0.4,0-0.6v-7.1c-0.1-1.8,1.2-3.4,3-3.5
		c0.2,0,0.4,0,0.6,0c2.4,0,3.5,1.7,3.5,3.8v1L205.9,214.1L205.9,214.1z"/>
	<path d="M212.1,211.5h-2.3v-2.1h6.9v2.1h-2.3v11.7H212v-11.7H212.1z"/>
	<path d="M218.4,223.2v-13.7h2.4v13.7H218.4z"/>
	<path d="M223.4,212.8c0-2,1.6-3.6,3.6-3.6s3.6,1.6,3.6,3.6l0,0v7.1c0,2-1.6,3.6-3.6,3.6s-3.6-1.6-3.6-3.6V212.8z M225.7,219.8
		c0,1,0.3,1.5,1.2,1.5s1.2-0.5,1.2-1.5v-6.9c0-1-0.3-1.5-1.2-1.5s-1.2,0.5-1.2,1.5V219.8z"/>
	<path d="M232.9,223.2v-13.7h2.2l2.9,7.8l0,0v-7.8h2.1v13.7H238l-3-8.6l0,0v8.6H232.9z"/>
</g>
</svg>
