<?xml version="1.0" encoding="utf-8"?>
<!-- Generator: Adobe Illustrator 23.0.0, SVG Export Plug-In . SVG Version: 6.00 Build 0)  -->
<svg version="1.1" id="Layer_1" xmlns="http://www.w3.org/2000/svg" xmlns:xlink="http://www.w3.org/1999/xlink" x="0px" y="0px"
	 viewBox="0 0 300 250" style="enable-background:new 0 0 300 250;" xml:space="preserve">
<style type="text/css">
	.st0{fill:#FFFFFF;}
</style>
<title>copy3</title>
<path class="st0" d="M96,215.5c-0.1-1.7-1.1-2.2-1.8-2.2s-1.8,0.7-1.8,2c0,3.4,7.1,5.1,7.1,10.6c0,3.3-2.3,5.1-5.5,5.1
	s-5.1-2.5-5.2-5.6l3.3-0.4c0.1,2,0.9,3,2.1,3s2-0.6,2-1.8c0-4-7.1-5.1-7.1-10.9c0-3.2,2-5,5.4-5s4.5,2,4.8,4.9L96,215.5z"/>
<path class="st0" d="M104.1,230.8h-3.3l3.7-20.2h4.3l3.7,20.2h-3.3l-0.6-4.5h-3.9L104.1,230.8z M105.2,223.3h2.8l-1.3-8.7h-0.1
	L105.2,223.3z"/>
<path class="st0" d="M120.6,210.6h3.4l-4.2,20.2h-3.5l-4.2-20.2h3.4l2.5,14h0.1L120.6,210.6z"/>
<path class="st0" d="M125.9,230.8v-20.2h9.3v3h-5.8v5.2h4.5v3h-4.5v5.9h6.2v3.1H125.9z"/>
<path class="st0" d="M149.9,221.6v2.1c0,2,0.8,3.2,2.4,3.2s2.6-1.1,2.6-3.7v-2.5c0-3.4-1.3-4.5-4.6-4.5v-4.3c3.2,0,4.4-1,4.4-4.8
	s-0.6-4.2-2.2-4.2s-2.5,0.7-2.5,3.2v1.3h-4.9v-1.5c0-4.3,2.7-7.3,7.4-7.3s7.1,3.9,7.1,8.1s-0.6,5.8-3.4,7.3c3.2,1.7,3.9,3.6,3.9,7.9
	c0,6.3-2.5,9.3-7.9,9.3s-7.3-2.3-7.3-7.7v-1.9L149.9,221.6z"/>
<path class="st0" d="M164.5,207.3c0-6,2.3-8.7,7.7-8.7s7.8,2.7,7.8,8.7v15.2c0,6-2.3,8.7-7.8,8.7s-7.7-2.7-7.7-8.7V207.3z
	 M174.8,205.9c0-2.1-1-3-2.6-3s-2.5,0.9-2.5,3v18c0,2,0.9,3,2.5,3s2.6-1,2.6-3V205.9z"/>
<path class="st0" d="M191.4,199c4,0,7.2,3.2,7.2,7.2s-3.2,7.2-7.2,7.2c-4,0-7.2-3.2-7.2-7.2l0,0C184.2,202.2,187.4,199,191.4,199z
	 M191.4,209.9c2,0,3.7-1.7,3.7-3.7c0-2-1.7-3.7-3.7-3.7c-2,0-3.7,1.7-3.7,3.7l0,0C187.8,208.2,189.4,209.8,191.4,209.9z
	 M209.8,198.6l-18,32.6h-3.3l18-32.6L209.8,198.6z M206.8,216.3c4-0.1,7.3,3.2,7.4,7.2c0.1,4-3.2,7.3-7.2,7.4
	c-4,0.1-7.3-3.2-7.4-7.2c0,0,0-0.1,0-0.1c-0.1-4,3.1-7.2,7.1-7.3C206.7,216.3,206.8,216.3,206.8,216.3L206.8,216.3z M206.8,227.2
	c2,0,3.7-1.7,3.7-3.7c0-2-1.7-3.7-3.7-3.7c-2,0-3.7,1.7-3.7,3.7c0,0,0,0.1,0,0.1C203.2,225.6,204.8,227.2,206.8,227.2L206.8,227.2z"
	/>
</svg>
