<svg xmlns="http://www.w3.org/2000/svg" xmlns:xlink="http://www.w3.org/1999/xlink" viewBox="0 0 300 50"><defs><clipPath id="a"><rect x="128.6" y="12.2" width="43.2" height="25.05" style="fill:none"/></clipPath></defs><title>logo1</title><g style="clip-path:url(#a)"><path d="M167.1,25.8a.8.8,0,0,0-.9.1c-.2.1-.5.1-.3-.7a22.3,22.3,0,0,1,.9-2.3c.2-.3,0-.7-.6-.7a1.1,1.1,0,0,0-.7.2,1.4,1.4,0,0,0-1.3-.5,4.4,4.4,0,0,0-3.4,2,8.6,8.6,0,0,1-1.8,2l-.7.2c-.3-.2-.2-.6.5-1.5s1.5-2.2.8-2.8a1.6,1.6,0,0,0-1.9-.1,6.2,6.2,0,0,0-1.7,1.2,66.5,66.5,0,0,1,3.2-6.1c.4-.6.4-1.2-.1-1.3s-1.1.2-1.4,1-1.8,3.7-2.7,5.6h0a9.8,9.8,0,0,1-3.1,3.8l-.6.2c-.3-.2-.2-.7.5-1.4s1.4-2.3.8-2.9a2,2,0,0,0-2-.1,6.3,6.3,0,0,0-1.9,1.5c.4-.6.4-1.2,0-1.4s-.9.1-1.4,1.5a5.4,5.4,0,0,1-2,2.6c-.2.1-.7.1-.5-.7a19.1,19.1,0,0,1,1-2.3.6.6,0,0,0-.6-.7.6.6,0,0,0-.7.2,1.8,1.8,0,0,0-1.4-.6,4.6,4.6,0,0,0-3.9,3.5,1.9,1.9,0,0,1-1.3.7c-1.1,0-1.6-.9-1.9-2,2.4-.4,4.6-1.8,5-3.8s-.9-3.7-3.3-3.7a7.5,7.5,0,0,0-6.1,3.5c-.4.7-.1,1.3.4,1.3a1.5,1.5,0,0,0,1.2-.9,4,4,0,0,1,3.7-2.6,2,2,0,0,1,2.4,2.2c-.2,1.6-1.8,2.6-3.4,3h0c0-.5-.1-.9-.4-1s-.1-.3-.3-.4-.6-.1-.9.4a48.5,48.5,0,0,1-2.9,4.1c-.5.6-.5,1.3,0,1.5a1.3,1.3,0,0,0,1.5-.8l1.4-2.5h.4c0,1.5.8,3.5,2.8,3.2a3.4,3.4,0,0,0,1.7-.9c.3.8,1.2,1,2.2.5a4.6,4.6,0,0,0,2-1.5c-.6,1.5.5,2.7,2.3,1.2.1-.1.2-.1.2-.2l-2.6,5.4c-.5,1-.3,1.4.3,1.5s.9-.3,1.3-1.1a59.9,59.9,0,0,1,2.7-6.3c1.4-2.6,3.1-3.3,3.5-3s-.2.8-.9,1.8-.9,1.9-.4,2.3,1.4.5,2.5-.4l.8-.7c-.3.7-.4,1.2,0,1.4a.8.8,0,0,0,1-.4,11,11,0,0,1,1.9-2.9c1-1.1,1.9-1.3,2.1-1.1s-.1.8-.9,1.8-.8,1.9-.4,2.3,1.4.5,2.6-.4l.7-.7c.1,1.2,1.2,1.6,2.4,1a4.2,4.2,0,0,0,1.9-1.5c-.5,1.6,1,2.6,2.4,1.2s.5-.7.3-.9m-25.3-.2c-.6.4-1.4.3-1.1-.8a2.5,2.5,0,0,1,1.8-1.6c.6,0,.8.4,1,.7a5.5,5.5,0,0,1-1.7,1.7m21,.1c-.6.3-1.4.2-1-.9a2.2,2.2,0,0,1,1.7-1.6c.6,0,.8.4,1,.7a5.6,5.6,0,0,1-1.7,1.8" style="fill:#fff"/><path d="M169.3,25.5a.9.9,0,0,0-.9.9.9.9,0,0,0,.8.8.9.9,0,1,0,.1-1.7" style="fill:#fff"/></g></svg>