<svg xmlns="http://www.w3.org/2000/svg" viewBox="0 0 320 50"><title>copy1-320x50</title><path d="M232.2,32.4c-.2,0-.3.1-.3.2s.1.3.2.3.2.1.2.3a.4.4,0,0,1-.4.4c-.2,0-.4-.3-.4-.7a1.1,1.1,0,0,1,.4-.9,1.1,1.1,0,0,1,.7-.3h1.6c.1,0,.2.1.1.2a4.1,4.1,0,0,0-1,2.2.7.7,0,0,0,.6.7,1,1,0,0,0,.8-.5,2.8,2.8,0,0,0,.4-1.1c0-.3.1-.8.1-1.1s.3-.3.5-.3.3.1.3.2a5.4,5.4,0,0,1-.4,1.2,3.7,3.7,0,0,0-.2.9.7.7,0,0,0,.7.7c.6,0,1.1-.7,1.1-1.6a1.2,1.2,0,0,0-.2-.7c0-.1-.2-.3-.2-.5a.4.4,0,0,1,.4-.4c.3,0,.6.3.6,1a3.5,3.5,0,0,1-.7,2.1,1.5,1.5,0,0,1-1.3.8.9.9,0,0,1-.9-.9,2.1,2.1,0,0,1-1.5.9.9.9,0,0,1-.9-.9,4.7,4.7,0,0,1,1.3-2.4h-.1a1.2,1.2,0,0,1-.8.3Z" style="fill:#fff"/><path d="M240.8,34.5c.1,0,.1,0,0,.1a2.1,2.1,0,0,1-1.6.9.9.9,0,0,1-.9-1,3.5,3.5,0,0,1,1.1-2.3,2.5,2.5,0,0,1,1.4-.6.6.6,0,0,1,.6.6,1.3,1.3,0,0,1-.8,1.1,2.7,2.7,0,0,1-1.4.4v.7c0,.3.2.6.4.6a1.2,1.2,0,0,0,1-.6h.2Zm-1.5-1.1a1.9,1.9,0,0,0,.9-.3,1,1,0,0,0,.4-.7.3.3,0,0,0-.3-.3C239.9,32.1,239.4,32.9,239.3,33.4Z" style="fill:#fff"/><path d="M244.2,34.5h0a2.1,2.1,0,0,1-1.6.9.9.9,0,0,1-1-1,3.5,3.5,0,0,1,1.1-2.3,2.5,2.5,0,0,1,1.4-.6.6.6,0,0,1,.6.6,1.3,1.3,0,0,1-.8,1.1,2.7,2.7,0,0,1-1.3.4c-.1.1-.1.4-.1.7a.6.6,0,0,0,.5.6,1.1,1.1,0,0,0,.9-.6h.3Zm-1.6-1.1.9-.3a1,1,0,0,0,.4-.7c0-.2,0-.3-.2-.3S242.8,32.9,242.6,33.4Z" style="fill:#fff"/><path d="M246.6,32.6a2.3,2.3,0,0,1,1.5-1,.5.5,0,0,1,.6.6c0,.7-1.2,1.4-1.6,1.5h0l.6.9c.1.3.3.4.4.4l.4-.2h.1a1,1,0,0,1-.9.5c-.5,0-.6-.2-.8-.6l-.5-.9c0-.1-.2-.1-.3-.1l-.6,1.4c0,.1,0,.1-.1.1h-.6a.1.1,0,0,1-.1-.1l2.1-5.3c.1-.2,0-.4-.3-.4h-.2c-.1,0-.1,0-.1-.1h1.6c.1,0,.1.1.1.2l-1.3,3.1Zm-.4,1.1a1.9,1.9,0,0,0,1.7-1.3.2.2,0,0,0-.2-.2,2.3,2.3,0,0,0-1.1.6.8.8,0,0,0-.2.4Z" style="fill:#fff"/><path d="M251.6,34.5h0a2.1,2.1,0,0,1-1.6.9c-.6,0-.9-.3-.9-1a3.1,3.1,0,0,1,1.1-2.3,2,2,0,0,1,1.3-.6.7.7,0,0,1,.7.6,1.4,1.4,0,0,1-.9,1.1,2.4,2.4,0,0,1-1.3.4,5.6,5.6,0,0,0-.1.7.6.6,0,0,0,.5.6,1.3,1.3,0,0,0,1-.6h.2Zm-1.5-1.1.9-.3a1,1,0,0,0,.4-.7.3.3,0,0,0-.3-.3C250.6,32.1,250.2,32.9,250.1,33.4Z" style="fill:#fff"/><path d="M253.2,35.3c0,.1,0,.1-.1.1h-.6l.6-1.7a7.9,7.9,0,0,0,.4-1.3h-.1c-.2,0-.5.3-.7.5h-.2a1.9,1.9,0,0,1,1.5-.9.4.4,0,0,1,.4.4c0,.2-.3.8-.4,1.2h0c.3-.4,1.1-1.6,2-1.6a.6.6,0,0,1,.5.6,4.6,4.6,0,0,1-.5,1.5l-.4,1.1c0,.1.1.1.2.1l.5-.4h.2a1.9,1.9,0,0,1-1.5.8.3.3,0,0,1-.3-.3c0-.2.3-.8.5-1.6a3.7,3.7,0,0,0,.4-1.1c0-.2,0-.2-.2-.2a3.9,3.9,0,0,0-1.4,1.3l-.5.9Z" style="fill:#fff"/><path d="M261.7,29.3c.2,0,.2.1.2.2s-1.6,4.5-1.8,5,0,.4.1.4l.6-.4h.2a2.2,2.2,0,0,1-1.5.8.3.3,0,0,1-.3-.3,5.4,5.4,0,0,1,.4-1.2h-.1c-.4.7-1.1,1.5-1.8,1.5s-.6-.4-.6-.8a4.2,4.2,0,0,1,1.1-2.4,2.3,2.3,0,0,1,1.4-.7l.6.3.6-1.9c.1-.2,0-.4-.2-.4h-.4v-.2h1.4ZM259.4,32c-.6,0-1.4,1.9-1.4,2.6s.1.3.2.3.8-.6,1.2-1.1a3.5,3.5,0,0,0,.5-1.3C259.9,32.2,259.8,32,259.4,32Z" style="fill:#fff"/><path d="M264.6,34.2c-.2.4-.2.5-.2.6s0,.1.1.1.6-.5.7-.5.1-.1.1,0h.1a2.3,2.3,0,0,1-1.7,1c-.2,0-.2-.1-.2-.3a5.6,5.6,0,0,1,.5-1.6l.2-.7a1.7,1.7,0,0,0,.2-.5.1.1,0,0,0-.1-.1c-.2,0-.6.5-.7.6h-.3c.1,0,.9-1.1,1.7-1.1a.3.3,0,0,1,.3.3,8.4,8.4,0,0,1-.2,1Zm.1-4.1a.5.5,0,0,1,.5-.5c.4,0,.6.2.6.4a.6.6,0,0,1-.6.6A.5.5,0,0,1,264.7,30.1Z" style="fill:#fff"/><path d="M266.5,35.5c-.6,0-.9-.2-.9-.5s.1-.4.3-.4a.5.5,0,0,1,.5.3.3.3,0,0,0,.3.3c.2,0,.4-.2.4-.6a1.8,1.8,0,0,0-.4-.9,1.4,1.4,0,0,1-.3-.9,1.2,1.2,0,0,1,1.3-1.2.7.7,0,0,1,.7.6.3.3,0,0,1-.3.3c-.2,0-.3,0-.4-.3a.2.2,0,0,0-.2-.2c-.2,0-.4.1-.4.5a1.5,1.5,0,0,0,.4.8,1.5,1.5,0,0,1,.4,1A1.3,1.3,0,0,1,266.5,35.5Z" style="fill:#fff"/><path d="M272,33c.5-.7,1.1-1.4,1.8-1.4s.7.5.7.9a5.1,5.1,0,0,1-.6,2c-.4.7-.9,1.2-1.5,1.2a.5.5,0,0,1-.5-.5c0-.2.1-.5.3-.5s.3.2.4.3,0,.3.1.3.4-.6.6-1a5.5,5.5,0,0,0,.3-1.7c0-.2,0-.4-.2-.4s-1.1.8-1.4,1.1a4.1,4.1,0,0,0-.5.9l-.4,1.1h-.7a.1.1,0,0,1-.1-.1l1.9-5.1a.8.8,0,0,0,.2-.4c0-.1-.2-.2-.3-.2h-.3s-.1,0,0-.1h1.6v.3L272,32.9Z" style="fill:#fff"/><path d="M277.4,34.5c.1,0,.1,0,0,.1a2.1,2.1,0,0,1-1.6.9c-.6,0-.9-.3-.9-1a3.5,3.5,0,0,1,1.1-2.3,2.5,2.5,0,0,1,1.3-.6c.5,0,.7.3.7.6a1.3,1.3,0,0,1-.8,1.1,2.7,2.7,0,0,1-1.4.4,5.6,5.6,0,0,0-.1.7.6.6,0,0,0,.5.6,1.3,1.3,0,0,0,1-.6h.2Zm-1.5-1.1.9-.3a1,1,0,0,0,.4-.7.3.3,0,0,0-.3-.3C276.5,32.1,276,32.9,275.9,33.4Z" style="fill:#fff"/><path d="M278.5,35.4c-.1,0-.1,0-.1-.1l.5-1.4c.1-.5.4-1.4.4-1.6h-.2a1.3,1.3,0,0,0-.6.5h-.2a1.7,1.7,0,0,1,1.4-1,.4.4,0,0,1,.4.4,7.9,7.9,0,0,1-.4,1.2h.1c.2-.5.8-1.6,1.4-1.6a.5.5,0,0,1,.5.5.5.5,0,0,1-.4.5h-.5c-.3,0-.8.8-1,1.3l-.3.7-.3.9a.1.1,0,0,1-.1.1Z" style="fill:#fff"/><path d="M284.2,34.5h0a2.1,2.1,0,0,1-1.6.9c-.6,0-.9-.3-.9-1a3.1,3.1,0,0,1,1.1-2.3,2.2,2.2,0,0,1,1.3-.6.7.7,0,0,1,.7.6,1.2,1.2,0,0,1-.9,1.1,2.2,2.2,0,0,1-1.3.4,5.6,5.6,0,0,0-.1.7.6.6,0,0,0,.5.6,1.3,1.3,0,0,0,1-.6h.2Zm-1.5-1.1.9-.3a1,1,0,0,0,.4-.7.3.3,0,0,0-.3-.3C283.3,32.1,282.8,32.9,282.7,33.4Z" style="fill:#fff"/><path d="M218.4,14.8h3c2.1,0,3,1.1,3,3.1a2.5,2.5,0,0,1-1.3,2.4,2.7,2.7,0,0,1,1.6,2.7c0,2-.9,3.4-3.2,3.4h-3.1Zm2,4.8h.7c.8,0,1.3-.5,1.3-1.5s-.4-1.6-1.3-1.6h-.7Zm0,5.2h.8c1.1,0,1.5-.6,1.5-1.8s-.5-1.8-1.7-1.8h-.6Z" style="fill:#fff"/><path d="M226.3,26.4V14.8h2v9.9h3.1v1.7Z" style="fill:#fff"/><path d="M233.8,26.4h-1.9L234,14.8h2.5l2.1,11.6h-1.9l-.4-2.6h-2.2Zm.6-4.3H236l-.8-5h0Z" style="fill:#fff"/><path d="M243.7,18.7v-.9c0-1-.4-1.4-.9-1.4s-1.1.4-1.1,1.3v5.8c0,.9.3,1.3,1.1,1.3s.9-.4.9-1.1V22.3h2v1.3a2.8,2.8,0,0,1-2.9,3,2.9,2.9,0,0,1-3.1-3v-6a3,3,0,1,1,6,.2v.9Z" style="fill:#fff"/><path d="M247.6,26.4V14.8h2v4.3h.1l2-4.3h2l-2.1,4.3,2.4,7.3h-2L250.4,21h-.1l-.7,1.3v4.1Z" style="fill:#fff"/><path d="M258.4,26.4V14.8h5.5v1.8h-3.5v2.9H263v1.8h-2.6v5.1Z" style="fill:#fff"/><path d="M267.5,26.4h-2V14.8h2.8c2.2,0,3.3,1,3.3,3.4s-.7,2.7-1.3,3l1.6,5.2h-2l-1.4-4.8h-1Zm0-6.4h.7c1.1,0,1.5-.4,1.5-1.8s-.4-1.7-1.5-1.7h-.7Z" style="fill:#fff"/><path d="M273.8,26.4V14.8h2V26.4Z" style="fill:#fff"/><path d="M277.9,14.8h3c2,0,3.1,1.2,3.1,3.5v4.6c0,2.4-1.1,3.5-3.1,3.5h-3Zm2,10h.7c1.1,0,1.4-.4,1.4-1.7v-5c0-1.2-.3-1.6-1.4-1.6h-.7Z" style="fill:#fff"/><path d="M287.1,26.4h-1.9l2.1-11.6h2.5l2.1,11.6H290l-.4-2.6h-2.1Zm.6-4.3h1.6l-.7-5h-.1Z" style="fill:#fff"/><path d="M295.8,26.4h-2V21.6l-2.4-6.8h2l1.4,4.4h0l1.3-4.4h2.1l-2.4,6.8Z" style="fill:#fff"/></svg>