<svg id="_1_-_black_friday_is_coming" data-name="1 - black friday is coming" xmlns="http://www.w3.org/2000/svg" viewBox="0 0 320 50"><defs><style>.cls-1{fill:#fff;}</style></defs><title>320x50txt2</title><g id="english"><rect class="cls-1" x="222.24" y="9.44" width="76.25" height="31.06"/><path d="M233.73,14.45h2.14a2,2,0,0,1,2.22,2.21,1.81,1.81,0,0,1-1,1.76,1.9,1.9,0,0,1,1.16,2c0,1.38-.61,2.42-2.25,2.42h-2.27Zm1.44,3.43h.52a1,1,0,0,0,1-1.07c0-.77-.3-1.18-.94-1.18h-.54Zm0,3.76h.6c.77,0,1-.44,1-1.29s-.33-1.29-1.19-1.29h-.46Z"/><path d="M241,22.82h-1.43V14.45h2c1.62,0,2.44.68,2.44,2.47,0,1.34-.52,1.89-1,2.11l1.22,3.79h-1.46l-1-3.47a5.56,5.56,0,0,1-.75,0Zm0-4.61h.51c.78,0,1.07-.29,1.07-1.29s-.29-1.29-1.07-1.29H241Z"/><path d="M245.32,16.48a2.21,2.21,0,0,1,4.41,0v4.31a2.21,2.21,0,0,1-4.41,0Zm1.44,4.28c0,.62.19.93.77.93s.76-.31.76-.93V16.51c0-.62-.18-.92-.76-.92s-.77.3-.77.92Z"/><path d="M253.61,14.45h1.18l1,5.33h0l.8-5.33h1.35l-1.48,8.37h-1.2l-1-5.53h0l-1,5.53H252l-1.59-8.37h1.35l.88,5.33h0Z"/><path d="M261.47,16.51c-.06-.72-.44-.92-.77-.92s-.72.3-.72.82c0,1.42,2.93,2.11,2.93,4.38a2.06,2.06,0,0,1-2.28,2.15,2.2,2.2,0,0,1-2.15-2.32l1.36-.2c.06.85.4,1.27.86,1.27a.74.74,0,0,0,.84-.77c0-1.66-2.92-2.1-2.92-4.5a2,2,0,0,1,2.22-2.09,2,2,0,0,1,2,2Z"/><path d="M264,22.82V14.45h3.85V15.7h-2.41v2.16h1.86v1.25h-1.86v2.46H268v1.25Z"/><path d="M272.55,15.7h-1.4V14.45h4.23V15.7H274v7.12h-1.43Z"/><path d="M276.22,22.82V14.45h1.44v3.41h1.53V14.45h1.44v8.37h-1.44V19.11h-1.53v3.71Z"/><path d="M282,22.82V14.45h3.85V15.7h-2.42v2.16h1.86v1.25h-1.86v2.46H286v1.25Z"/><path d="M237.91,29.44v-.65c0-.7-.32-1-.69-1-.58,0-.77.3-.77.92V33c0,.62.19.93.77.93s.69-.31.69-.85V32h1.44v1a2,2,0,0,1-2.13,2.15A2,2,0,0,1,235,33V28.68a2,2,0,0,1,2.21-2.15,2.08,2.08,0,0,1,2.13,2.3v.61Z"/><path d="M240.81,28.68a2.2,2.2,0,0,1,4.4,0V33a2.2,2.2,0,0,1-4.4,0ZM242.25,33c0,.62.18.93.76.93s.77-.31.77-.93V28.71c0-.62-.19-.92-.77-.92s-.76.3-.76.92Z"/><path d="M246.53,35V26.65H248v7.12h2.26V35Z"/><path d="M251,35V26.65h1.44v7.12h2.26V35Z"/><path d="M255.62,35V26.65h3.85V27.9h-2.41v2.16h1.85v1.25h-1.85v2.46h2.57V35Z"/><path d="M263.66,29.44v-.65c0-.7-.32-1-.69-1-.58,0-.77.3-.77.92V33c0,.62.19.93.77.93s.69-.31.69-.85V32h1.44v1A2,2,0,0,1,263,35.14a2,2,0,0,1-2.2-2.15V28.68a2,2,0,0,1,2.2-2.15,2.08,2.08,0,0,1,2.13,2.3v.61Z"/><path d="M267.39,27.9H266V26.65h4.22V27.9h-1.39V35h-1.44Z"/><path d="M271.27,35V26.65h1.43V35Z"/><path d="M274.29,28.68a2.21,2.21,0,0,1,4.41,0V33a2.21,2.21,0,0,1-4.41,0ZM275.73,33c0,.62.18.93.76.93s.77-.31.77-.93V28.71c0-.62-.19-.92-.77-.92s-.76.3-.76.92Z"/><path d="M280.09,35V26.65h1.33l1.75,4.79h0V26.65h1.3V35h-1.25l-1.83-5.23h0V35Z"/></g></svg>