<svg xmlns="http://www.w3.org/2000/svg" viewBox="0 0 320 50"><title>cta</title><rect x="221.2" y="13.5" width="75.3" height="23.75" style="fill:#fff"/><path d="M238.9,22.8c0-.8-.4-1-.8-1s-.8.3-.8.9,3.2,2.3,3.2,4.8a2.2,2.2,0,0,1-2.5,2.3,2.3,2.3,0,0,1-2.3-2.5l1.5-.2c0,.9.4,1.4.9,1.4a.8.8,0,0,0,.9-.9c0-1.8-3.2-2.3-3.2-4.9s.9-2.3,2.5-2.3a2.1,2.1,0,0,1,2.1,2.2Z"/><path d="M241.7,29.7V20.5h1.6v3.8H245V20.5h1.5v9.2H245V25.6h-1.7v4.1Z"/><path d="M248.1,22.7a2.2,2.2,0,0,1,2.4-2.3,2.2,2.2,0,0,1,2.4,2.3v4.8a2.2,2.2,0,0,1-2.4,2.3,2.1,2.1,0,0,1-2.4-2.3Zm1.6,4.7c0,.7.2,1.1.8,1.1s.8-.4.8-1.1V22.8c0-.7-.2-1-.8-1s-.8.3-.8,1Z"/><path d="M254.4,29.7V20.5h2.3c1.9,0,2.8.8,2.8,2.7s-.9,2.7-2.8,2.7H256v3.8Zm1.6-5.1h.6c1,0,1.4-.3,1.4-1.4s-.4-1.4-1.4-1.4H256Z"/><path d="M263.6,29.7V20.5h1.5l1.9,5.3h0V20.5h1.4v9.2h-1.3l-2-5.7H265v5.7Z"/><path d="M270,22.7a2.2,2.2,0,0,1,2.4-2.3,2.2,2.2,0,0,1,2.4,2.3v4.8a2.2,2.2,0,0,1-2.4,2.3,2.1,2.1,0,0,1-2.4-2.3Zm1.5,4.7c0,.7.2,1.1.9,1.1s.8-.4.8-1.1V22.8c0-.7-.2-1-.8-1s-.9.3-.9,1Z"/><path d="M279.1,20.5h1.2l1.1,5.9h0l.9-5.9h1.5l-1.6,9.2h-1.3l-1.2-6.1h0l-1.1,6.1h-1.3l-1.7-9.2H277l1,5.9h0Z"/></svg>