<svg xmlns="http://www.w3.org/2000/svg" xmlns:xlink="http://www.w3.org/1999/xlink" viewBox="0 0 160 600"><defs><clipPath id="a"><rect x="31" y="17.7" width="99" height="41.93" style="fill:none"/></clipPath></defs><title>logo2</title><g style="clip-path:url(#a)"><path d="M109.6,40.5c-.4-.4-.9-.3-1.4.1s-.9.2-.6-1.1a27.6,27.6,0,0,1,1.6-3.9c.2-.5-.1-1.1-1.1-1.2a1.3,1.3,0,0,0-1.2.4,2.7,2.7,0,0,0-2.2-1c-1.7,0-4.2,1.4-5.6,3.5A12.2,12.2,0,0,1,96,40.6c-.4.2-.8.4-1,.3s-.4-1,.7-2.4,2.5-3.8,1.4-4.8a3.2,3.2,0,0,0-3.3-.1,9.2,9.2,0,0,0-2.8,2c1.8-3.6,4-7.8,5.4-10.2s.7-2-.2-2.2-1.7.3-2.4,1.7c-1.6,3.2-2.9,6.1-4.4,9.4h0a17.1,17.1,0,0,1-5.2,6.4,1.3,1.3,0,0,1-1,.3c-.6-.2-.4-1.1.8-2.4s2.4-3.8,1.3-4.8a3,3,0,0,0-3.2-.1,10.1,10.1,0,0,0-3.3,2.5c.7-1.1.6-2.1-.1-2.3s-1.4.1-2.2,2.5-1.7,3.5-3.4,4.3-1.1.2-.8-1.1,1.5-3.5,1.6-3.9,0-1.2-1-1.2a1.2,1.2,0,0,0-1.2.4,2.7,2.7,0,0,0-2.2-1c-2.3,0-5.7,2.3-6.6,5.8a3.4,3.4,0,0,1-2.2,1.2c-1.8,0-2.7-1.5-3.1-3.3,3.9-.8,7.7-3.1,8.4-6.5s-1.6-6.2-5.6-6.1a12.8,12.8,0,0,0-10.3,5.9c-.6,1.2-.1,2.1.8,2.1a2.1,2.1,0,0,0,1.9-1.6c.6-1.8,2.7-4,6.3-4.3s4.3,1.5,4,3.8-3,4.2-5.7,4.9v-.2c0-.8-.1-1.4-.7-1.5s-.1-.6-.4-.7a1.2,1.2,0,0,0-1.6.6,80,80,0,0,1-4.8,6.8c-.8,1.1-.8,2.3,0,2.6s1.7-.1,2.4-1.3,1.8-3,2.5-4.2h.5c.2,2.5,1.4,5.9,4.8,5.4a6.8,6.8,0,0,0,2.8-1.5c.5,1.3,2.1,1.7,3.8.9A9.6,9.6,0,0,0,69.9,40c-1,2.5,1,4.4,3.9,2l.4-.3c-1.5,3.1-3.3,6.6-4.4,9s-.5,2.3.5,2.4,1.5-.4,2.1-1.8,2.3-5.9,4.7-10.5,5.1-5.5,5.7-5.1-.2,1.4-1.5,3-1.4,3.3-.7,3.9,2.4.9,4.3-.6l1.4-1.3c-.7,1.2-.9,2.1-.1,2.4a1.2,1.2,0,0,0,1.7-.7A18.3,18.3,0,0,1,91,37.6c1.7-1.8,3.2-2.1,3.6-1.9s-.3,1.4-1.6,3-1.3,3.3-.6,3.9,2.4.9,4.3-.6L98,40.8c.1,2,2,2.6,3.9,1.7a9.6,9.6,0,0,0,3.2-2.5c-.8,2.6,1.6,4.2,4.1,2,.6-.5.7-1.2.4-1.5m-42.4-.3c-1,.6-2.3.4-1.7-1.4s2-2.7,2.9-2.6a1.6,1.6,0,0,1,1.7,1,9.1,9.1,0,0,1-2.9,3m35.2,0c-.9.6-2.2.4-1.6-1.4a3.7,3.7,0,0,1,2.8-2.7,2,2,0,0,1,1.7,1.2,9.9,9.9,0,0,1-2.9,2.9" style="fill:#fff"/><path d="M113.2,39.9a1.5,1.5,0,0,0-1.4,1.5,1.4,1.4,0,0,0,1.4,1.4,1.5,1.5,0,0,0,1.5-1.4,1.5,1.5,0,0,0-1.5-1.5" style="fill:#fff"/></g></svg>