<svg xmlns="http://www.w3.org/2000/svg" viewBox="0 0 160 600"><title>copy1-160x600</title><path d="M31.5,554.5a.6.6,0,0,0-.6.5c-.1.3.3.4.4.5s.4.2.4.6a.6.6,0,0,1-.7.7c-.4,0-.9-.5-.9-1.3a1.9,1.9,0,0,1,.8-1.6,1.8,1.8,0,0,1,1.4-.6h3c.2,0,.3.1.1.4a9.2,9.2,0,0,0-1.7,4.2c0,.7.3,1.2.9,1.3a2.1,2.1,0,0,0,1.7-1,6.7,6.7,0,0,0,.6-2.1c.1-.6.2-1.4.3-2.1a1,1,0,0,1,.9-.6.6.6,0,0,1,.6.5,22.7,22.7,0,0,1-.8,2.2,13.5,13.5,0,0,0-.3,1.8,1.2,1.2,0,0,0,1.2,1.2c1.1,0,2.2-1.2,2.2-2.9a2.3,2.3,0,0,0-.4-1.4,1.5,1.5,0,0,1-.4-.8.8.8,0,0,1,.7-.8c.7,0,1.2.5,1.2,1.8a7.3,7.3,0,0,1-1.3,3.9,3.2,3.2,0,0,1-2.6,1.6,1.7,1.7,0,0,1-1.6-1.7,3.8,3.8,0,0,1-2.8,1.7,1.7,1.7,0,0,1-1.7-1.7c0-1.5,1.6-3.7,2.3-4.6h0a3.7,3.7,0,0,1-1.6.5Z" style="fill:#fff"/><path d="M47.8,558.5c.1.1.1.1,0,.2a3.9,3.9,0,0,1-3,1.7,1.6,1.6,0,0,1-1.8-1.8,6.5,6.5,0,0,1,2.1-4.4,4.1,4.1,0,0,1,2.5-1.1,1.1,1.1,0,0,1,1.2,1,2.4,2.4,0,0,1-1.5,2.2,7.9,7.9,0,0,1-2.5.8,2.5,2.5,0,0,0-.2,1.2,1,1,0,0,0,.9,1.1,2.6,2.6,0,0,0,1.9-1,.1.1,0,0,1,.1-.1Zm-2.9-2a3.5,3.5,0,0,0,1.7-.6,1.9,1.9,0,0,0,.7-1.3c0-.3-.1-.6-.5-.6S45.1,555.6,44.9,556.5Z" style="fill:#fff"/><path d="M54.1,558.5v.2a3.9,3.9,0,0,1-3,1.7,1.6,1.6,0,0,1-1.8-1.8,6.5,6.5,0,0,1,2.1-4.4,4.1,4.1,0,0,1,2.5-1.1,1.1,1.1,0,0,1,1.2,1,2.4,2.4,0,0,1-1.5,2.2,8.7,8.7,0,0,1-2.5.8,2.5,2.5,0,0,0-.2,1.2,1,1,0,0,0,.9,1.1,2.6,2.6,0,0,0,1.9-1,.1.1,0,0,1,.1-.1Zm-2.9-2a3.8,3.8,0,0,0,1.7-.6,1.9,1.9,0,0,0,.7-1.3c0-.3-.1-.6-.5-.6S51.4,555.6,51.2,556.5Z" style="fill:#fff"/><path d="M58.7,554.9a4.2,4.2,0,0,1,2.9-1.8,1,1,0,0,1,1.1,1c0,1.4-2.3,2.7-3.1,3h0l1.1,1.8c.3.4.5.6.8.6a1,1,0,0,0,.7-.4c0-.1.1,0,.1,0l.2.2c.1,0,.1.1,0,.2a2.7,2.7,0,0,1-1.7.8,1.5,1.5,0,0,1-1.6-1l-.8-1.8c-.1-.2-.4-.2-.7-.2l-1,2.7H55.3c-.1,0-.2-.1-.1-.2l3.8-9.9c.2-.4,0-.7-.5-.7h-.4c-.1,0-.2-.1-.1-.2v-.3c0-.1,0-.2.2-.2H61c.1,0,.2.2.1.4l-2.5,5.8Zm-.9,2.1c1.5.2,3.3-1.5,3.3-2.4s-.1-.5-.4-.5a4.1,4.1,0,0,0-2,1.3l-.5.6Z" style="fill:#fff"/><path d="M68.1,558.5c.1.1.1.1.1.2a4.1,4.1,0,0,1-3.1,1.7,1.6,1.6,0,0,1-1.8-1.8,6.5,6.5,0,0,1,2.1-4.4,4.3,4.3,0,0,1,2.6-1.1,1.1,1.1,0,0,1,1.2,1,2.5,2.5,0,0,1-1.6,2.2,7.2,7.2,0,0,1-2.5.8,10.5,10.5,0,0,0-.1,1.2c0,.7.4,1.1.9,1.1a2.4,2.4,0,0,0,1.8-1,.1.1,0,0,1,.1-.1Zm-2.8-2a3.8,3.8,0,0,0,1.7-.6,2.4,2.4,0,0,0,.7-1.3.6.6,0,0,0-.5-.6C66.3,554,65.5,555.6,65.3,556.5Z" style="fill:#fff"/><path d="M71.2,560.1c0,.1,0,.1-.2.1H69.9c-.1,0-.2-.1-.1-.2l1.1-3.2a15.9,15.9,0,0,0,.8-2.3c0-.2-.1-.3-.2-.3s-1,.6-1.3.9-.1.1-.1,0l-.2-.2c-.1,0-.1-.1,0-.2a3.9,3.9,0,0,1,2.9-1.6.6.6,0,0,1,.6.6,10.6,10.6,0,0,1-.8,2.3h.1c.5-.8,2.1-3,3.7-3a1,1,0,0,1,1,1,13.1,13.1,0,0,1-1,3,10.3,10.3,0,0,0-.6,2c0,.2,0,.3.2.3a2.1,2.1,0,0,0,1-.9c.1,0,.2,0,.2.1h.2c.1.1.1.1,0,.2a4,4,0,0,1-2.8,1.5c-.4,0-.6-.2-.6-.5s.5-1.5,1-3a12.8,12.8,0,0,0,.7-2.2c0-.3-.1-.4-.3-.4s-2,1.4-2.7,2.5l-.9,1.7Z" style="fill:#fff"/><path d="M87.3,548.7c.2,0,.3.2.2.3s-3,8.6-3.2,9.6-.2.8.1.8,1-.8,1.1-.9.1-.1.1,0l.3.2v.2c-.2.1-1.4,1.5-2.8,1.5a.5.5,0,0,1-.5-.5,11.2,11.2,0,0,1,.6-2.3h-.1c-.8,1.3-2.2,2.9-3.4,2.9a1.3,1.3,0,0,1-1.2-1.4,7.1,7.1,0,0,1,2.1-4.5,3.9,3.9,0,0,1,2.6-1.4,1.4,1.4,0,0,1,1.2.6l1.1-3.7c.1-.3,0-.6-.4-.6h-.5c-.2,0-.2-.1-.2-.1v-.5h2.8Zm-4.4,5.1c-1.1,0-2.7,3.6-2.7,5a.5.5,0,0,0,.4.5c.5,0,1.5-1.2,2.2-2.1a6.8,6.8,0,0,0,1.1-2.5A.9.9,0,0,0,82.9,553.8Z" style="fill:#fff"/><path d="M92.6,558a10.2,10.2,0,0,0-.3,1.1c0,.2.1.3.2.3a7.5,7.5,0,0,0,1.3-1.1h.4c0,.1.1.1,0,.2a4.1,4.1,0,0,1-3.1,1.8c-.4,0-.5-.2-.5-.5a12.9,12.9,0,0,1,.9-3l.5-1.3a3.3,3.3,0,0,0,.3-1c0-.2-.1-.2-.2-.2s-1.1.9-1.3,1.1-.2.1-.2,0h-.2v-.2c.1-.1,1.7-2.1,3.1-2.1s.7.2.7.6a9,9,0,0,1-.6,1.8Zm.3-7.8a.9.9,0,0,1,.9-.9c.7,0,1.1.4,1.1.8a1.1,1.1,0,0,1-1,1A.9.9,0,0,1,92.9,550.2Z" style="fill:#fff"/><path d="M96.3,560.4c-1.2,0-1.7-.4-1.7-1s.2-.7.6-.7a.8.8,0,0,1,.8.7.7.7,0,0,0,.6.4c.5,0,.8-.4.8-1.1s-.4-1.1-.7-1.7a2.6,2.6,0,0,1-.7-1.7,2.3,2.3,0,0,1,2.5-2.2c.6,0,1.4.3,1.4,1a.7.7,0,0,1-.7.7.6.6,0,0,1-.7-.6.4.4,0,0,0-.4-.4c-.3,0-.7.2-.7.9a3.4,3.4,0,0,0,.8,1.6,3,3,0,0,1,.7,1.8A2.4,2.4,0,0,1,96.3,560.4Z" style="fill:#fff"/><path d="M106.7,555.6c.9-1.2,2-2.5,3.3-2.5s1.3.9,1.3,1.6a8.4,8.4,0,0,1-1.1,3.8c-.7,1.3-1.7,2.3-2.8,2.3a.9.9,0,0,1-1-1,.8.8,0,0,1,.7-.8.6.6,0,0,1,.6.6c.1.2.1.4.4.4s.7-1,1-1.9a13,13,0,0,0,.6-3.1c0-.4-.1-.8-.5-.8s-2,1.5-2.5,2.1a5.6,5.6,0,0,0-.9,1.7l-.9,2.1c0,.1-.1.1-.2.1h-1.1c-.1,0-.2-.1-.1-.2l3.6-9.5a1.7,1.7,0,0,0,.2-.8c0-.2-.2-.3-.5-.3h-.5c-.1,0-.1-.1-.1-.2v-.3c0-.1,0-.2.2-.2h2.7a.2.2,0,0,1,.2.2,1.7,1.7,0,0,1-.2.5l-2.6,6.1Z" style="fill:#fff"/><path d="M116.9,558.5c.1.1.1.1,0,.2a3.7,3.7,0,0,1-3,1.7,1.6,1.6,0,0,1-1.8-1.8,6.5,6.5,0,0,1,2.1-4.4,4.3,4.3,0,0,1,2.6-1.1,1.1,1.1,0,0,1,1.2,1,2.5,2.5,0,0,1-1.6,2.2,7.2,7.2,0,0,1-2.5.8,2.5,2.5,0,0,0-.2,1.2,1,1,0,0,0,1,1.1,2.5,2.5,0,0,0,1.8-1,.1.1,0,0,1,.1-.1Zm-2.8-2a3.8,3.8,0,0,0,1.7-.6,2.4,2.4,0,0,0,.7-1.3.6.6,0,0,0-.5-.6C115.1,554,114.3,555.6,114.1,556.5Z" style="fill:#fff"/><path d="M118.9,560.2c-.1,0-.2-.1-.1-.1l.8-2.8a19,19,0,0,0,.8-2.9c0-.1-.1-.2-.3-.2a2.2,2.2,0,0,0-1.2,1h-.2l-.2-.2h0a3.5,3.5,0,0,1,2.7-1.8.7.7,0,0,1,.7.7,11.9,11.9,0,0,1-.7,2.3h.1c.5-1,1.7-3.1,2.8-3.1a.9.9,0,0,1,.9.9.9.9,0,0,1-.7.9h-.5l-.5-.2c-.5,0-1.4,1.4-2,2.4s-.3.8-.5,1.4l-.6,1.7c0,.1-.1.1-.2.1Z" style="fill:#fff"/><path d="M129.7,558.5c.1.1.1.1.1.2a4.1,4.1,0,0,1-3.1,1.7,1.6,1.6,0,0,1-1.8-1.8,6.5,6.5,0,0,1,2.1-4.4,4.3,4.3,0,0,1,2.6-1.1,1.1,1.1,0,0,1,1.2,1,2.5,2.5,0,0,1-1.6,2.2,7.2,7.2,0,0,1-2.5.8,10.5,10.5,0,0,0-.1,1.2c0,.7.4,1.1.9,1.1a2.4,2.4,0,0,0,1.8-1c0-.1.1-.1.2-.1Zm-2.8-2a3.8,3.8,0,0,0,1.7-.6,2.4,2.4,0,0,0,.7-1.3.6.6,0,0,0-.5-.6C127.9,554,127.1,555.6,126.9,556.5Z" style="fill:#fff"/><path d="M10.9,522h5.2c3.7,0,5.4,1.9,5.4,5.3a4.5,4.5,0,0,1-2.5,4.3c1.8.8,2.8,2.2,2.8,4.8s-1.4,5.8-5.4,5.8H10.9Zm3.5,8.3h1.3a2.3,2.3,0,0,0,2.3-2.6c0-1.9-.7-2.8-2.3-2.8H14.4Zm0,9.1h1.5c1.8,0,2.5-1.1,2.5-3.1s-.8-3.2-2.9-3.2H14.4Z" style="fill:#fff"/><path d="M24.8,542.2V522h3.4v17.2h5.5v3Z" style="fill:#fff"/><path d="M37.8,542.2H34.5L38.2,522h4.3l3.7,20.2H42.9l-.6-4.5H38.4Zm1.2-7.5h2.8L40.4,526h-.1Z" style="fill:#fff"/><path d="M55.2,528.7v-1.5c0-1.7-.7-2.5-1.6-2.5s-1.9.8-1.9,2.3v10.2c0,1.5.5,2.3,1.9,2.3s1.6-.8,1.6-2.1V535h3.5v2.3c0,2.9-1.7,5.2-5.1,5.2s-5.4-2.3-5.4-5.2V526.9c0-2.9,1.7-5.2,5.4-5.2s5.1,2.5,5.1,5.6v1.4Z" style="fill:#fff"/><path d="M62.1,542.2V522h3.5v7.5h0l3.6-7.5h3.5L69,529.5l4.2,12.7H69.7l-2.9-9.4h0L65.6,535v7.2Z" style="fill:#fff"/><path d="M80.9,542.2V522h9.7v3H84.4v5.2H89v3.1H84.4v8.9Z" style="fill:#fff"/><path d="M96.8,542.2H93.3V522h4.9c3.9,0,5.9,1.7,5.9,6s-1.3,4.5-2.5,5.1l3,9.1h-3.5l-2.5-8.4H96.8Zm0-11.1H98c1.9,0,2.6-.7,2.6-3.1s-.7-3.1-2.6-3.1H96.8Z" style="fill:#fff"/><path d="M107.8,542.2V522h3.5v20.2Z" style="fill:#fff"/><path d="M115.1,522h5.2c3.5,0,5.5,2,5.5,6.1v8c0,4.2-2,6.1-5.5,6.1h-5.2Zm3.5,17.4h1.2c1.8,0,2.5-.7,2.5-2.9v-8.8c0-2.1-.7-2.8-2.5-2.8h-1.2Z" style="fill:#fff"/><path d="M131.1,542.2h-3.3l3.7-20.2h4.3l3.7,20.2h-3.3l-.6-4.5h-3.9Zm1.1-7.5H135l-1.3-8.7h-.1Z" style="fill:#fff"/><path d="M146.3,542.2h-3.5v-8.4L138.6,522h3.5l2.5,7.7h0l2.3-7.7h3.6l-4.2,11.8Z" style="fill:#fff"/></svg>