<?xml version="1.0" encoding="utf-8"?>
<!-- Generator: Adobe Illustrator 23.0.0, SVG Export Plug-In . SVG Version: 6.00 Build 0)  -->
<svg version="1.1" id="Layer_1" xmlns="http://www.w3.org/2000/svg" xmlns:xlink="http://www.w3.org/1999/xlink" x="0px" y="0px"
	 viewBox="0 0 300 50" style="enable-background:new 0 0 300 50;" xml:space="preserve">
<style type="text/css">
	.st0{fill:#FFFFFF;}
</style>
<title>copy3_1</title>
<path class="st0" d="M205.1,25.8c-0.1-1-0.6-1.3-1.1-1.3c-0.6,0-1,0.4-1,1c0,0,0,0.1,0,0.1c0,2,4.1,3,4.1,6.1c0.1,1.6-1.2,2.9-2.8,3
	c-0.1,0-0.3,0-0.4,0c-1.7-0.1-3.1-1.5-3-3.2c0,0,0,0,0,0l1.9-0.3c0.1,1.1,0.6,1.7,1.2,1.7s1.2-0.3,1.2-1c0-2.3-4.1-2.9-4.1-6.2
	s1.2-2.9,3.1-2.9c1.5,0,2.8,1.3,2.8,2.8v0L205.1,25.8z"/>
<path class="st0" d="M209.7,34.5h-1.9l2.1-11.6h2.5l2.1,11.6h-1.9l-0.4-2.6h-2.1L209.7,34.5z M210.4,30.2h1.6l-0.8-5h-0.1
	L210.4,30.2z"/>
<path class="st0" d="M219.1,22.9h2l-2.4,11.6h-2l-2.4-11.6h1.9l1.5,8.1l0,0L219.1,22.9z"/>
<path class="st0" d="M222.2,34.5V22.9h5.3v1.8h-3.3v2.9h2.5v1.8h-2.5v3.4h3.5v1.7H222.2z"/>
<path class="st0" d="M236.1,28.9v1.3c0,1.2,0.5,1.9,1.6,1.9s1.5-0.7,1.5-2.3v-1.5c0-2.1-0.8-2.7-2.8-2.7v-2.7c2,0,2.7-0.6,2.7-2.9
	s-0.3-2.6-1.3-2.6s-1.6,0.4-1.6,2v0.8h-3v-0.9c-0.2-2.4,1.6-4.4,4-4.6c0.2,0,0.4,0,0.6,0c2.9,0,4.3,2.4,4.3,5s-0.3,3.6-2.1,4.5
	c2,1,2.4,2.2,2.4,4.8s-1.5,5.8-4.8,5.8s-4.5-1.4-4.5-4.8v-1.1H236.1z"/>
<path class="st0" d="M245.1,20.1c0-3.7,1.4-5.4,4.8-5.4s4.7,1.7,4.7,5.4v9.3c0,3.7-1.4,5.4-4.7,5.4s-4.8-1.7-4.8-5.4V20.1z
	 M251.4,19.2c0-1.2-0.5-1.8-1.5-1.8s-1.6,0.6-1.6,1.8v11.1c0,1.2,0.6,1.8,1.6,1.8s1.5-0.6,1.5-1.8V19.2z"/>
<path class="st0" d="M261.6,15c2.5-0.1,4.5,1.9,4.6,4.4s-1.9,4.5-4.4,4.6c-2.5,0.1-4.5-1.9-4.6-4.4c0-0.1,0-0.1,0-0.2
	C257.3,17,259.2,15.1,261.6,15z M261.6,21.7c1.2,0.3,2.5-0.5,2.7-1.8c0.3-1.2-0.5-2.5-1.8-2.7c-0.3-0.1-0.6-0.1-1,0
	c-1.2,0-2.2,1-2.2,2.2c0,0,0,0,0,0c-0.1,1.2,0.9,2.2,2.1,2.3C261.5,21.7,261.6,21.7,261.6,21.7z M272.9,14.7l-11,20.1h-2.1
	l11.1-20.1L272.9,14.7z M271.1,25.6c2.5,0,4.5,2,4.5,4.5s-2,4.5-4.5,4.5s-4.5-2-4.5-4.5S268.6,25.6,271.1,25.6z M271.1,32.3
	c1.2,0,2.2-1,2.2-2.2c0,0,0,0,0,0c0.1-1.3-0.9-2.3-2.2-2.4c-1.3-0.1-2.3,0.9-2.4,2.2s0.9,2.3,2.2,2.4C271,32.3,271,32.3,271.1,32.3z
	"/>
</svg>
