<svg xmlns="http://www.w3.org/2000/svg" xmlns:xlink="http://www.w3.org/1999/xlink" viewBox="0 0 970 250"><defs><clipPath id="a"><polygon points="728.3 73 843.3 73 843.3 14.7 725.7 14.7 728.3 73" style="fill:none"/></clipPath></defs><title>logo2</title><g style="clip-path:url(#a)"><path d="M814.9,46.3c-.5-.5-1.2-.4-1.9.1s-1.3.4-.8-1.5a29.3,29.3,0,0,1,2.2-5.3c.3-.7-.1-1.7-1.5-1.8a2.7,2.7,0,0,0-1.7.6,3.4,3.4,0,0,0-3-1.3c-2.5-.1-5.8,1.8-7.8,4.9a18.4,18.4,0,0,1-4.4,4.4,1.8,1.8,0,0,1-1.4.5c-.8-.3-.6-1.4,1.1-3.3s3.4-5.3,1.9-6.7-2.8-1-4.6-.1a10.9,10.9,0,0,0-3.9,2.8c2.5-5.1,5.5-10.9,7.6-14.2.9-1.6.8-2.9-.4-3.1s-2.4.4-3.3,2.3c-2.2,4.5-4,8.6-6.1,13.1h0c-1.4,2.7-3.9,6.6-7.2,8.8a2.2,2.2,0,0,1-1.4.4c-.9-.3-.6-1.5,1-3.3s3.4-5.3,1.9-6.7a4.2,4.2,0,0,0-4.5-.2,14.9,14.9,0,0,0-4.6,3.5c1-1.5.9-2.9-.1-3.2s-1.9.1-3.1,3.5c-.6,1.7-2.3,4.9-4.7,5.9-.5.3-1.5.4-1.1-1.5a48.2,48.2,0,0,1,2.2-5.3c.4-.7,0-1.7-1.3-1.8a2.2,2.2,0,0,0-1.7.5,4.3,4.3,0,0,0-3.1-1.3c-3.2.1-8,3.2-9.2,8a4,4,0,0,1-3,1.7c-2.5.1-3.8-2.1-4.4-4.6,5.5-1.1,10.8-4.2,11.7-9s-2.1-8.5-7.8-8.4a18.1,18.1,0,0,0-14.3,8.1c-.8,1.7-.1,3,1.1,2.9a2.8,2.8,0,0,0,2.7-2.1c.8-2.6,3.7-5.6,8.8-6s5.9,2,5.5,5.2-4.1,5.9-7.9,6.9v-.3c0-1.1-.1-1.9-.8-2.2a1.1,1.1,0,0,0-.7-.9c-.6-.3-1.4-.2-2.2.9-2.7,4.1-4,6-6.6,9.4-1.2,1.6-1.2,3.2,0,3.6s2.3-.2,3.3-1.8,2.4-4.1,3.4-5.9h.8c.2,3.5,1.9,8.2,6.6,7.4a7.7,7.7,0,0,0,3.9-2.1c.7,1.9,3,2.4,5.3,1.3a12.8,12.8,0,0,0,4.5-3.5c-1.4,3.6,1.3,6.2,5.4,2.8l.5-.4c-2,4.3-4.6,9.2-6.2,12.5s-.5,3.3.8,3.4,2.1-.6,2.9-2.5,3.2-8.2,6.5-14.6,7.2-7.6,8-7.1-.3,1.9-2.1,4.2-1.9,4.5-1,5.4,3.4,1.2,6-.9a17,17,0,0,0,1.9-1.8c-.9,1.7-1.1,3,0,3.4a1.8,1.8,0,0,0,2.3-1,24.6,24.6,0,0,1,4.3-6.6c2.3-2.5,4.5-3.1,4.9-2.7s-.3,1.9-2.1,4.2-1.9,4.5-.9,5.4,3.3,1.3,6-.9a9.9,9.9,0,0,0,1.8-1.7c.1,2.9,2.8,3.7,5.4,2.4a13.5,13.5,0,0,0,4.6-3.5c-1.2,3.7,2.1,5.9,5.5,2.9.9-.8,1-1.8.6-2.2M756,45.9c-1.4.9-3.2.5-2.4-1.9s2.9-3.7,4.1-3.7a2.4,2.4,0,0,1,2.3,1.5,12.8,12.8,0,0,1-4,4.1m49,.1c-1.4.8-3.2.4-2.3-2s2.6-3.7,3.9-3.7a2.9,2.9,0,0,1,2.4,1.5,14.2,14.2,0,0,1-4,4.2" style="fill:#fff"/><path d="M820,45.5a2,2,0,0,0-2,2.1,2.1,2.1,0,0,0,2,2,2,2,0,0,0,2-2,2.1,2.1,0,0,0-2-2.1" style="fill:#fff"/></g></svg>