<svg id="_1_-_black_friday_is_coming" data-name="1 - black friday is coming" xmlns="http://www.w3.org/2000/svg" viewBox="0 0 970 250"><defs><style>.cls-1{fill:#fff;}</style></defs><title>970x250txt1</title><g id="english"><path class="cls-1" d="M673.88,101.52H682c5.86,0,8.46,3,8.46,8.42,0,2.73-1.15,5.59-3.79,6.65,2.78,1.23,4.41,3.43,4.41,7.53,0,5.25-2.34,9.21-8.55,9.21h-8.63Zm5.46,13h2c2.07,0,3.66-1.41,3.66-4,0-3-1.15-4.49-3.57-4.49h-2.07Zm0,14.28h2.29c2.91,0,4-1.68,4-4.89s-1.23-4.89-4.49-4.89h-1.76Z"/><path class="cls-1" d="M695.64,133.33V101.52h5.46v27.05h8.59v4.76Z"/><path class="cls-1" d="M716.21,133.33h-5.28l5.86-31.81h6.78l5.86,31.81h-5.29l-1-7.05h-6ZM718,121.52h4.4l-2.16-13.65h-.09Z"/><path class="cls-1" d="M743.62,112.14v-2.47c0-2.68-1.24-3.83-2.65-3.83-2.2,0-2.9,1.15-2.9,3.52v16.13c0,2.38.7,3.52,2.9,3.52,2,0,2.65-1.14,2.65-3.21V122h5.46v3.66c0,4.49-2.65,8.15-8.11,8.15-5.72,0-8.37-3.66-8.37-8.15V109.23c0-4.49,2.65-8.15,8.37-8.15,5.46,0,8.11,4,8.11,8.72v2.34Z"/><path class="cls-1" d="M754.36,133.33V101.52h5.47v11.77h.09l5.72-11.77h5.47l-5.91,11.85,6.66,20H766.3l-4.44-14.8h-.09l-1.94,3.52v11.28Z"/><path class="cls-1" d="M784,133.33V101.52h15.24v4.76h-9.78v8.19h7.32v4.76h-7.32v14.1Z"/><path class="cls-1" d="M809,133.33h-5.46V101.52h7.67c6.12,0,9.25,2.6,9.25,9.39,0,5.11-2,7.18-3.83,8l4.62,14.41h-5.55l-3.88-13.17a25.85,25.85,0,0,1-2.82.13Zm0-17.53h1.94c3,0,4.05-1.1,4.05-4.89s-1.1-4.89-4.05-4.89H809Z"/><path class="cls-1" d="M826.31,133.33V101.52h5.46v31.81Z"/><path class="cls-1" d="M837.81,101.52h8.1c5.64,0,8.64,3.09,8.64,9.61v12.6c0,6.52-3,9.6-8.64,9.6h-8.1Zm5.46,27.32h1.89c2.91,0,3.92-1.1,3.92-4.45V110.47c0-3.35-1-4.45-3.92-4.45h-1.89Z"/><path class="cls-1" d="M863,133.33h-5.29l5.86-31.81h6.78l5.86,31.81h-5.28l-1-7.05h-6Zm1.76-11.81h4.4L867,107.87h-.09Z"/><path class="cls-1" d="M886.84,133.33h-5.46V120.11l-6.61-18.59h5.55l3.84,12.12h.08l3.66-12.12h5.55l-6.61,18.59Z"/><path class="cls-1" d="M739.71,158.23a6.06,6.06,0,0,0-.48,1.71c0,.21.11.37.32.37.54-.05,1.93-1.49,2.09-1.71a.14.14,0,0,1,.24,0l.29.29c.11.11.16.16.06.27s-2,2.78-5,2.78a.69.69,0,0,1-.78-.75,24.4,24.4,0,0,1,1.5-4.76l.75-2.09a5.4,5.4,0,0,0,.43-1.55.29.29,0,0,0-.32-.32c-.43,0-1.66,1.39-2,1.82a.2.2,0,0,1-.32,0l-.26-.24c-.11-.08-.17-.13-.11-.24s2.57-3.26,4.92-3.26c.64,0,1,.32,1,.85a11.35,11.35,0,0,1-.8,2.78Zm.46-12.39a1.52,1.52,0,0,1,1.49-1.44,1.46,1.46,0,0,1,1.64,1.34,1.67,1.67,0,0,1-1.58,1.55A1.45,1.45,0,0,1,740.17,145.84Z"/><path class="cls-1" d="M745.49,161.92c-1.77,0-2.68-.64-2.68-1.55a1,1,0,0,1,1-1.12,1.34,1.34,0,0,1,1.28,1.06c.16.43.38.7.86.7.75,0,1.34-.59,1.34-1.71.05-.91-.64-1.69-1.21-2.65a4.58,4.58,0,0,1-1-2.7c0-1.71,1.45-3.42,4-3.42.91,0,2.09.37,2.09,1.49a1.05,1.05,0,0,1-2.09.22c-.1-.32-.21-.75-.64-.75s-1.12.37-1.12,1.55a5,5,0,0,0,1.23,2.41,4.75,4.75,0,0,1,1,2.89C749.55,160.42,747.9,161.92,745.49,161.92Z"/><path class="cls-1" d="M764,159.35c.11.06.16.11.06.27a5.88,5.88,0,0,1-4.12,2.3,2.47,2.47,0,0,1-2.41-2.65c0-3.74,2.91-8.74,6.23-8.74a1.68,1.68,0,0,1,1.85,1.49,1.3,1.3,0,0,1-1.13,1.34.86.86,0,0,1-.91-.64c-.16-.38-.4-.8-.83-.8-.58,0-1.09.64-1.6,1.82a12.56,12.56,0,0,0-1,4.7c0,1.34.4,1.93,1.09,1.93a3.66,3.66,0,0,0,2.22-1.18c.06-.11.16-.16.22-.11Z"/><path class="cls-1" d="M766.09,158.26a8.83,8.83,0,0,1,2.24-6,4.94,4.94,0,0,1,3.8-1.71,3.17,3.17,0,0,1,3.32,3.37,10.2,10.2,0,0,1-2.3,6.25,4.8,4.8,0,0,1-3.85,1.77C767.72,161.92,766.09,160.72,766.09,158.26ZM772,158a13.25,13.25,0,0,0,1.82-4.87,1.13,1.13,0,0,0-1.15-1.2c-1.1,0-2.11.93-3.42,3.13a9.16,9.16,0,0,0-1.42,4.17,1.2,1.2,0,0,0,1.12,1.26C770,160.48,770.93,159.73,772,158Z"/><path class="cls-1" d="M779,156.36a34.37,34.37,0,0,0,1.36-3.75.33.33,0,0,0-.35-.37,6.63,6.63,0,0,0-1.92,1.6.2.2,0,0,1-.32,0l-.32-.26c-.06-.11-.11-.17-.06-.27.54-.64,2.46-2.78,4.42-2.78.8,0,1.15.37,1.15,1,0,.75-1.5,3.74-1.71,4.39l.21.1c1.12-1.87,3.48-5.45,5.88-5.45a1.34,1.34,0,0,1,1.47,1.25,16.64,16.64,0,0,1-1.41,4.26l.21.1c1.44-2.24,3.53-5.61,6-5.61a1.47,1.47,0,0,1,1.47,1.44c0,.78-.67,2.3-1.47,4.6a24.94,24.94,0,0,0-1.07,3.1c0,.22.16.38.32.38.59,0,1.87-1.71,2-1.93a.15.15,0,0,1,.21-.08l.37.24c.11.11.11.16.06.38s-2.36,3.26-4.82,3.26a.85.85,0,0,1-.91-.8,22.71,22.71,0,0,1,1.61-4.82,14.3,14.3,0,0,0,1.15-3.42.5.5,0,0,0-.56-.54c-.65,0-2.78,2.41-4.44,4.93a12.1,12.1,0,0,0-1,1.87l-.83,2.3c-.05.16-.19.21-.4.21h-1.68c-.22,0-.33-.1-.27-.26l1.68-4.45a30.39,30.39,0,0,0,1.37-4,.5.5,0,0,0-.56-.53c-.65,0-2.73,2.24-4.29,4.49a13.41,13.41,0,0,0-1.22,2.25l-.89,2.3c0,.16-.18.21-.4.21h-1.68a.22.22,0,0,1-.22-.32Z"/><path class="cls-1" d="M800.8,158.23a6.06,6.06,0,0,0-.48,1.71c0,.21.11.37.32.37.54-.05,1.93-1.49,2.09-1.71a.14.14,0,0,1,.24,0l.3.29c.1.11.16.16.05.27s-2,2.78-5,2.78a.68.68,0,0,1-.77-.75,24,24,0,0,1,1.49-4.76l.75-2.09a5.4,5.4,0,0,0,.43-1.55.29.29,0,0,0-.32-.32c-.43,0-1.66,1.39-2,1.82a.2.2,0,0,1-.32,0l-.27-.24c-.11-.08-.16-.13-.11-.24s2.57-3.26,4.92-3.26c.64,0,1,.32,1,.85a10.9,10.9,0,0,1-.8,2.78Zm.46-12.39a1.52,1.52,0,0,1,1.5-1.44,1.45,1.45,0,0,1,1.63,1.34,1.67,1.67,0,0,1-1.58,1.55A1.45,1.45,0,0,1,801.26,145.84Z"/><path class="cls-1" d="M807.38,161.49c0,.11-.1.16-.37.16H805.3c-.24,0-.27-.18-.22-.35l1.82-4.94a33.56,33.56,0,0,0,1.23-3.75.39.39,0,0,0-.4-.43c-.48,0-1.52,1-2,1.4a.14.14,0,0,1-.24,0l-.3-.29c-.1-.06-.16-.16,0-.27a6.41,6.41,0,0,1,4.58-2.51.9.9,0,0,1,1,.9,17.76,17.76,0,0,1-1.26,3.59l.17.11c.8-1.23,3.26-4.6,5.8-4.6A1.46,1.46,0,0,1,817,152c0,.7-.34,2-1.44,4.71a15.08,15.08,0,0,0-1.07,3.16c0,.26.11.42.32.42.37,0,1.39-.9,1.66-1.28a.26.26,0,0,1,.32.05l.27.22c.1,0,.1.16,0,.32a6.51,6.51,0,0,1-4.44,2.3c-.59,0-.91-.32-.91-.8a37.79,37.79,0,0,1,1.6-4.66,33.67,33.67,0,0,0,1.15-3.47.57.57,0,0,0-.61-.65c-.81,0-3.05,2.14-4.17,4a16.3,16.3,0,0,0-1.45,2.73Z"/><path class="cls-1" d="M816.32,166.28a2.36,2.36,0,0,1,1.12-2,12.46,12.46,0,0,1,3.37-1.82c-.8-.59-1-1.07-1-1.61s.74-1.23,2.3-2l0-.1a3,3,0,0,1-2.19-3.13,5.38,5.38,0,0,1,5.24-5.08,3.27,3.27,0,0,1,2.62,1.15,4.09,4.09,0,0,1,2.25-.89,1.14,1.14,0,0,1,1.17,1.18.92.92,0,0,1-1,1,1.22,1.22,0,0,1-.91-.37.57.57,0,0,0-.48-.27.92.92,0,0,0-.64.32,5.48,5.48,0,0,1,.16,1.37,5.26,5.26,0,0,1-4.23,4.86c-.59.11-1,.16-1,.16-.54.27-1.13.81-1.13,1.23s.32.59.54.75c.48.35,1.82,1,3.69,2.14,1.6,1,2,1.88,2,2.68a3.26,3.26,0,0,1-1.92,2.83,8,8,0,0,1-4.28,1C818.94,169.6,816.32,168,816.32,166.28Zm9.41.48c0-1.18-.75-1.68-1.87-2.35-.27-.16-2-1.18-2.38-1.45-1.63.75-2.65,1.66-2.65,2.89,0,1.87,1.93,2.78,3.91,2.78C824.07,168.63,825.73,168,825.73,166.76ZM826,153c0-1-.21-1.63-1-1.63-.59,0-1,.32-1.47,1a6.7,6.7,0,0,0-1.21,4.1c0,1,.32,1.49,1,1.49C825,158,826,154.91,826,153Z"/></g></svg>