<svg id="_1_-_black_friday_is_coming" data-name="1 - black friday is coming" xmlns="http://www.w3.org/2000/svg" viewBox="0 0 970 250"><defs><style>.cls-1{fill:#fff;}</style></defs><title>970x250txt2</title><g id="english"><rect class="cls-1" x="710" y="194.91" width="148" height="26.09"/><path d="M720.05,202.72h2.6a2.39,2.39,0,0,1,2.72,2.7,2.2,2.2,0,0,1-1.22,2.14,2.35,2.35,0,0,1,1.42,2.42c0,1.69-.75,3-2.75,3h-2.77Zm1.75,4.19h.64a1.16,1.16,0,0,0,1.17-1.3c0-1-.36-1.45-1.14-1.45h-.67Zm0,4.59h.74c.93,0,1.27-.54,1.27-1.57s-.39-1.57-1.44-1.57h-.57Z"/><path d="M728.88,212.94h-1.75V202.72h2.46c2,0,3,.83,3,3,0,1.64-.64,2.3-1.24,2.57l1.49,4.63H731l-1.25-4.23a8.12,8.12,0,0,1-.91,0Zm0-5.63h.63c1,0,1.3-.36,1.3-1.57s-.35-1.58-1.3-1.58h-.63Z"/><path d="M734.21,205.2a2.69,2.69,0,0,1,5.38,0v5.26a2.69,2.69,0,0,1-5.38,0Zm1.76,5.22c0,.77.22,1.14.93,1.14s.93-.37.93-1.14v-5.18c0-.76-.22-1.13-.93-1.13s-.93.37-.93,1.13Z"/><path d="M744.34,202.72h1.44l1.19,6.51h0l1-6.51h1.64l-1.8,10.22h-1.47l-1.28-6.75h0l-1.19,6.75h-1.47l-1.94-10.22h1.64l1.08,6.51h0Z"/><path d="M753.94,205.24c-.07-.88-.54-1.13-.94-1.13-.56,0-.87.37-.87,1,0,1.74,3.57,2.58,3.57,5.35a2.51,2.51,0,0,1-2.78,2.62,2.69,2.69,0,0,1-2.63-2.83L752,210c.07,1,.48,1.55,1,1.55a.91.91,0,0,0,1-.94c0-2-3.56-2.56-3.56-5.49a2.39,2.39,0,0,1,2.71-2.55,2.46,2.46,0,0,1,2.44,2.48Z"/><path d="M757,212.94V202.72h4.7v1.53h-3v2.63h2.27v1.53h-2.27v3h3.15v1.53Z"/><path d="M767.48,204.25h-1.7v-1.53h5.16v1.53h-1.7v8.69h-1.76Z"/><path d="M772,212.94V202.72h1.76v4.16h1.87v-4.16h1.75v10.22H775.6v-4.53h-1.87v4.53Z"/><path d="M779.05,212.94V202.72h4.7v1.53h-2.94v2.63h2.27v1.53h-2.27v3H784v1.53Z"/><path d="M792,206.13v-.79c0-.86-.4-1.23-.85-1.23-.71,0-.94.37-.94,1.13v5.18c0,.77.23,1.14.94,1.14s.85-.37.85-1v-1.23h1.75v1.17a2.43,2.43,0,0,1-2.6,2.62,2.45,2.45,0,0,1-2.69-2.62V205.2a2.45,2.45,0,0,1,2.69-2.62,2.53,2.53,0,0,1,2.6,2.8v.75Z"/><path d="M795.57,205.2a2.69,2.69,0,0,1,5.38,0v5.26a2.69,2.69,0,0,1-5.38,0Zm1.76,5.22c0,.77.22,1.14.93,1.14s.93-.37.93-1.14v-5.18c0-.76-.22-1.13-.93-1.13s-.93.37-.93,1.13Z"/><path d="M802.57,212.94V202.72h1.75v8.69h2.76v1.53Z"/><path d="M808.08,212.94V202.72h1.75v8.69h2.76v1.53Z"/><path d="M813.67,212.94V202.72h4.7v1.53h-2.94v2.63h2.26v1.53h-2.26v3h3.14v1.53Z"/><path d="M823.5,206.13v-.79c0-.86-.4-1.23-.85-1.23-.71,0-.93.37-.93,1.13v5.18c0,.77.22,1.14.93,1.14s.85-.37.85-1v-1.23h1.76v1.17a2.65,2.65,0,0,1-5.3,0V205.2a2.45,2.45,0,0,1,2.69-2.62,2.53,2.53,0,0,1,2.61,2.8v.75Z"/><path d="M828.06,204.25h-1.7v-1.53h5.16v1.53h-1.7v8.69h-1.76Z"/><path d="M832.79,212.94V202.72h1.76v10.22Z"/><path d="M836.49,205.2a2.69,2.69,0,0,1,5.38,0v5.26a2.69,2.69,0,0,1-5.38,0Zm1.76,5.22c0,.77.22,1.14.93,1.14s.93-.37.93-1.14v-5.18c0-.76-.22-1.13-.93-1.13s-.93.37-.93,1.13Z"/><path d="M843.57,212.94V202.72h1.63l2.14,5.85h0v-5.85H849v10.22h-1.53l-2.23-6.38h0v6.38Z"/></g></svg>