<?xml version="1.0" encoding="utf-8"?>
<!-- Generator: Adobe Illustrator 23.0.0, SVG Export Plug-In . SVG Version: 6.00 Build 0)  -->
<svg version="1.1" id="Layer_1" xmlns="http://www.w3.org/2000/svg" xmlns:xlink="http://www.w3.org/1999/xlink" x="0px" y="0px"
	 viewBox="0 0 970 250" style="enable-background:new 0 0 970 250;" xml:space="preserve">
<style type="text/css">
	.st0{fill:#FFFFFF;}
</style>
<title>copy3</title>
<path class="st0" d="M699.4,126.7c-0.2-2.5-1.5-3.2-2.7-3.2s-2.4,1.1-2.4,2.9c0,4.9,10,7.2,10,15.1c0,4.7-3.2,7.4-7.8,7.4
	s-7.2-3.7-7.4-8l4.7-0.7c0.2,2.9,1.3,4.4,2.9,4.4c1.4,0.2,2.7-0.9,2.9-2.3c0-0.1,0-0.3,0-0.4c0-5.7-10.1-7.2-10.1-15.5
	c0-4.6,2.8-7.2,7.7-7.2s6.5,2.9,6.9,7L699.4,126.7z"/>
<path class="st0" d="M711,148.5h-4.8l5.3-28.9h6.2l5.3,28.9h-4.8l-0.9-6.4h-5.4L711,148.5z M712.6,137.8h4l-2-12.4h-0.1L712.6,137.8
	z"/>
<path class="st0" d="M734.5,119.6h4.9l-6.1,28.9h-4.9l-6.1-28.9h4.9l3.6,20h0.1L734.5,119.6z"/>
<path class="st0" d="M742.1,148.5v-28.9h13.3v4.3h-8.3v7.5h6.4v4.3h-6.4v8.5h8.9v4.3H742.1z"/>
<path class="st0" d="M776.3,135.3v3.1c0,2.8,1.2,4.5,3.6,4.5s3.7-1.5,3.7-5.3v-3.5c0-4.9-1.9-6.4-6.7-6.4v-6.2
	c4.6,0,6.4-1.5,6.4-6.9s-0.8-6.1-3.2-6.1s-3.5,1.1-3.5,4.7v1.9h-7.1V113c0-6.2,3.9-10.6,10.7-10.6s10.1,5.6,10.1,11.6
	s-0.9,8.3-4.9,10.5c4.6,2.4,5.6,5.1,5.6,11.3c0,9-3.6,13.3-11.3,13.3s-10.4-3.3-10.4-11.1v-2.7H776.3z"/>
<path class="st0" d="M797.3,114.8c0-8.5,3.2-12.4,11-12.4s11.1,3.9,11.1,12.4v21.8c0,8.6-3.2,12.5-11.1,12.5s-11-3.9-11-12.5V114.8z
	 M812,112.9c0-3-1.3-4.4-3.7-4.4s-3.6,1.4-3.6,4.4v25.7c0,3,1.3,4.3,3.6,4.3s3.7-1.3,3.7-4.3V112.9z"/>
<path class="st0" d="M835.8,103c5.7-0.1,10.4,4.6,10.5,10.3c0.1,5.7-4.6,10.4-10.3,10.5c-5.7,0.1-10.4-4.6-10.5-10.3
	c0-0.1,0-0.1,0-0.2C825.5,107.6,830.1,103,835.8,103z M835.8,118.6c2.9,0,5.3-2.4,5.3-5.3c0-2.9-2.4-5.3-5.3-5.3
	c-2.9,0-5.3,2.4-5.3,5.3v0C830.5,116.2,832.9,118.6,835.8,118.6z M862.1,102.4l-25.7,46.7h-4.7l25.7-46.7H862.1z M857.9,127.8
	c5.7,0,10.4,4.7,10.4,10.4c0,5.7-4.7,10.4-10.4,10.4c-5.7,0-10.4-4.7-10.4-10.4c-0.1-5.7,4.5-10.3,10.2-10.4
	C857.8,127.8,857.8,127.8,857.9,127.8L857.9,127.8z M857.9,143.4c2.9,0.1,5.2-2.2,5.3-5.1c0,0,0-0.1,0-0.1c0-2.9-2.4-5.3-5.3-5.3
	c-2.9,0-5.3,2.4-5.3,5.3c0,2.9,2.3,5.2,5.2,5.2C857.8,143.4,857.9,143.4,857.9,143.4L857.9,143.4z"/>
</svg>
