<svg xmlns="http://www.w3.org/2000/svg" viewBox="0 0 970 250"><title>copy2</title><path d="M728.4,153.9c-.3,0-.7.2-.7.5s.4.5.5.5a.8.8,0,0,1,.5.8.8.8,0,0,1-.8.7c-.5,0-1-.5-1-1.4a2.5,2.5,0,0,1,.8-1.8,2.2,2.2,0,0,1,1.6-.7h3.4c.2,0,.4.1.1.4a10.2,10.2,0,0,0-1.9,4.8c0,.8.4,1.3,1,1.3a2.2,2.2,0,0,0,1.9-1.1,5.2,5.2,0,0,0,.7-2.3c.1-.6.1-1.5.3-2.3a1,1,0,0,1,1-.7.6.6,0,0,1,.6.6,12.8,12.8,0,0,1-.8,2.4,8.8,8.8,0,0,0-.4,2,1.4,1.4,0,0,0,1.4,1.4c1.2,0,2.4-1.4,2.4-3.3a2.7,2.7,0,0,0-.4-1.5,1.3,1.3,0,0,1-.5-.9.9.9,0,0,1,.9-.9c.7,0,1.3.5,1.3,2a8.3,8.3,0,0,1-1.5,4.4,3.4,3.4,0,0,1-2.8,1.7,2,2,0,0,1-1.9-1.9,4.3,4.3,0,0,1-3.1,1.9,1.8,1.8,0,0,1-1.8-1.9c0-1.6,1.7-4.1,2.5-5.1h-.1a3.6,3.6,0,0,1-1.7.6Z" style="fill:#fff"/><path d="M746.6,158.3v.2a4.2,4.2,0,0,1-3.4,1.9,1.8,1.8,0,0,1-2-2,7.2,7.2,0,0,1,2.3-4.9,4.7,4.7,0,0,1,2.9-1.2,1.2,1.2,0,0,1,1.3,1.1,2.9,2.9,0,0,1-1.7,2.5,10.2,10.2,0,0,1-2.8.8,3.7,3.7,0,0,0-.2,1.4,1.1,1.1,0,0,0,1,1.2,2.9,2.9,0,0,0,2.1-1.1h.1Zm-3.2-2.2a3.4,3.4,0,0,0,1.9-.7,2.1,2.1,0,0,0,.8-1.5c0-.3-.1-.7-.5-.7S743.7,155.1,743.4,156.1Z" style="fill:#fff"/><path d="M753.7,158.3v.2a4.2,4.2,0,0,1-3.4,1.9,1.8,1.8,0,0,1-2-2,6.9,6.9,0,0,1,2.4-4.9,4.2,4.2,0,0,1,2.8-1.2,1.2,1.2,0,0,1,1.3,1.1,2.9,2.9,0,0,1-1.7,2.5,9.3,9.3,0,0,1-2.8.8,3.7,3.7,0,0,0-.2,1.4,1.1,1.1,0,0,0,1.1,1.2,2.9,2.9,0,0,0,2-1.1h.2Zm-3.2-2.2a4,4,0,0,0,1.9-.7,2.5,2.5,0,0,0,.8-1.5.7.7,0,0,0-.6-.7C751.7,153.2,750.7,155.1,750.5,156.1Z" style="fill:#fff"/><path d="M758.8,154.3a4.9,4.9,0,0,1,3.3-2c.7,0,1.2.3,1.2,1.1s-2.6,3-3.5,3.3h0l1.3,2.1c.3.4.6.7.8.7a1.3,1.3,0,0,0,.9-.5h.1l.2.2c.1,0,.1.1,0,.2a2.8,2.8,0,0,1-1.9.9,1.7,1.7,0,0,1-1.8-1.1l-.9-2a.8.8,0,0,0-.8-.2l-1.1,3H755c-.1,0-.2-.1-.1-.2l4.3-11.1c.2-.5,0-.8-.6-.8h-.5c-.1,0-.1-.1-.1-.2l.2-.4h3.2c.2,0,.2.2.1.4l-2.8,6.5Zm-.9,2.3c1.6.2,3.7-1.7,3.7-2.7s-.2-.5-.6-.5a4.6,4.6,0,0,0-2.1,1.4l-.6.7Z" style="fill:#fff"/><path d="M769.3,158.3v.2a4.2,4.2,0,0,1-3.4,1.9,1.8,1.8,0,0,1-2-2,6.9,6.9,0,0,1,2.4-4.9,4.2,4.2,0,0,1,2.8-1.2,1.2,1.2,0,0,1,1.3,1.1,2.9,2.9,0,0,1-1.7,2.5,9.3,9.3,0,0,1-2.8.8,3.7,3.7,0,0,0-.2,1.4,1.1,1.1,0,0,0,1.1,1.2,2.9,2.9,0,0,0,2-1.1h.2Zm-3.1-2.2a4,4,0,0,0,1.9-.7,2.5,2.5,0,0,0,.8-1.5.7.7,0,0,0-.6-.7C767.3,153.2,766.4,155.1,766.2,156.1Z" style="fill:#fff"/><path d="M772.9,160.1h-1.5c-.2,0-.2-.1-.2-.2l1.3-3.5c.4-1.3.9-2.4.9-2.7a.3.3,0,0,0-.3-.3c-.3,0-1.1.7-1.4,1h-.2l-.2-.2a.1.1,0,0,1,0-.2,4.7,4.7,0,0,1,3.3-1.8.7.7,0,0,1,.7.7,15.8,15.8,0,0,1-.9,2.5h.1c.6-.9,2.3-3.3,4.1-3.3a1,1,0,0,1,1.1,1.1,9.8,9.8,0,0,1-1,3.3,12.2,12.2,0,0,0-.8,2.3c0,.2.1.3.2.3s1-.7,1.2-.9h.4a.2.2,0,0,1,0,.3,4.4,4.4,0,0,1-3.1,1.6c-.4,0-.7-.2-.7-.6s.6-1.6,1.2-3.3a21.6,21.6,0,0,0,.8-2.4.5.5,0,0,0-.4-.5c-.6,0-2.2,1.5-3,2.8a9.3,9.3,0,0,0-1,2Z" style="fill:#fff"/><path d="M790.8,147.4c.2,0,.3.2.2.3s-3.3,9.6-3.6,10.7-.1.9.1.9,1.1-.9,1.2-1a.2.2,0,0,1,.3,0l.2.2v.2c-.2.2-1.5,1.7-3,1.7s-.7-.1-.7-.5a11.6,11.6,0,0,1,.8-2.6h-.2c-.9,1.5-2.4,3.2-3.8,3.2a1.5,1.5,0,0,1-1.4-1.5,8.1,8.1,0,0,1,2.5-5.1,4.2,4.2,0,0,1,2.8-1.5,1.6,1.6,0,0,1,1.3.6l1.3-4.1a.5.5,0,0,0-.5-.7h-.7v-.5h3.1Zm-4.9,5.6c-1.3,0-3,4-3,5.6s.2.6.4.6,1.7-1.3,2.4-2.4a5.2,5.2,0,0,0,1.3-2.7A1,1,0,0,0,785.9,153Z" style="fill:#fff"/><path d="M796.7,157.8a6.3,6.3,0,0,0-.3,1.2c0,.2.1.3.2.3a6.5,6.5,0,0,0,1.5-1.2h.2l.2.2c0,.1.1.2,0,.2a4.5,4.5,0,0,1-3.5,2c-.4,0-.6-.2-.6-.5a15.2,15.2,0,0,1,1.1-3.4l.5-1.5a3.6,3.6,0,0,0,.3-1.1c0-.1,0-.2-.2-.2s-1.2,1-1.4,1.3h-.3v-.2c-.1-.1-.2-.1-.1-.2s1.8-2.3,3.5-2.3.7.2.7.6a9.7,9.7,0,0,1-.6,2Zm.3-8.8a1.1,1.1,0,0,1,1.1-1c.8,0,1.2.4,1.2.9a1.2,1.2,0,0,1-1.2,1.1A1,1,0,0,1,797,149Z" style="fill:#fff"/><path d="M800.8,160.4c-1.2,0-1.9-.4-1.9-1.1a.8.8,0,0,1,.8-.8c.4,0,.7.3.9.8s.2.5.6.5.9-.5.9-1.3-.4-1.1-.8-1.8a3.1,3.1,0,0,1-.7-2,2.5,2.5,0,0,1,2.8-2.4c.6,0,1.5.3,1.5,1.1a.7.7,0,0,1-.8.8c-.3,0-.6-.2-.7-.7s-.2-.5-.5-.5-.8.3-.8,1.1.7,1.4.9,1.7a3.3,3.3,0,0,1,.7,2.1A2.7,2.7,0,0,1,800.8,160.4Z" style="fill:#fff"/><path d="M812.5,155.1c.9-1.4,2.2-2.8,3.6-2.8s1.6.9,1.6,1.8a9,9,0,0,1-1.3,4.2c-.8,1.5-1.9,2.5-3.1,2.5a1,1,0,0,1-1.1-1,.8.8,0,0,1,.7-.9c.5,0,.7.3.7.6s.1.5.4.5.8-1.2,1.2-2.2a15.8,15.8,0,0,0,.7-3.4c0-.4-.1-.9-.6-.9s-2.2,1.6-2.8,2.3a7.5,7.5,0,0,0-1,2l-1,2.3H809c-.1,0-.2-.1-.1-.2l4-10.6a2.9,2.9,0,0,0,.3-.9c0-.3-.3-.4-.6-.4H812v-.6h3.3l.2.2-.2.6-2.9,6.8Z" style="fill:#fff"/><path d="M823.9,158.3c.1.1.1.1,0,.2a4.2,4.2,0,0,1-3.4,1.9,1.8,1.8,0,0,1-2-2,6.9,6.9,0,0,1,2.4-4.9,4.4,4.4,0,0,1,2.8-1.2,1.3,1.3,0,0,1,1.4,1.1,3,3,0,0,1-1.8,2.5,8.6,8.6,0,0,1-2.8.8c0,.2-.1.7-.1,1.4a1.1,1.1,0,0,0,1,1.2,2.7,2.7,0,0,0,2-1.1h.2Zm-3.2-2.2a3.7,3.7,0,0,0,1.9-.7,2.5,2.5,0,0,0,.8-1.5.7.7,0,0,0-.6-.7C821.9,153.2,820.9,155.1,820.7,156.1Z" style="fill:#fff"/><path d="M826.1,160.2H826l.9-3.1c.3-1,.9-2.9.9-3.2a.3.3,0,0,0-.3-.3c-.4,0-1.1.7-1.4,1.1h-.2l-.2-.2h0a3.7,3.7,0,0,1,3-2,.7.7,0,0,1,.8.7,15.8,15.8,0,0,1-.8,2.6h.1c.5-1.1,1.9-3.4,3.1-3.4a.9.9,0,0,1,1,1,1,1,0,0,1-.8,1h-.5l-.6-.2c-.5,0-1.6,1.5-2.1,2.6l-.7,1.6-.6,1.9h-1.5Z" style="fill:#fff"/><path d="M838.2,158.3v.2a4.6,4.6,0,0,1-3.4,1.9,1.8,1.8,0,0,1-2-2,7.2,7.2,0,0,1,2.3-4.9,4.5,4.5,0,0,1,2.9-1.2,1.2,1.2,0,0,1,1.3,1.1,2.8,2.8,0,0,1-1.8,2.5,8.8,8.8,0,0,1-2.7.8,3.7,3.7,0,0,0-.2,1.4,1.1,1.1,0,0,0,1,1.2,3.1,3.1,0,0,0,2.1-1.1h.1Zm-3.2-2.2a3.4,3.4,0,0,0,1.9-.7,2.5,2.5,0,0,0,.8-1.5c0-.3-.1-.7-.5-.7S835.3,155.1,835,156.1Z" style="fill:#fff"/></svg>