<svg id="_1_-_black_friday_is_coming" data-name="1 - black friday is coming" xmlns="http://www.w3.org/2000/svg" viewBox="0 0 300 50"><defs><style>.cls-1{fill:#fff;}</style></defs><title>300x50txt2</title><g id="english"><rect class="cls-1" x="202.24" y="9.94" width="76.25" height="31.06"/><path d="M213.73,15h2.14a2,2,0,0,1,2.22,2.21,1.81,1.81,0,0,1-1,1.76,1.9,1.9,0,0,1,1.16,2c0,1.38-.61,2.42-2.25,2.42h-2.27Zm1.44,3.43h.52a1,1,0,0,0,1-1.07c0-.77-.3-1.18-.94-1.18h-.54Zm0,3.76h.6c.77,0,1-.44,1-1.29s-.33-1.29-1.19-1.29h-.46Z"/><path d="M221,23.32h-1.43V15h2c1.62,0,2.44.68,2.44,2.47,0,1.34-.52,1.89-1,2.11l1.22,3.79h-1.46l-1-3.47a5.56,5.56,0,0,1-.75,0Zm0-4.61h.51c.78,0,1.07-.29,1.07-1.29s-.29-1.29-1.07-1.29H221Z"/><path d="M225.32,17a2.21,2.21,0,0,1,4.41,0v4.31a2.21,2.21,0,0,1-4.41,0Zm1.44,4.28c0,.62.19.93.77.93s.76-.31.76-.93V17c0-.62-.18-.92-.76-.92s-.77.3-.77.92Z"/><path d="M233.61,15h1.18l1,5.33h0l.8-5.33h1.35l-1.48,8.37h-1.2l-1-5.53h0l-1,5.53H232L230.42,15h1.35l.88,5.33h0Z"/><path d="M241.47,17c-.06-.72-.44-.92-.77-.92s-.72.3-.72.82c0,1.42,2.93,2.11,2.93,4.38a2.06,2.06,0,0,1-2.28,2.15,2.2,2.2,0,0,1-2.15-2.32l1.36-.2c.06.85.4,1.27.86,1.27a.74.74,0,0,0,.84-.77c0-1.66-2.92-2.1-2.92-4.5a2,2,0,0,1,2.22-2.09,2,2,0,0,1,2,2Z"/><path d="M244,23.32V15h3.85V16.2h-2.41v2.16h1.86v1.25h-1.86v2.46H248v1.25Z"/><path d="M252.55,16.2h-1.4V15h4.23V16.2H254v7.12h-1.43Z"/><path d="M256.22,23.32V15h1.44v3.41h1.53V15h1.44v8.37h-1.44V19.61h-1.53v3.71Z"/><path d="M262,23.32V15h3.85V16.2h-2.42v2.16h1.86v1.25h-1.86v2.46H266v1.25Z"/><path d="M217.91,29.94v-.65c0-.7-.32-1-.69-1-.58,0-.77.3-.77.92v4.25c0,.62.19.93.77.93s.69-.31.69-.85v-1h1.44v1a2,2,0,0,1-2.13,2.15A2,2,0,0,1,215,33.49V29.18A2,2,0,0,1,217.22,27a2.08,2.08,0,0,1,2.13,2.3v.61Z"/><path d="M220.81,29.18a2.2,2.2,0,0,1,4.4,0v4.31a2.2,2.2,0,0,1-4.4,0Zm1.44,4.28c0,.62.18.93.76.93s.77-.31.77-.93V29.21c0-.62-.19-.92-.77-.92s-.76.3-.76.92Z"/><path d="M226.53,35.52V27.15H228v7.12h2.26v1.25Z"/><path d="M231,35.52V27.15h1.44v7.12h2.26v1.25Z"/><path d="M235.62,35.52V27.15h3.85V28.4h-2.41v2.16h1.85v1.25h-1.85v2.46h2.57v1.25Z"/><path d="M243.66,29.94v-.65c0-.7-.32-1-.69-1-.58,0-.77.3-.77.92v4.25c0,.62.19.93.77.93s.69-.31.69-.85v-1h1.44v1A2,2,0,0,1,243,35.64a2,2,0,0,1-2.2-2.15V29.18A2,2,0,0,1,243,27a2.08,2.08,0,0,1,2.13,2.3v.61Z"/><path d="M247.39,28.4H246V27.15h4.22V28.4h-1.39v7.12h-1.44Z"/><path d="M251.27,35.52V27.15h1.43v8.37Z"/><path d="M254.29,29.18a2.21,2.21,0,0,1,4.41,0v4.31a2.21,2.21,0,0,1-4.41,0Zm1.44,4.28c0,.62.18.93.76.93s.77-.31.77-.93V29.21c0-.62-.19-.92-.77-.92s-.76.3-.76.92Z"/><path d="M260.09,35.52V27.15h1.33l1.75,4.79h0V27.15h1.3v8.37h-1.25l-1.83-5.23h0v5.23Z"/></g></svg>