<svg xmlns="http://www.w3.org/2000/svg" viewBox="0 0 300 50"><title>copy2</title><path d="M212.2,31.9c-.2,0-.3.1-.3.2s.1.3.2.3.2.1.2.3a.4.4,0,0,1-.4.4c-.2,0-.4-.3-.4-.7a1.1,1.1,0,0,1,.4-.9,1.1,1.1,0,0,1,.7-.3h1.6c.1,0,.2.1.1.2a4.1,4.1,0,0,0-1,2.2.7.7,0,0,0,.6.7,1,1,0,0,0,.8-.5,2.8,2.8,0,0,0,.4-1.1c0-.3.1-.8.1-1.1s.3-.3.5-.3.3.1.3.2a5.4,5.4,0,0,1-.4,1.2,3.7,3.7,0,0,0-.2.9.7.7,0,0,0,.7.7c.6,0,1.1-.7,1.1-1.6a1.2,1.2,0,0,0-.2-.7c0-.1-.2-.3-.2-.5a.4.4,0,0,1,.4-.4c.3,0,.6.3.6,1a3.5,3.5,0,0,1-.7,2.1,1.5,1.5,0,0,1-1.3.8.9.9,0,0,1-.9-.9,2.1,2.1,0,0,1-1.5.9.9.9,0,0,1-.9-.9,4.7,4.7,0,0,1,1.3-2.4h-.1a1.2,1.2,0,0,1-.8.3Z" style="fill:#fff"/><path d="M220.8,34c.1,0,.1,0,0,.1a2.1,2.1,0,0,1-1.6.9.9.9,0,0,1-.9-1,3.5,3.5,0,0,1,1.1-2.3,2.5,2.5,0,0,1,1.4-.6.6.6,0,0,1,.6.6,1.3,1.3,0,0,1-.8,1.1,2.7,2.7,0,0,1-1.4.4v.7c0,.3.2.6.4.6a1.2,1.2,0,0,0,1-.6h.2Zm-1.5-1.1a1.9,1.9,0,0,0,.9-.3,1,1,0,0,0,.4-.7.3.3,0,0,0-.3-.3C219.9,31.6,219.4,32.4,219.3,32.9Z" style="fill:#fff"/><path d="M224.2,34h0a2.1,2.1,0,0,1-1.6.9.9.9,0,0,1-1-1,3.5,3.5,0,0,1,1.1-2.3,2.5,2.5,0,0,1,1.4-.6.6.6,0,0,1,.6.6,1.3,1.3,0,0,1-.8,1.1,2.7,2.7,0,0,1-1.3.4c-.1.1-.1.4-.1.7a.6.6,0,0,0,.5.6,1.1,1.1,0,0,0,.9-.6h.3Zm-1.6-1.1.9-.3a1,1,0,0,0,.4-.7c0-.2,0-.3-.2-.3S222.8,32.4,222.6,32.9Z" style="fill:#fff"/><path d="M226.6,32.1a2.3,2.3,0,0,1,1.5-1,.5.5,0,0,1,.6.6c0,.7-1.2,1.4-1.6,1.5h0l.6.9c.1.3.3.4.4.4l.4-.2h.1a1,1,0,0,1-.9.5c-.5,0-.6-.2-.8-.6l-.5-.9c0-.1-.2-.1-.3-.1l-.6,1.4c0,.1,0,.1-.1.1h-.6a.1.1,0,0,1-.1-.1l2.1-5.3c.1-.2,0-.4-.3-.4h-.2c-.1,0-.1,0-.1-.1h1.6c.1,0,.1.1.1.2l-1.3,3.1Zm-.4,1.1a1.9,1.9,0,0,0,1.7-1.3.2.2,0,0,0-.2-.2,2.3,2.3,0,0,0-1.1.6.8.8,0,0,0-.2.4Z" style="fill:#fff"/><path d="M231.6,34h0a2.1,2.1,0,0,1-1.6.9c-.6,0-.9-.3-.9-1a3.1,3.1,0,0,1,1.1-2.3,2,2,0,0,1,1.3-.6.7.7,0,0,1,.7.6,1.4,1.4,0,0,1-.9,1.1,2.4,2.4,0,0,1-1.3.4,5.6,5.6,0,0,0-.1.7.6.6,0,0,0,.5.6,1.3,1.3,0,0,0,1-.6h.2Zm-1.5-1.1.9-.3a1,1,0,0,0,.4-.7.3.3,0,0,0-.3-.3C230.6,31.6,230.2,32.4,230.1,32.9Z" style="fill:#fff"/><path d="M233.2,34.8c0,.1,0,.1-.1.1h-.6l.6-1.7a7.9,7.9,0,0,0,.4-1.3h-.1c-.2,0-.5.3-.7.5h-.2a1.9,1.9,0,0,1,1.5-.9.4.4,0,0,1,.4.4c0,.2-.3.8-.4,1.2h0c.3-.4,1.1-1.6,2-1.6a.6.6,0,0,1,.5.6,4.6,4.6,0,0,1-.5,1.5l-.4,1.1c0,.1.1.1.2.1l.5-.4h.2a1.9,1.9,0,0,1-1.5.8.3.3,0,0,1-.3-.3c0-.2.3-.8.5-1.6a3.7,3.7,0,0,0,.4-1.1c0-.2,0-.2-.2-.2a3.9,3.9,0,0,0-1.4,1.3l-.5.9Z" style="fill:#fff"/><path d="M241.7,28.8c.2,0,.2.1.2.2s-1.6,4.5-1.8,5,0,.4.1.4l.6-.4h.2a2.2,2.2,0,0,1-1.5.8.3.3,0,0,1-.3-.3,5.4,5.4,0,0,1,.4-1.2h-.1c-.4.7-1.1,1.5-1.8,1.5s-.6-.4-.6-.8a4.2,4.2,0,0,1,1.1-2.4,2.3,2.3,0,0,1,1.4-.7,1.1,1.1,0,0,1,.6.3l.6-1.9c.1-.2,0-.4-.2-.4h-.4v-.2h1.4Zm-2.3,2.7c-.6,0-1.4,1.9-1.4,2.6s.1.3.2.3.8-.6,1.2-1.1a3.5,3.5,0,0,0,.5-1.3C239.9,31.7,239.8,31.5,239.4,31.5Z" style="fill:#fff"/><path d="M244.6,33.7c-.2.4-.2.5-.2.6s0,.1.1.1.6-.5.7-.5.1-.1.1,0h.1a2.3,2.3,0,0,1-1.7,1c-.2,0-.2-.1-.2-.3a5.6,5.6,0,0,1,.5-1.6l.2-.7a1.7,1.7,0,0,0,.2-.5h-.1c-.2,0-.6.5-.7.6h-.3c.1,0,.9-1.1,1.7-1.1a.3.3,0,0,1,.3.3,8.4,8.4,0,0,1-.2,1Zm.1-4.1a.5.5,0,0,1,.5-.5c.4,0,.6.2.6.4a.6.6,0,0,1-.6.6A.5.5,0,0,1,244.7,29.6Z" style="fill:#fff"/><path d="M246.5,35c-.6,0-.9-.2-.9-.5s.1-.4.3-.4a.5.5,0,0,1,.5.3.3.3,0,0,0,.3.3c.2,0,.4-.2.4-.6a1.8,1.8,0,0,0-.4-.9,1.4,1.4,0,0,1-.3-.9,1.2,1.2,0,0,1,1.3-1.2.7.7,0,0,1,.7.6.3.3,0,0,1-.3.3c-.2,0-.3,0-.4-.3a.2.2,0,0,0-.2-.2c-.2,0-.4.1-.4.5a1.5,1.5,0,0,0,.4.8,1.5,1.5,0,0,1,.4,1A1.3,1.3,0,0,1,246.5,35Z" style="fill:#fff"/><path d="M252,32.5c.5-.7,1.1-1.4,1.8-1.4s.7.5.7.9a5.1,5.1,0,0,1-.6,2c-.4.7-.9,1.2-1.5,1.2a.5.5,0,0,1-.5-.5c0-.2.1-.5.3-.5s.3.2.4.3,0,.3.1.3.4-.6.6-1a5.5,5.5,0,0,0,.3-1.7c0-.2,0-.4-.2-.4s-1.1.8-1.4,1.1a4.1,4.1,0,0,0-.5.9l-.4,1.1h-.7a.1.1,0,0,1-.1-.1l1.9-5.1a.8.8,0,0,0,.2-.4c0-.1-.2-.2-.3-.2h-.3s-.1,0,0-.1h1.6v.3L252,32.4Z" style="fill:#fff"/><path d="M257.4,34c.1,0,.1,0,0,.1a2.1,2.1,0,0,1-1.6.9c-.6,0-.9-.3-.9-1a3.5,3.5,0,0,1,1.1-2.3,2.5,2.5,0,0,1,1.3-.6c.5,0,.7.3.7.6a1.3,1.3,0,0,1-.8,1.1,2.7,2.7,0,0,1-1.4.4,5.6,5.6,0,0,0-.1.7.6.6,0,0,0,.5.6,1.3,1.3,0,0,0,1-.6h.2Zm-1.5-1.1.9-.3a1,1,0,0,0,.4-.7.3.3,0,0,0-.3-.3C256.5,31.6,256,32.4,255.9,32.9Z" style="fill:#fff"/><path d="M258.5,34.9c-.1,0-.1,0-.1-.1l.5-1.4c.1-.5.4-1.4.4-1.6h-.2a1.3,1.3,0,0,0-.6.5h-.2a1.7,1.7,0,0,1,1.4-1,.4.4,0,0,1,.4.4,7.9,7.9,0,0,1-.4,1.2h.1c.2-.6.8-1.7,1.4-1.7a.5.5,0,0,1,.5.5.5.5,0,0,1-.4.5h-.5c-.3,0-.8.8-1,1.3l-.3.7-.3.9a.1.1,0,0,1-.1.1Z" style="fill:#fff"/><path d="M264.2,34h0a2.1,2.1,0,0,1-1.6.9c-.6,0-.9-.3-.9-1a3.1,3.1,0,0,1,1.1-2.3,2.2,2.2,0,0,1,1.3-.6.7.7,0,0,1,.7.6,1.2,1.2,0,0,1-.9,1.1,2.2,2.2,0,0,1-1.3.4,5.6,5.6,0,0,0-.1.7.6.6,0,0,0,.5.6,1.3,1.3,0,0,0,1-.6h.2Zm-1.5-1.1.9-.3a1,1,0,0,0,.4-.7.3.3,0,0,0-.3-.3C263.3,31.6,262.8,32.4,262.7,32.9Z" style="fill:#fff"/></svg>