<svg xmlns="http://www.w3.org/2000/svg" viewBox="0 0 728 90"><title>cta</title><rect x="573.5" y="26.5" width="112.5" height="35.5" style="fill:#fff"/><path d="M600,40.4c-.1-1.2-.7-1.5-1.2-1.5s-1.2.5-1.2,1.3,4.8,3.5,4.8,7.2-1.5,3.5-3.7,3.5-3.5-1.7-3.6-3.8l2.3-.3c.1,1.4.6,2.1,1.4,2.1a1.2,1.2,0,0,0,1.3-1.3c0-2.7-4.8-3.4-4.8-7.4,0-2.2,1.4-3.4,3.7-3.4a3.3,3.3,0,0,1,3.3,3.3Z"/><path d="M604.2,50.7V37h2.3v5.6H609V37h2.4V50.7H609V44.6h-2.5v6.1Z"/><path d="M613.7,40.3a3.3,3.3,0,0,1,3.6-3.5,3.3,3.3,0,0,1,3.6,3.5v7.1a3.3,3.3,0,0,1-3.6,3.5,3.3,3.3,0,0,1-3.6-3.5Zm2.3,7c0,1.1.3,1.6,1.3,1.6s1.2-.5,1.2-1.6V40.4c0-1-.3-1.5-1.2-1.5s-1.3.5-1.3,1.5Z"/><path d="M623.2,50.7V37h3.3c3,0,4.3,1.1,4.3,4s-1.3,4.1-4.3,4.1h-1v5.6Zm2.3-7.5h.9c1.6,0,2-.5,2-2.2s-.4-2.1-2-2.1h-.9Z"/><path d="M636.9,50.7V37h2.2l2.8,7.8h.1V37h2.1V50.7H642l-3-8.5h0v8.5Z"/><path d="M646.4,40.3a3.6,3.6,0,0,1,7.2,0v7.1a3.6,3.6,0,0,1-7.2,0Zm2.3,7c0,1.1.3,1.6,1.3,1.6s1.2-.5,1.2-1.6V40.4c0-1-.3-1.5-1.2-1.5s-1.3.5-1.3,1.5Z"/><path d="M660,37h1.9l1.6,8.7h0l1.3-8.7h2.3l-2.5,13.7h-1.9l-1.7-9h-.1l-1.6,9h-2L654.7,37h2.2l1.5,8.7h0Z"/></svg>