<svg xmlns="http://www.w3.org/2000/svg" xmlns:xlink="http://www.w3.org/1999/xlink" viewBox="0 0 160 600"><defs><clipPath id="a"><rect x="9.2" y="273.1" width="143.8" height="60.91" style="fill:none"/></clipPath></defs><title>logo1</title><g style="clip-path:url(#a)"><path d="M123.4,306.1a1.7,1.7,0,0,0-2.1.1c-.5.4-1.3.5-.8-1.6a28.3,28.3,0,0,1,2.3-5.5c.3-.8-.1-1.7-1.5-1.9a2.6,2.6,0,0,0-1.8.6,3.7,3.7,0,0,0-3.2-1.3c-2.6-.1-6.1,1.9-8.2,5.1a16.4,16.4,0,0,1-4.5,4.6,1.9,1.9,0,0,1-1.5.5c-.8-.3-.6-1.5,1.1-3.4s3.6-5.6,2-7a4.3,4.3,0,0,0-4.7-.2,12.8,12.8,0,0,0-4.1,3c2.6-5.3,5.7-11.4,7.9-14.9.9-1.6.9-2.9-.4-3.2s-2.5.4-3.4,2.4c-2.4,4.8-4.2,9-6.4,13.7h0c-1.5,2.9-4.1,6.9-7.6,9.2a2.2,2.2,0,0,1-1.4.4c-.9-.3-.7-1.5,1.1-3.4s3.5-5.6,1.9-7a4.6,4.6,0,0,0-4.7-.2,14.8,14.8,0,0,0-4.8,3.7c1.1-1.6,1-3.1,0-3.4s-2.1.1-3.4,3.6c-.6,1.8-2.3,5.1-4.8,6.2-.6.3-1.6.4-1.2-1.5a36.8,36.8,0,0,1,2.4-5.6c.3-.8-.1-1.7-1.5-1.9a2.6,2.6,0,0,0-1.8.6,4,4,0,0,0-3.2-1.4c-3.4.1-8.3,3.3-9.6,8.4a4.2,4.2,0,0,1-3.1,1.8c-2.6,0-4-2.3-4.6-4.9,5.8-1.1,11.2-4.3,12.2-9.4s-2.2-8.9-8.1-8.8A18.4,18.4,0,0,0,37,292.1c-.9,1.7-.1,3,1.1,3a3,3,0,0,0,2.8-2.3c.8-2.7,3.9-5.8,9.2-6.2s6.1,2.1,5.7,5.4-4.3,6.2-8.3,7.2v-.3c0-1.1-.1-2-.9-2.3a1.1,1.1,0,0,0-.7-.9c-.6-.4-1.5-.3-2.3.9a103.9,103.9,0,0,1-6.9,9.8c-1.2,1.7-1.2,3.4,0,3.8s2.5-.2,3.5-1.9,2.5-4.3,3.5-6.1h.9c.1,3.6,1.9,8.6,6.9,7.8a7.8,7.8,0,0,0,4-2.2c.7,2,3.1,2.5,5.5,1.4a16.3,16.3,0,0,0,4.8-3.7c-1.5,3.7,1.3,6.4,5.6,2.9l.5-.5c-2.1,4.6-4.8,9.7-6.4,13.1s-.6,3.4.8,3.5,2.2-.6,3-2.5,3.4-8.6,6.8-15.3,7.5-8,8.3-7.4-.3,2-2.2,4.4-1.9,4.7-.9,5.6,3.5,1.3,6.2-.9a20,20,0,0,0,2-1.8c-.9,1.7-1.2,3-.1,3.5a2,2,0,0,0,2.5-1.1,24.4,24.4,0,0,1,4.5-6.9c2.4-2.6,4.7-3.2,5.1-2.8s-.3,2-2.2,4.3-2,4.8-.9,5.7,3.4,1.3,6.2-.9a17.2,17.2,0,0,0,1.9-1.7c.2,2.9,2.9,3.8,5.6,2.5a14,14,0,0,0,4.8-3.7c-1.2,3.9,2.3,6.2,5.8,3,.9-.8,1.1-1.9.7-2.3m-61.6-.4c-1.4.9-3.3.5-2.5-2s3-3.9,4.3-3.8a2.4,2.4,0,0,1,2.4,1.5,14.1,14.1,0,0,1-4.2,4.3m51.2,0c-1.4.9-3.3.6-2.4-2s2.7-3.9,4.1-3.9a3.1,3.1,0,0,1,2.5,1.6,14.1,14.1,0,0,1-4.2,4.3" style="fill:#fff"/><path d="M128.7,305.3a2.1,2.1,0,0,0-2.2,2.1,2.1,2.1,0,0,0,2.1,2.1,2,2,0,0,0,2.1-2.1,2,2,0,0,0-2-2.1" style="fill:#fff"/></g></svg>