<svg id="_1_-_black_friday_is_coming" data-name="1 - black friday is coming" xmlns="http://www.w3.org/2000/svg" viewBox="0 0 160 600"><defs><style>.cls-1{fill:#fff;}</style></defs><title>160x600txt1</title><g id="english"><path class="cls-1" d="M10.92,522h5.16c3.72,0,5.37,1.9,5.37,5.35A4.36,4.36,0,0,1,19,531.58c1.77.78,2.8,2.18,2.8,4.78,0,3.34-1.48,5.86-5.43,5.86H10.92Zm3.48,8.29h1.26A2.3,2.3,0,0,0,18,527.71c0-1.87-.73-2.85-2.27-2.85H14.4Zm0,9.07h1.45c1.85,0,2.52-1.06,2.52-3.11s-.78-3.11-2.85-3.11H14.4Z"/><path class="cls-1" d="M24.76,542.22V522h3.47v17.19h5.46v3Z"/><path class="cls-1" d="M37.83,542.22H34.47L38.2,522h4.31l3.72,20.22H42.87l-.61-4.48H38.45ZM39,534.71h2.8L40.38,526h-.06Z"/><path class="cls-1" d="M55.25,528.75v-1.57c0-1.71-.79-2.44-1.68-2.44-1.4,0-1.85.73-1.85,2.24v10.25c0,1.51.45,2.24,1.85,2.24s1.68-.73,1.68-2V535h3.47v2.33c0,2.85-1.68,5.18-5.15,5.18-3.64,0-5.32-2.33-5.32-5.18V526.9c0-2.86,1.68-5.18,5.32-5.18,3.47,0,5.15,2.52,5.15,5.54v1.49Z"/><path class="cls-1" d="M62.08,542.22V522h3.47v7.48h.06L69.25,522h3.47L69,529.53l4.23,12.69H69.67l-2.83-9.41h-.06l-1.23,2.24v7.17Z"/><path class="cls-1" d="M80.89,542.22V522h9.69v3H84.37v5.21H89v3H84.37v9Z"/><path class="cls-1" d="M96.8,542.22H93.33V522H98.2c3.89,0,5.88,1.65,5.88,6,0,3.25-1.26,4.57-2.44,5.1l2.94,9.16h-3.53l-2.46-8.38a15.7,15.7,0,0,1-1.79.09Zm0-11.15H98c1.88,0,2.58-.7,2.58-3.11s-.7-3.1-2.58-3.1H96.8Z"/><path class="cls-1" d="M107.8,542.22V522h3.47v20.22Z"/><path class="cls-1" d="M115.11,522h5.15c3.59,0,5.49,2,5.49,6.1v8c0,4.15-1.9,6.11-5.49,6.11h-5.15Zm3.47,17.36h1.21c1.84,0,2.49-.7,2.49-2.83v-8.85c0-2.12-.65-2.82-2.49-2.82h-1.21Z"/><path class="cls-1" d="M131.13,542.22h-3.36L131.49,522h4.31l3.73,20.22h-3.36l-.62-4.48h-3.81Zm1.12-7.51h2.8L133.67,526h0Z"/><path class="cls-1" d="M146.28,542.22H142.8v-8.4L138.6,522h3.53l2.44,7.7h.05L147,522h3.53l-4.2,11.82Z"/><path class="cls-1" d="M52.77,558a3.8,3.8,0,0,0-.31,1.09c0,.13.07.24.2.24.34,0,1.23-1,1.33-1.09a.09.09,0,0,1,.15,0l.19.19c.07.07.1.1,0,.17a4.26,4.26,0,0,1-3.14,1.77.43.43,0,0,1-.49-.48,15.34,15.34,0,0,1,1-3l.47-1.32a3.55,3.55,0,0,0,.28-1,.18.18,0,0,0-.21-.2c-.27,0-1,.88-1.29,1.15a.12.12,0,0,1-.2,0l-.17-.15c-.07,0-.11-.08-.07-.15s1.63-2.08,3.13-2.08c.4,0,.61.21.61.55a7.17,7.17,0,0,1-.51,1.77Zm.28-7.87a1,1,0,0,1,1-.92.92.92,0,0,1,1,.85,1.06,1.06,0,0,1-1,1A.93.93,0,0,1,53.05,550.17Z"/><path class="cls-1" d="M56.44,560.39c-1.12,0-1.7-.41-1.7-1a.66.66,0,0,1,.64-.71.87.87,0,0,1,.82.68c.1.27.24.44.54.44.48,0,.85-.38.85-1.09s-.4-1.07-.76-1.68a2.93,2.93,0,0,1-.63-1.72,2.31,2.31,0,0,1,2.52-2.18c.57,0,1.32.24,1.32,1a.64.64,0,0,1-.64.71.65.65,0,0,1-.68-.58c-.07-.2-.14-.47-.41-.47s-.72.23-.72,1a3.12,3.12,0,0,0,.79,1.53,3,3,0,0,1,.64,1.84A2.34,2.34,0,0,1,56.44,560.39Z"/><path class="cls-1" d="M68.18,558.75c.07,0,.11.07,0,.17a3.72,3.72,0,0,1-2.62,1.47,1.57,1.57,0,0,1-1.53-1.69c0-2.38,1.85-5.56,4-5.56a1.07,1.07,0,0,1,1.18,1,.84.84,0,0,1-.72.85.55.55,0,0,1-.58-.41c-.1-.24-.25-.51-.52-.51s-.7.41-1,1.15a8,8,0,0,0-.67,3c0,.85.26,1.22.7,1.22a2.34,2.34,0,0,0,1.41-.75c0-.07.1-.1.14-.07Z"/><path class="cls-1" d="M69.53,558.06A5.57,5.57,0,0,1,71,554.23a3.13,3.13,0,0,1,2.41-1.09,2,2,0,0,1,2.11,2.15,6.47,6.47,0,0,1-1.46,4,3.06,3.06,0,0,1-2.45,1.13A2.11,2.11,0,0,1,69.53,558.06Zm3.74-.17a8.3,8.3,0,0,0,1.15-3.1.71.71,0,0,0-.73-.76c-.69,0-1.34.59-2.17,2a5.89,5.89,0,0,0-.9,2.65.76.76,0,0,0,.71.8C72,559.47,72.61,559,73.27,557.89Z"/><path class="cls-1" d="M77.72,556.85a21,21,0,0,0,.87-2.38.21.21,0,0,0-.22-.24,4.32,4.32,0,0,0-1.23,1,.12.12,0,0,1-.2,0l-.2-.17c0-.07-.07-.1,0-.17.34-.41,1.57-1.77,2.81-1.77.51,0,.73.24.73.62a19.09,19.09,0,0,1-1.09,2.78l.14.07c.71-1.19,2.21-3.47,3.74-3.47a.86.86,0,0,1,.93.8,10.52,10.52,0,0,1-.9,2.71l.14.06c.91-1.42,2.24-3.57,3.8-3.57a.94.94,0,0,1,.94.92A15.79,15.79,0,0,1,87,557a14.88,14.88,0,0,0-.68,2c0,.13.11.24.21.24.37,0,1.19-1.09,1.29-1.23a.1.1,0,0,1,.14-.05l.23.15c.07.07.07.11,0,.24s-1.5,2.08-3.06,2.08a.54.54,0,0,1-.58-.51,14.08,14.08,0,0,1,1-3.06,9.1,9.1,0,0,0,.73-2.18.32.32,0,0,0-.36-.34c-.4,0-1.76,1.53-2.82,3.13a7.23,7.23,0,0,0-.64,1.19L82,560.08c0,.1-.12.14-.26.14H80.66c-.13,0-.2-.07-.17-.17l1.07-2.83a18.62,18.62,0,0,0,.87-2.55.32.32,0,0,0-.36-.34c-.4,0-1.73,1.43-2.72,2.86a9.28,9.28,0,0,0-.78,1.43L78,560.08c0,.1-.12.14-.25.14H76.69c-.11,0-.19-.07-.14-.21Z"/><path class="cls-1" d="M91.59,558a4,4,0,0,0-.3,1.09c0,.13.07.24.2.24.34,0,1.23-1,1.33-1.09a.09.09,0,0,1,.15,0l.19.19c.07.07.1.1,0,.17a4.26,4.26,0,0,1-3.14,1.77.44.44,0,0,1-.5-.48,15.8,15.8,0,0,1,1-3l.47-1.32a3.44,3.44,0,0,0,.27-1,.18.18,0,0,0-.2-.2c-.27,0-1,.88-1.29,1.15a.13.13,0,0,1-.21,0l-.17-.15c-.06,0-.1-.08-.06-.15s1.63-2.08,3.12-2.08c.41,0,.62.21.62.55a7.65,7.65,0,0,1-.51,1.77Zm.29-7.87a1,1,0,0,1,1-.92.93.93,0,0,1,1,.85,1.06,1.06,0,0,1-1,1A.93.93,0,0,1,91.88,550.17Z"/><path class="cls-1" d="M95.78,560.11c0,.07-.07.11-.24.11H94.45c-.15,0-.17-.12-.14-.23l1.16-3.14a22.25,22.25,0,0,0,.78-2.38.24.24,0,0,0-.25-.27c-.31,0-1,.61-1.24.88a.09.09,0,0,1-.16,0l-.18-.19c-.07,0-.11-.1,0-.17a4.09,4.09,0,0,1,2.91-1.6.58.58,0,0,1,.64.58,11.76,11.76,0,0,1-.79,2.28l.1.07c.51-.78,2.07-2.93,3.69-2.93a.94.94,0,0,1,1,1,10.51,10.51,0,0,1-.92,3,10.07,10.07,0,0,0-.68,2c0,.17.07.28.2.28s.89-.58,1.06-.82a.17.17,0,0,1,.2,0l.17.14c.07,0,.07.1,0,.2a4.08,4.08,0,0,1-2.82,1.47c-.38,0-.58-.21-.58-.51a23.46,23.46,0,0,1,1-3c.25-.72.73-2,.73-2.21a.36.36,0,0,0-.39-.41c-.51,0-1.94,1.36-2.65,2.52a10,10,0,0,0-.92,1.73Z"/><path class="cls-1" d="M101.45,563.16a1.5,1.5,0,0,1,.72-1.29,7.77,7.77,0,0,1,2.14-1.16c-.51-.38-.65-.68-.65-1s.48-.78,1.47-1.26l0-.07a1.92,1.92,0,0,1-1.39-2,3.43,3.43,0,0,1,3.33-3.23,2.06,2.06,0,0,1,1.66.74,2.61,2.61,0,0,1,1.43-.57.73.73,0,0,1,.75.75.58.58,0,0,1-.61.61.8.8,0,0,1-.58-.23.34.34,0,0,0-.31-.17.57.57,0,0,0-.4.2,3.65,3.65,0,0,1,.1.87,3.35,3.35,0,0,1-2.69,3.09c-.37.07-.61.1-.64.1-.34.17-.72.51-.72.78s.21.38.34.48c.31.22,1.16.65,2.35,1.36,1,.61,1.29,1.19,1.29,1.7a2.07,2.07,0,0,1-1.22,1.8,5.06,5.06,0,0,1-2.72.61C103.12,565.26,101.45,564.24,101.45,563.16Zm6,.3c0-.75-.48-1.07-1.19-1.49-.17-.1-1.26-.75-1.51-.92-1,.48-1.69,1.05-1.69,1.83,0,1.19,1.23,1.77,2.48,1.77C106.38,564.65,107.44,564.26,107.44,563.46Zm.17-8.73c0-.67-.14-1-.61-1s-.65.2-.94.66a4.3,4.3,0,0,0-.76,2.6c0,.65.2.95.61.95C107,557.9,107.61,555.93,107.61,554.73Z"/></g></svg>