<svg id="_1_-_black_friday_is_coming" data-name="1 - black friday is coming" xmlns="http://www.w3.org/2000/svg" viewBox="0 0 160 600"><defs><style>.cls-1{fill:#fff;}</style></defs><title>160x600txt2</title><g id="english"><g id="_160x600cta" data-name="160x600cta"><rect class="cls-1" x="18.5" y="513.5" width="125" height="58.99"/><path d="M37.35,525h3.49c2.53,0,3.65,1.29,3.65,3.63a3,3,0,0,1-1.63,2.87,3.14,3.14,0,0,1,1.89,3.25c0,2.26-1,4-3.68,4H37.35Zm2.35,5.62h.86a1.55,1.55,0,0,0,1.57-1.74c0-1.28-.49-1.94-1.54-1.94H39.7Zm0,6.16h1c1.25,0,1.71-.72,1.71-2.11s-.53-2.11-1.94-2.11H39.7Z"/><path d="M49.2,538.72H46.85V525h3.3c2.64,0,4,1.12,4,4,0,2.2-.85,3.09-1.65,3.46l2,6.21H52.09L50.42,533a11.13,11.13,0,0,1-1.22.05Zm0-7.56H50c1.27,0,1.75-.48,1.75-2.11s-.48-2.11-1.75-2.11H49.2Z"/><path d="M56.35,528.33A3.3,3.3,0,0,1,60,524.81a3.3,3.3,0,0,1,3.6,3.52v7.06a3.3,3.3,0,0,1-3.6,3.52,3.3,3.3,0,0,1-3.61-3.52Zm2.35,7c0,1,.31,1.52,1.26,1.52s1.25-.5,1.25-1.52v-7c0-1-.3-1.52-1.25-1.52s-1.26.5-1.26,1.52Z"/><path d="M69.93,525h1.94l1.59,8.74h0L74.81,525H77L74.6,538.72h-2l-1.71-9.06h0l-1.6,9.06h-2L64.71,525h2.2l1.44,8.74h0Z"/><path d="M82.81,528.38c-.09-1.17-.72-1.52-1.25-1.52-.76,0-1.18.5-1.18,1.35,0,2.34,4.79,3.46,4.79,7.18,0,2.26-1.52,3.52-3.73,3.52s-3.43-1.75-3.53-3.8l2.24-.32c.1,1.38.65,2.07,1.41,2.07a1.21,1.21,0,0,0,1.37-1.26c0-2.71-4.79-3.44-4.79-7.37,0-2.18,1.33-3.42,3.65-3.42,1.92,0,3,1.39,3.26,3.33Z"/><path d="M87,538.72V525h6.31v2h-4v3.54h3v2h-3v4h4.22v2.05Z"/><path d="M101,527.05H98.7v-2h6.91v2h-2.28v11.67H101Z"/><path d="M107,538.72V525h2.35v5.59h2.51V525h2.36v13.72h-2.36v-6.08h-2.51v6.08Z"/><path d="M116.5,538.72V525h6.31v2h-4v3.54h3v2h-3v4h4.22v2.05Z"/><path d="M44.19,549.58v-1.06c0-1.16-.53-1.66-1.14-1.66-.95,0-1.25.5-1.25,1.52v7c0,1,.3,1.52,1.25,1.52s1.14-.5,1.14-1.39v-1.65h2.36v1.57a3.27,3.27,0,0,1-3.5,3.52,3.3,3.3,0,0,1-3.61-3.52v-7.06a3.3,3.3,0,0,1,3.61-3.52c2.36,0,3.5,1.71,3.5,3.76v1Z"/><path d="M48.94,548.33a3.3,3.3,0,0,1,3.61-3.52,3.3,3.3,0,0,1,3.61,3.52v7.06a3.3,3.3,0,0,1-3.61,3.52,3.3,3.3,0,0,1-3.61-3.52Zm2.36,7c0,1,.3,1.52,1.25,1.52s1.26-.5,1.26-1.52v-7c0-1-.31-1.52-1.26-1.52s-1.25.5-1.25,1.52Z"/><path d="M58.33,558.72V545h2.36v11.67h3.7v2.05Z"/><path d="M65.72,558.72V545h2.36v11.67h3.7v2.05Z"/><path d="M73.23,558.72V545h6.3v2h-4v3.54h3v2h-3v4H79.8v2.05Z"/><path d="M86.41,549.58v-1.06c0-1.16-.53-1.66-1.14-1.66-1,0-1.25.5-1.25,1.52v7c0,1,.3,1.52,1.25,1.52s1.14-.5,1.14-1.39v-1.65h2.36v1.57a3.56,3.56,0,0,1-7.11,0v-7.06a3.3,3.3,0,0,1,3.61-3.52c2.36,0,3.5,1.71,3.5,3.76v1Z"/><path d="M92.53,547.05H90.25v-2h6.91v2H94.88v11.67H92.53Z"/><path d="M98.88,558.72V545h2.35v13.72Z"/><path d="M103.83,548.33a3.61,3.61,0,0,1,7.22,0v7.06a3.61,3.61,0,0,1-7.22,0Zm2.36,7c0,1,.3,1.52,1.25,1.52s1.26-.5,1.26-1.52v-7c0-1-.31-1.52-1.26-1.52s-1.25.5-1.25,1.52Z"/><path d="M113.33,558.72V545h2.19l2.87,7.85h0V545h2.12v13.72h-2l-3-8.57h0v8.57Z"/></g></g></svg>