<svg xmlns="http://www.w3.org/2000/svg" xmlns:xlink="http://www.w3.org/1999/xlink" viewBox="0 0 728 90"><defs><clipPath id="a"><rect x="13" y="28.1" width="91" height="38.55" style="fill:none"/></clipPath></defs><title>logo2_1</title><g style="clip-path:url(#a)"><path d="M85.2,49.1c-.3-.4-.8-.3-1.2,0s-.9.3-.6-1a21.2,21.2,0,0,1,1.5-3.5c.2-.5-.1-1.1-1-1.2a1.9,1.9,0,0,0-1.1.4,2.4,2.4,0,0,0-2-.9,7.1,7.1,0,0,0-5.2,3.2,9.2,9.2,0,0,1-2.9,3,.9.9,0,0,1-.9.3c-.5-.2-.4-.9.7-2.2s2.3-3.5,1.3-4.4a2.7,2.7,0,0,0-3-.1,7,7,0,0,0-2.6,1.9,97.1,97.1,0,0,1,5-9.4c.6-1,.5-1.9-.3-2.1s-1.6.3-2.2,1.6c-1.4,3-2.6,5.7-4,8.6h0a15.2,15.2,0,0,1-4.8,5.8c-.3.2-.7.4-.9.3s-.4-1,.7-2.2,2.2-3.5,1.2-4.4a2.9,2.9,0,0,0-3-.1,9.4,9.4,0,0,0-3,2.3c.7-1,.6-1.9,0-2.1s-1.3,0-2.1,2.3-1.5,3.2-3.1,3.9-1,.2-.7-1a21.2,21.2,0,0,1,1.5-3.5c.2-.5-.1-1.1-1-1.2a1.9,1.9,0,0,0-1.1.4,2.4,2.4,0,0,0-2-.9c-2.2,0-5.3,2.1-6.1,5.3a2.7,2.7,0,0,1-2,1.1c-1.6,0-2.5-1.4-2.9-3,3.7-.8,7.1-2.8,7.8-6s-1.5-5.7-5.2-5.6a11.8,11.8,0,0,0-9.4,5.4c-.6,1.1-.1,2,.7,1.9a1.9,1.9,0,0,0,1.8-1.4c.5-1.7,2.4-3.7,5.7-4s4,1.4,3.7,3.5-2.7,3.9-5.2,4.6v-.2c0-.8,0-1.3-.5-1.5s-.2-.5-.5-.6-.9-.1-1.5.6a66.5,66.5,0,0,1-4.3,6.2c-.8,1.1-.8,2.1,0,2.4a1.9,1.9,0,0,0,2.2-1.2c.9-1.4,1.6-2.7,2.3-3.9h.5c.1,2.3,1.2,5.4,4.4,4.9A4.7,4.7,0,0,0,42.3,50c.5,1.3,2,1.6,3.5.9a9.4,9.4,0,0,0,3-2.3c-1,2.3.8,4,3.6,1.8l.3-.3-4.1,8.3c-.7,1.5-.4,2.2.5,2.2s1.4-.3,2-1.6,2.1-5.4,4.2-9.7,4.8-5,5.3-4.6-.2,1.2-1.4,2.7-1.2,3-.6,3.6,2.2.8,4-.6a6.8,6.8,0,0,0,1.2-1.2c-.6,1.2-.8,2,0,2.3a1.1,1.1,0,0,0,1.5-.7,18.3,18.3,0,0,1,2.9-4.4c1.5-1.6,2.9-2,3.2-1.7s-.2,1.2-1.4,2.7-1.2,3-.6,3.6,2.2.8,4-.6a6.5,6.5,0,0,0,1.2-1.1c.1,1.9,1.8,2.4,3.5,1.6a8.9,8.9,0,0,0,3.1-2.3c-.8,2.4,1.4,3.9,3.7,1.9.5-.5.6-1.2.3-1.4m-38.9-.3c-.9.5-2.1.3-1.6-1.3s1.9-2.5,2.7-2.4a1.4,1.4,0,0,1,1.5.9,7.5,7.5,0,0,1-2.6,2.8m32.4,0c-.9.6-2.1.3-1.6-1.3A3.5,3.5,0,0,1,79.7,45a1.8,1.8,0,0,1,1.6,1.1,8.2,8.2,0,0,1-2.6,2.7" style="fill:#fff"/><path d="M88.6,48.5a1.4,1.4,0,0,0-1.4,1.4,1.5,1.5,0,0,0,1.4,1.3,1.3,1.3,0,0,0,1.3-1.3,1.3,1.3,0,0,0-1.3-1.4" style="fill:#fff"/></g></svg>