<svg id="_1_-_black_friday_is_coming" data-name="1 - black friday is coming" xmlns="http://www.w3.org/2000/svg" viewBox="0 0 728 90"><defs><style>.cls-1{fill:#fff;}</style></defs><title>728x90txt2</title><g id="english"><rect class="cls-1" x="538.96" y="30" width="173.57" height="31.97"/><path d="M546.76,39.57H550c2.3,0,3.33,1.18,3.33,3.32a2.69,2.69,0,0,1-1.5,2.62,2.85,2.85,0,0,1,1.74,3c0,2.07-.92,3.63-3.37,3.63h-3.4Zm2.15,5.14h.79a1.43,1.43,0,0,0,1.44-1.6c0-1.16-.46-1.77-1.41-1.77h-.82Zm0,5.62h.91c1.14,0,1.56-.66,1.56-1.92s-.49-1.93-1.77-1.93h-.7Z"/><path d="M557.59,52.1h-2.15V39.57h3c2.41,0,3.64,1,3.64,3.7,0,2-.78,2.83-1.51,3.16l1.83,5.67h-2.19l-1.53-5.19a9.12,9.12,0,0,1-1.11.05Zm0-6.9h.77c1.16,0,1.59-.44,1.59-1.93s-.43-1.93-1.59-1.93h-.77Z"/><path d="M564.12,42.61a3.3,3.3,0,0,1,6.59,0v6.45a3.3,3.3,0,0,1-6.59,0Zm2.15,6.4c0,.94.28,1.39,1.15,1.39s1.14-.45,1.14-1.39V42.66c0-.93-.28-1.39-1.14-1.39s-1.15.46-1.15,1.39Z"/><path d="M576.53,39.57h1.77l1.45,8h0l1.2-8h2L580.8,52.1H579l-1.56-8.27h0l-1.46,8.27h-1.81l-2.37-12.53h2l1.32,8h0Z"/><path d="M588.3,42.66c-.09-1.07-.66-1.39-1.15-1.39-.69,0-1.08.46-1.08,1.24,0,2.13,4.38,3.15,4.38,6.55a3.07,3.07,0,0,1-3.4,3.21c-2,0-3.14-1.59-3.23-3.47l2-.29c.08,1.27.59,1.89,1.28,1.89a1.11,1.11,0,0,0,1.25-1.15c0-2.48-4.37-3.13-4.37-6.73,0-2,1.21-3.12,3.33-3.12,1.75,0,2.79,1.27,3,3Z"/><path d="M592.08,52.1V39.57h5.76v1.88h-3.61v3.22H597v1.88h-2.78v3.68h3.85V52.1Z"/><path d="M604.89,41.45h-2.08V39.57h6.31v1.88H607V52.1h-2.15Z"/><path d="M610.39,52.1V39.57h2.15v5.1h2.29v-5.1H617V52.1h-2.15V46.55h-2.29V52.1Z"/><path d="M619.07,52.1V39.57h5.76v1.88h-3.61v3.22H624v1.88h-2.78v3.68h3.85V52.1Z"/><path d="M635,43.76v-1c0-1.05-.49-1.51-1.05-1.51-.86,0-1.14.46-1.14,1.39V49c0,.94.28,1.39,1.14,1.39S635,50,635,49.13V47.62h2.15v1.44a3.25,3.25,0,0,1-6.49,0V42.61a3,3,0,0,1,3.29-3.21c2.16,0,3.2,1.56,3.2,3.44v.92Z"/><path d="M639.31,42.61a3.3,3.3,0,0,1,6.59,0v6.45a3.3,3.3,0,0,1-6.59,0Zm2.15,6.4c0,.94.28,1.39,1.14,1.39s1.15-.45,1.15-1.39V42.66c0-.93-.28-1.39-1.15-1.39s-1.14.46-1.14,1.39Z"/><path d="M647.88,52.1V39.57H650V50.23h3.39V52.1Z"/><path d="M654.63,52.1V39.57h2.15V50.23h3.39V52.1Z"/><path d="M661.49,52.1V39.57h5.76v1.88h-3.61v3.22h2.78v1.88h-2.78v3.68h3.85V52.1Z"/><path d="M673.53,43.76v-1c0-1.05-.48-1.51-1-1.51-.87,0-1.14.46-1.14,1.39V49c0,.94.27,1.39,1.14,1.39s1-.45,1-1.27V47.62h2.15v1.44a3,3,0,0,1-3.19,3.21,3,3,0,0,1-3.3-3.21V42.61a3,3,0,0,1,3.3-3.21c2.15,0,3.19,1.56,3.19,3.44v.92Z"/><path d="M679.12,41.45H677V39.57h6.31v1.88h-2.08V52.1h-2.15Z"/><path d="M684.92,52.1V39.57h2.15V52.1Z"/><path d="M689.45,42.61a3.3,3.3,0,0,1,6.59,0v6.45a3.3,3.3,0,0,1-6.59,0ZM691.6,49c0,.94.28,1.39,1.15,1.39s1.14-.45,1.14-1.39V42.66c0-.93-.28-1.39-1.14-1.39s-1.15.46-1.15,1.39Z"/><path d="M698.13,52.1V39.57h2l2.62,7.17h0V39.57h1.94V52.1h-1.87l-2.75-7.82h0V52.1Z"/></g></svg>