<svg xmlns="http://www.w3.org/2000/svg" xmlns:xlink="http://www.w3.org/1999/xlink" viewBox="0 0 728 90"><defs><clipPath id="a"><rect x="302.9" y="20.2" width="120.4" height="51" style="fill:none"/></clipPath></defs><title>logo1_1</title><g style="clip-path:url(#a)"><path d="M398.5,47.9c-.5-.5-1.1-.3-1.7.1s-1.1.4-.7-1.3A26.2,26.2,0,0,1,398,42c.3-.6-.1-1.4-1.3-1.5a1.7,1.7,0,0,0-1.4.5,3.6,3.6,0,0,0-2.7-1.2c-2.2,0-5.1,1.7-6.9,4.3a14.1,14.1,0,0,1-3.8,3.9,1.6,1.6,0,0,1-1.2.4c-.7-.3-.5-1.2.9-2.9s3-4.6,1.7-5.8a3.6,3.6,0,0,0-4-.1,10.2,10.2,0,0,0-3.4,2.4c2.2-4.4,4.8-9.5,6.6-12.4s.8-2.5-.4-2.7-2,.3-2.8,2c-1.9,4-3.5,7.5-5.3,11.5h0a19.7,19.7,0,0,1-6.3,7.7,1.9,1.9,0,0,1-1.3.4c-.7-.3-.5-1.3.9-2.9s3-4.6,1.7-5.8-2.4-.9-4-.2a13.5,13.5,0,0,0-4,3.1c.9-1.3.8-2.5,0-2.8s-1.7,0-2.8,3-2,4.3-4.1,5.2c-.4.2-1.3.3-.9-1.3a36.8,36.8,0,0,1,1.9-4.7c.3-.6-.1-1.4-1.2-1.5a1.7,1.7,0,0,0-1.5.4,3.4,3.4,0,0,0-2.7-1.1c-2.8,0-7,2.8-8,7a4.2,4.2,0,0,1-2.7,1.5c-2.1,0-3.3-1.9-3.8-4.1,4.8-.9,9.4-3.6,10.3-7.8s-1.9-7.5-6.9-7.4a15.7,15.7,0,0,0-12.5,7.1c-.7,1.5,0,2.6,1,2.6a2.8,2.8,0,0,0,2.4-1.9c.6-2.3,3.2-4.9,7.6-5.3s5.2,1.8,4.8,4.6-3.6,5.2-6.9,6v-.2c0-1-.1-1.7-.8-1.9a.8.8,0,0,0-.6-.8c-.5-.3-1.2-.2-1.9.7a99.4,99.4,0,0,1-5.8,8.3c-1,1.4-1,2.8,0,3.1s2.1-.1,3-1.6,2.1-3.6,2.9-5.1h.7c.1,3,1.7,7.1,5.8,6.4a6.2,6.2,0,0,0,3.4-1.8c.6,1.7,2.6,2.1,4.6,1.2a11.8,11.8,0,0,0,3.9-3.1c-1.2,3.1,1.2,5.4,4.8,2.4a.8.8,0,0,0,.4-.4c-1.8,3.9-4,8.1-5.4,11s-.5,2.9.7,3,1.8-.5,2.6-2.2a122.4,122.4,0,0,1,5.6-12.8c2.8-5.4,6.3-6.7,7-6.2s-.3,1.7-1.9,3.7-1.6,3.9-.8,4.7,3,1.1,5.3-.8a12,12,0,0,0,1.6-1.5c-.7,1.5-1,2.6,0,3a1.6,1.6,0,0,0,2-1,22.5,22.5,0,0,1,3.8-5.7c2-2.2,3.9-2.7,4.3-2.4s-.3,1.7-1.9,3.7-1.6,4-.8,4.7,3,1.1,5.3-.8a12.2,12.2,0,0,0,1.6-1.4c.1,2.5,2.4,3.2,4.7,2.1a12.3,12.3,0,0,0,4-3.1c-1.1,3.2,1.9,5.2,4.9,2.5.7-.7.8-1.5.5-1.9m-51.6-.3c-1.2.7-2.7.4-2-1.8s2.4-3.2,3.5-3.1a1.9,1.9,0,0,1,2,1.2,10.9,10.9,0,0,1-3.5,3.7m42.9,0c-1.2.7-2.8.4-2-1.7s2.3-3.3,3.4-3.3a2.5,2.5,0,0,1,2.1,1.4,11.8,11.8,0,0,1-3.5,3.6" style="fill:#fff"/><path d="M402.9,47.2a1.8,1.8,0,0,0-1.8,1.8,2,2,0,0,0,1.8,1.8,1.8,1.8,0,0,0,0-3.6" style="fill:#fff"/></g></svg>