<svg id="_1_-_black_friday_is_coming" data-name="1 - black friday is coming" xmlns="http://www.w3.org/2000/svg" viewBox="0 0 300 600"><defs><style>.cls-1{fill:#fff;}</style></defs><title>300x600txt1</title><g id="english"><path class="cls-1" d="M79.42,514.44h5.16c3.72,0,5.37,1.9,5.37,5.35A4.34,4.34,0,0,1,87.54,524c1.77.79,2.8,2.19,2.8,4.79,0,3.33-1.48,5.86-5.43,5.86H79.42Zm3.48,8.29h1.26a2.3,2.3,0,0,0,2.32-2.58c0-1.87-.73-2.86-2.27-2.86H82.9Zm0,9.07h1.45c1.85,0,2.52-1.06,2.52-3.11s-.78-3.11-2.85-3.11H82.9Z"/><path class="cls-1" d="M93.26,534.66V514.44h3.47v17.19h5.46v3Z"/><path class="cls-1" d="M106.33,534.66H103l3.73-20.22H111l3.72,20.22h-3.36l-.61-4.49H107Zm1.12-7.51h2.8l-1.37-8.68h-.06Z"/><path class="cls-1" d="M123.75,521.19v-1.57c0-1.71-.79-2.44-1.68-2.44-1.4,0-1.85.73-1.85,2.24v10.25c0,1.51.45,2.24,1.85,2.24s1.68-.73,1.68-2v-2.44h3.47v2.32c0,2.86-1.68,5.18-5.15,5.18-3.64,0-5.32-2.32-5.32-5.18V519.34c0-2.86,1.68-5.18,5.32-5.18,3.47,0,5.15,2.52,5.15,5.54v1.49Z"/><path class="cls-1" d="M130.58,534.66V514.44h3.47v7.48h.06l3.64-7.48h3.47L137.47,522l4.23,12.69h-3.53l-2.83-9.41h-.06l-1.23,2.24v7.17Z"/><path class="cls-1" d="M149.39,534.66V514.44h9.69v3h-6.21v5.21h4.64v3h-4.64v9Z"/><path class="cls-1" d="M165.3,534.66h-3.47V514.44h4.87c3.89,0,5.88,1.65,5.88,6,0,3.25-1.26,4.57-2.44,5.1l2.94,9.16h-3.53l-2.46-8.38a15.7,15.7,0,0,1-1.79.09Zm0-11.15h1.23c1.88,0,2.58-.7,2.58-3.11s-.7-3.11-2.58-3.11H165.3Z"/><path class="cls-1" d="M176.3,534.66V514.44h3.47v20.22Z"/><path class="cls-1" d="M183.61,514.44h5.15c3.59,0,5.49,2,5.49,6.1v8c0,4.15-1.9,6.11-5.49,6.11h-5.15Zm3.47,17.36h1.21c1.84,0,2.49-.7,2.49-2.83v-8.85c0-2.12-.65-2.83-2.49-2.83h-1.21Z"/><path class="cls-1" d="M199.63,534.66h-3.36L200,514.44h4.31L208,534.66h-3.36l-.62-4.49h-3.81Zm1.12-7.51h2.8l-1.38-8.68h0Z"/><path class="cls-1" d="M214.78,534.66H211.3v-8.41l-4.2-11.81h3.53l2.44,7.7h.05l2.33-7.7H219l-4.2,11.81Z"/><path class="cls-1" d="M121.27,550.48a3.72,3.72,0,0,0-.31,1.09.2.2,0,0,0,.2.23c.34,0,1.23-.95,1.33-1.08a.09.09,0,0,1,.15,0l.19.19c.07.07.1.1,0,.17a4.26,4.26,0,0,1-3.14,1.77.43.43,0,0,1-.49-.48,15.34,15.34,0,0,1,1-3l.47-1.32a3.55,3.55,0,0,0,.28-1,.18.18,0,0,0-.21-.2c-.27,0-1,.88-1.29,1.15a.12.12,0,0,1-.2,0l-.17-.15c-.07,0-.11-.08-.07-.15s1.63-2.08,3.13-2.08c.4,0,.61.21.61.55a7.17,7.17,0,0,1-.51,1.77Zm.28-7.87a1,1,0,0,1,1-.92.92.92,0,0,1,1,.85,1.06,1.06,0,0,1-1,1A.93.93,0,0,1,121.55,542.61Z"/><path class="cls-1" d="M124.94,552.83c-1.12,0-1.7-.41-1.7-1a.67.67,0,0,1,.64-.72.88.88,0,0,1,.82.68c.1.28.24.45.54.45.48,0,.85-.38.85-1.09s-.4-1.07-.76-1.68a2.93,2.93,0,0,1-.63-1.72,2.31,2.31,0,0,1,2.52-2.18c.57,0,1.32.24,1.32,1a.64.64,0,0,1-.64.71.65.65,0,0,1-.68-.58c-.07-.2-.14-.47-.41-.47s-.72.23-.72,1a3.12,3.12,0,0,0,.79,1.53,3,3,0,0,1,.64,1.84A2.34,2.34,0,0,1,124.94,552.83Z"/><path class="cls-1" d="M136.68,551.19c.07,0,.11.07,0,.17a3.72,3.72,0,0,1-2.62,1.47,1.57,1.57,0,0,1-1.53-1.69c0-2.38,1.85-5.56,4-5.56a1.07,1.07,0,0,1,1.18,1,.84.84,0,0,1-.72.85.55.55,0,0,1-.58-.41c-.1-.24-.25-.51-.52-.51s-.7.41-1,1.15a8,8,0,0,0-.67,3c0,.84.26,1.22.7,1.22a2.34,2.34,0,0,0,1.41-.75c0-.07.1-.1.14-.07Z"/><path class="cls-1" d="M138,550.5a5.57,5.57,0,0,1,1.43-3.83,3.13,3.13,0,0,1,2.41-1.09,2,2,0,0,1,2.11,2.15,6.47,6.47,0,0,1-1.46,4,3.06,3.06,0,0,1-2.45,1.13A2.11,2.11,0,0,1,138,550.5Zm3.74-.17a8.36,8.36,0,0,0,1.15-3.1.71.71,0,0,0-.73-.76c-.69,0-1.34.59-2.17,2a5.89,5.89,0,0,0-.9,2.65.76.76,0,0,0,.71.8C140.49,551.91,141.11,551.43,141.77,550.33Z"/><path class="cls-1" d="M146.22,549.29a21,21,0,0,0,.87-2.38.21.21,0,0,0-.22-.24,4.32,4.32,0,0,0-1.23,1,.12.12,0,0,1-.2,0l-.2-.17c0-.07-.07-.1,0-.17.34-.41,1.57-1.77,2.81-1.77.51,0,.73.24.73.62a19.09,19.09,0,0,1-1.09,2.78l.14.07c.71-1.19,2.21-3.47,3.74-3.47a.86.86,0,0,1,.93.8,10.33,10.33,0,0,1-.9,2.7l.14.07c.91-1.42,2.24-3.57,3.8-3.57a.94.94,0,0,1,.94.92,15.79,15.79,0,0,1-.94,2.93,14.39,14.39,0,0,0-.68,2c0,.13.11.23.21.23.37,0,1.19-1.08,1.29-1.22a.1.1,0,0,1,.14,0l.23.15c.07.07.07.11,0,.24s-1.5,2.08-3.06,2.08a.54.54,0,0,1-.58-.51,14.08,14.08,0,0,1,1-3.06,9.1,9.1,0,0,0,.73-2.18.32.32,0,0,0-.36-.34c-.4,0-1.76,1.53-2.82,3.13a7.23,7.23,0,0,0-.64,1.19l-.53,1.46c0,.1-.12.14-.26.14h-1.07c-.13,0-.2-.07-.17-.17l1.07-2.83a18.62,18.62,0,0,0,.87-2.55.32.32,0,0,0-.36-.34c-.4,0-1.73,1.43-2.72,2.86a9.28,9.28,0,0,0-.78,1.43l-.56,1.46c0,.1-.12.14-.25.14h-1.07c-.11,0-.19-.07-.14-.21Z"/><path class="cls-1" d="M160.09,550.48a3.9,3.9,0,0,0-.3,1.09.2.2,0,0,0,.2.23c.34,0,1.23-.95,1.33-1.08a.09.09,0,0,1,.15,0l.19.19c.07.07.1.1,0,.17a4.26,4.26,0,0,1-3.14,1.77.44.44,0,0,1-.5-.48,15.8,15.8,0,0,1,1-3l.47-1.32a3.44,3.44,0,0,0,.27-1,.18.18,0,0,0-.2-.2c-.27,0-1.05.88-1.29,1.15a.13.13,0,0,1-.21,0l-.17-.15c-.06,0-.1-.08-.06-.15s1.63-2.08,3.12-2.08c.41,0,.62.21.62.55a7.65,7.65,0,0,1-.51,1.77Zm.29-7.87a1,1,0,0,1,1-.92.93.93,0,0,1,1,.85,1.06,1.06,0,0,1-1,1A.93.93,0,0,1,160.38,542.61Z"/><path class="cls-1" d="M164.28,552.55c0,.07-.07.11-.24.11H163c-.15,0-.17-.12-.14-.23l1.16-3.14a22.25,22.25,0,0,0,.78-2.38.24.24,0,0,0-.25-.27c-.31,0-1,.61-1.24.88a.09.09,0,0,1-.16,0l-.18-.19c-.07,0-.11-.1,0-.17a4.09,4.09,0,0,1,2.91-1.6.58.58,0,0,1,.64.58,11.76,11.76,0,0,1-.79,2.28l.1.07c.51-.78,2.07-2.93,3.69-2.93a.94.94,0,0,1,1,1,10.51,10.51,0,0,1-.92,3,9.85,9.85,0,0,0-.68,2c0,.17.07.27.2.27s.89-.57,1.06-.81a.17.17,0,0,1,.2,0l.17.14c.07,0,.07.1,0,.2a4.12,4.12,0,0,1-2.82,1.47c-.38,0-.58-.21-.58-.51a23.46,23.46,0,0,1,1-3c.25-.72.73-2,.73-2.21a.36.36,0,0,0-.39-.41c-.51,0-1.94,1.36-2.65,2.52a10,10,0,0,0-.92,1.73Z"/><path class="cls-1" d="M170,555.6a1.52,1.52,0,0,1,.72-1.3,8,8,0,0,1,2.14-1.15c-.51-.38-.65-.68-.65-1s.48-.78,1.47-1.26l0-.07a1.92,1.92,0,0,1-1.39-2,3.43,3.43,0,0,1,3.33-3.23,2.09,2.09,0,0,1,1.66.73,2.69,2.69,0,0,1,1.43-.56.73.73,0,0,1,.75.75.58.58,0,0,1-.61.61.8.8,0,0,1-.58-.23.34.34,0,0,0-.31-.17.57.57,0,0,0-.4.2,3.65,3.65,0,0,1,.1.87,3.35,3.35,0,0,1-2.69,3.09c-.37.07-.61.1-.64.1-.34.17-.72.51-.72.78s.21.38.34.48c.31.22,1.16.65,2.35,1.36,1,.61,1.29,1.19,1.29,1.7a2.07,2.07,0,0,1-1.22,1.8,5.06,5.06,0,0,1-2.72.61C171.62,557.7,170,556.68,170,555.6Zm6,.3c0-.75-.48-1.07-1.19-1.49-.17-.11-1.26-.75-1.51-.92-1,.47-1.69,1-1.69,1.83,0,1.19,1.23,1.77,2.48,1.77C174.88,557.09,175.94,556.7,175.94,555.9Zm.17-8.73c0-.67-.14-1-.61-1s-.65.2-.94.66a4.27,4.27,0,0,0-.76,2.6c0,.65.2,1,.61,1C175.46,550.34,176.11,548.37,176.11,547.17Z"/></g></svg>