<svg xmlns="http://www.w3.org/2000/svg" viewBox="0 0 300 600"><title>copy1-300x600</title><path d="M100,547c-.3,0-.6.1-.6.4s.3.5.4.5a.8.8,0,0,1,.4.7c0,.3-.2.6-.7.6s-.9-.4-.9-1.2a2.1,2.1,0,0,1,.8-1.7,1.8,1.8,0,0,1,1.4-.5h3c.2-.1.3.1.1.3s-1.7,2.8-1.7,4.3.3,1.2.9,1.2a2.1,2.1,0,0,0,1.7-1,5.9,5.9,0,0,0,.6-2.1c.1-.5.2-1.4.3-2a1,1,0,0,1,.9-.6c.4,0,.6.2.6.5s-.5,1.2-.8,2.1-.3,1.4-.3,1.8a1.2,1.2,0,0,0,1.2,1.3c1.1,0,2.2-1.3,2.2-3a2.2,2.2,0,0,0-.4-1.3,1.9,1.9,0,0,1-.4-.9.7.7,0,0,1,.7-.7c.7,0,1.2.4,1.2,1.7a7.6,7.6,0,0,1-1.3,4,3.3,3.3,0,0,1-2.6,1.5,1.7,1.7,0,0,1-1.6-1.6,4,4,0,0,1-2.8,1.6,1.6,1.6,0,0,1-1.7-1.7c0-1.4,1.6-3.7,2.3-4.6h0a3.5,3.5,0,0,1-1.6.6Z" style="fill:#fff"/><path d="M116.3,551c.1,0,.1.1,0,.1a3.9,3.9,0,0,1-3,1.7,1.6,1.6,0,0,1-1.8-1.8,6.5,6.5,0,0,1,2.1-4.4,3.9,3.9,0,0,1,2.5-1,1.1,1.1,0,0,1,1.2,1,2.5,2.5,0,0,1-1.5,2.2,5.6,5.6,0,0,1-2.5.7,3.1,3.1,0,0,0-.2,1.3,1,1,0,0,0,.9,1,2.6,2.6,0,0,0,1.9-1h.1Zm-2.9-2.1a3.5,3.5,0,0,0,1.7-.6,1.7,1.7,0,0,0,.7-1.3c0-.3-.1-.6-.5-.6S113.6,548,113.4,548.9Z" style="fill:#fff"/><path d="M122.6,551h0a3.9,3.9,0,0,1-3,1.7,1.6,1.6,0,0,1-1.8-1.8,6.5,6.5,0,0,1,2.1-4.4,3.9,3.9,0,0,1,2.5-1,1.1,1.1,0,0,1,1.2,1,2.5,2.5,0,0,1-1.5,2.2,6,6,0,0,1-2.5.7,3.1,3.1,0,0,0-.2,1.3,1,1,0,0,0,.9,1,2.6,2.6,0,0,0,1.9-1h.1Zm-2.9-2.1a3.8,3.8,0,0,0,1.7-.6,1.7,1.7,0,0,0,.7-1.3c0-.3-.1-.6-.5-.6S119.9,548,119.7,548.9Z" style="fill:#fff"/><path d="M127.2,547.4a3.9,3.9,0,0,1,2.9-1.8,1,1,0,0,1,1.1,1c0,1.3-2.3,2.6-3.1,2.9h0l1.1,1.8c.3.4.5.7.8.7s.5-.3.7-.5h.1l.2.2c.1.1.1.1,0,.2a2.3,2.3,0,0,1-1.7.8c-.9,0-1.3-.2-1.6-1l-.8-1.7c-.1-.3-.4-.3-.7-.3l-1,2.7c-.1.1-.1.2-.3.2h-1.1c-.1,0-.2-.1-.1-.3l3.8-9.9c.2-.4,0-.7-.5-.7h-.4c-.1,0-.2-.1-.1-.2v-.3h2.9a.2.2,0,0,1,.1.3l-2.5,5.8Zm-.9,2c1.5.2,3.3-1.5,3.3-2.4a.4.4,0,0,0-.4-.4c-.6,0-1.8,1-2,1.2l-.5.6Z" style="fill:#fff"/><path d="M136.6,551a.1.1,0,0,1,.1.1,4.1,4.1,0,0,1-3.1,1.7,1.6,1.6,0,0,1-1.8-1.8,6.5,6.5,0,0,1,2.1-4.4,4.2,4.2,0,0,1,2.6-1,1.1,1.1,0,0,1,1.2,1,2.7,2.7,0,0,1-1.6,2.2,5.3,5.3,0,0,1-2.5.7c0,.2-.1.6-.1,1.3a.9.9,0,0,0,.9,1,2.4,2.4,0,0,0,1.8-1h.1Zm-2.8-2.1a3.8,3.8,0,0,0,1.7-.6,2.1,2.1,0,0,0,.7-1.3.6.6,0,0,0-.5-.6C134.8,546.4,134,548,133.8,548.9Z" style="fill:#fff"/><path d="M139.7,552.6s0,.1-.2.1h-1.1a.2.2,0,0,1-.1-.3l1.1-3.1a20.6,20.6,0,0,0,.8-2.4c0-.2-.1-.3-.2-.3s-1,.6-1.3.9-.1.1-.1,0h-.2c-.1-.1-.1-.2,0-.2a3.9,3.9,0,0,1,2.9-1.6.5.5,0,0,1,.6.6,12.3,12.3,0,0,1-.8,2.2h.1c.5-.8,2.1-2.9,3.7-2.9a1,1,0,0,1,1,.9,10.6,10.6,0,0,1-1,3,10.3,10.3,0,0,0-.6,2c0,.2,0,.3.2.3a2.5,2.5,0,0,0,1-.8h.2l.2.2c.1,0,.1.1,0,.2a4.5,4.5,0,0,1-2.8,1.4c-.4,0-.6-.2-.6-.5s.5-1.4,1-2.9a13.2,13.2,0,0,0,.7-2.3c0-.2-.1-.4-.3-.4s-2,1.4-2.7,2.6a13.1,13.1,0,0,0-.9,1.7Z" style="fill:#fff"/><path d="M155.8,541.2c.2,0,.3.2.2.3s-3,8.5-3.2,9.6-.2.7.1.7a4.4,4.4,0,0,0,1.1-.8.1.1,0,0,1,.1-.1l.3.2v.2a4.4,4.4,0,0,1-2.8,1.5c-.3,0-.5-.1-.5-.4a13.5,13.5,0,0,1,.6-2.4h-.1c-.8,1.4-2.2,2.9-3.4,2.9a1.3,1.3,0,0,1-1.2-1.4,7.1,7.1,0,0,1,2.1-4.5,4.3,4.3,0,0,1,2.6-1.3,1.7,1.7,0,0,1,1.2.5l1.1-3.7c.1-.3,0-.6-.4-.6h-.7v-.4h2.8Zm-4.4,5c-1.1,0-2.7,3.6-2.7,5s.2.6.4.6,1.5-1.3,2.2-2.2a5.8,5.8,0,0,0,1.1-2.4A1,1,0,0,0,151.4,546.2Z" style="fill:#fff"/><path d="M161.1,550.5a4.5,4.5,0,0,0-.3,1.1.2.2,0,0,0,.2.2c.3,0,1.2-.9,1.3-1.1s.1-.1.2,0l.2.2c0,.1.1.1,0,.2a4.4,4.4,0,0,1-3.1,1.7c-.4,0-.5-.2-.5-.5a12.9,12.9,0,0,1,.9-3l.5-1.3a3.3,3.3,0,0,0,.3-1,.2.2,0,0,0-.2-.2c-.3,0-1.1.9-1.3,1.2h-.2l-.2-.2h-.1c.1-.1,1.7-2.1,3.1-2.1s.7.2.7.5a7.4,7.4,0,0,1-.6,1.8Zm.3-7.9a1,1,0,0,1,.9-.9c.7,0,1.1.4,1.1.8a1.1,1.1,0,0,1-1,1A.9.9,0,0,1,161.4,542.6Z" style="fill:#fff"/><path d="M164.8,552.8c-1.2,0-1.7-.4-1.7-1s.2-.7.6-.7a.8.8,0,0,1,.8.7.5.5,0,0,0,.6.4c.5,0,.8-.3.8-1s-.4-1.1-.7-1.7a2.8,2.8,0,0,1-.7-1.7,2.3,2.3,0,0,1,2.5-2.2c.6,0,1.4.2,1.4.9a.6.6,0,0,1-.7.7.6.6,0,0,1-.7-.5c0-.2-.1-.5-.4-.5s-.7.2-.7,1a2.7,2.7,0,0,0,.8,1.5,3.6,3.6,0,0,1,.7,1.8A2.3,2.3,0,0,1,164.8,552.8Z" style="fill:#fff"/><path d="M175.2,548.1c.9-1.3,2-2.5,3.3-2.5s1.3.8,1.3,1.6a8.3,8.3,0,0,1-1.1,3.7c-.7,1.4-1.7,2.3-2.8,2.3a.9.9,0,0,1-1-.9c0-.4.3-.9.7-.9a.6.6,0,0,1,.6.6c.1.2.1.5.4.5s.7-1.1,1-2a12.2,12.2,0,0,0,.6-3c0-.4-.1-.8-.5-.8s-2,1.4-2.5,2a9.5,9.5,0,0,0-.9,1.7l-.9,2.1a.2.2,0,0,1-.2.2h-1.1c-.1,0-.2-.1-.1-.3l3.6-9.5a1.3,1.3,0,0,0,.2-.8c0-.2-.2-.3-.5-.3h-.5c-.1,0-.1-.1-.1-.2v-.3h2.9c.1,0,.2,0,.2.2s-.1.2-.2.5l-2.6,6.1Z" style="fill:#fff"/><path d="M185.4,551c.1,0,.1.1,0,.1a3.7,3.7,0,0,1-3,1.7,1.6,1.6,0,0,1-1.8-1.8,6.5,6.5,0,0,1,2.1-4.4,4.2,4.2,0,0,1,2.6-1,1.1,1.1,0,0,1,1.2,1,2.7,2.7,0,0,1-1.6,2.2,5.3,5.3,0,0,1-2.5.7,3.1,3.1,0,0,0-.2,1.3,1,1,0,0,0,1,1,2.5,2.5,0,0,0,1.8-1h.1Zm-2.8-2.1a3.8,3.8,0,0,0,1.7-.6,2.1,2.1,0,0,0,.7-1.3.6.6,0,0,0-.5-.6C183.6,546.4,182.8,548,182.6,548.9Z" style="fill:#fff"/><path d="M187.4,552.7c-.1,0-.2-.1-.1-.2l.8-2.7a22.7,22.7,0,0,0,.8-2.9.3.3,0,0,0-.3-.3,2.2,2.2,0,0,0-1.2,1c0,.1-.1.1-.2,0H187v-.2a3.5,3.5,0,0,1,2.7-1.7c.5,0,.7.3.7.6a11.9,11.9,0,0,1-.7,2.3h.1c.5-.9,1.7-3,2.8-3a.8.8,0,0,1,.9.8c0,.5-.4,1-.7,1s-.4,0-.5-.2l-.5-.2c-.5,0-1.4,1.4-2,2.4s-.3.8-.5,1.4l-.6,1.8h-1.3Z" style="fill:#fff"/><path d="M198.2,551a.1.1,0,0,1,.1.1,4.1,4.1,0,0,1-3.1,1.7,1.6,1.6,0,0,1-1.8-1.8,6.5,6.5,0,0,1,2.1-4.4,4.2,4.2,0,0,1,2.6-1,1.1,1.1,0,0,1,1.2,1,2.7,2.7,0,0,1-1.6,2.2,5.3,5.3,0,0,1-2.5.7c0,.2-.1.6-.1,1.3a.9.9,0,0,0,.9,1,2.4,2.4,0,0,0,1.8-1h.2Zm-2.8-2.1a3.8,3.8,0,0,0,1.7-.6,2.1,2.1,0,0,0,.7-1.3.6.6,0,0,0-.5-.6C196.4,546.4,195.6,548,195.4,548.9Z" style="fill:#fff"/><path d="M79.4,514.4h5.2c3.7,0,5.4,1.9,5.4,5.4a4.4,4.4,0,0,1-2.5,4.2c1.8.8,2.8,2.2,2.8,4.8s-1.4,5.9-5.4,5.9H79.4Zm3.5,8.3h1.3a2.3,2.3,0,0,0,2.3-2.5c0-1.9-.7-2.9-2.3-2.9H82.9Zm0,9.1h1.5c1.8,0,2.5-1.1,2.5-3.1s-.8-3.1-2.9-3.1H82.9Z" style="fill:#fff"/><path d="M93.3,534.7V514.4h3.4v17.2h5.5v3.1Z" style="fill:#fff"/><path d="M106.3,534.7H103l3.7-20.3H111l3.7,20.3h-3.3l-.6-4.5h-3.9Zm1.2-7.5h2.8l-1.4-8.7h-.1Z" style="fill:#fff"/><path d="M123.7,521.2v-1.6c0-1.7-.7-2.4-1.6-2.4s-1.9.7-1.9,2.2v10.3c0,1.5.5,2.2,1.9,2.2s1.6-.7,1.6-2v-2.5h3.5v2.4a4.8,4.8,0,0,1-5.1,5.1c-3.7,0-5.4-2.3-5.4-5.1V519.3c0-2.8,1.7-5.1,5.4-5.1s5.1,2.5,5.1,5.5v1.5Z" style="fill:#fff"/><path d="M130.6,534.7V514.4h3.5v7.5h0l3.6-7.5h3.5l-3.7,7.6,4.2,12.7h-3.5l-2.9-9.5h0l-1.2,2.3v7.2Z" style="fill:#fff"/><path d="M149.4,534.7V514.4h9.7v3.1h-6.2v5.2h4.6v3h-4.6v9Z" style="fill:#fff"/><path d="M165.3,534.7h-3.5V514.4h4.9c3.9,0,5.9,1.7,5.9,6s-1.3,4.6-2.5,5.1l3,9.2h-3.5l-2.5-8.4h-1.8Zm0-11.2h1.2c1.9,0,2.6-.7,2.6-3.1s-.7-3.1-2.6-3.1h-1.2Z" style="fill:#fff"/><path d="M176.3,534.7V514.4h3.5v20.3Z" style="fill:#fff"/><path d="M183.6,514.4h5.2c3.5,0,5.5,2,5.5,6.1v8.1c0,4.1-2,6.1-5.5,6.1h-5.2Zm3.5,17.4h1.2c1.8,0,2.5-.7,2.5-2.8v-8.9c0-2.1-.7-2.8-2.5-2.8h-1.2Z" style="fill:#fff"/><path d="M199.6,534.7h-3.3l3.7-20.3h4.3l3.7,20.3h-3.3l-.6-4.5h-3.9Zm1.1-7.5h2.8l-1.3-8.7h-.1Z" style="fill:#fff"/><path d="M214.8,534.7h-3.5v-8.4l-4.2-11.9h3.5l2.5,7.7h0l2.3-7.7H219l-4.2,11.9Z" style="fill:#fff"/></svg>