<svg id="_1_-_black_friday_is_coming" data-name="1 - black friday is coming" xmlns="http://www.w3.org/2000/svg" viewBox="0 0 300 600"><defs><style>.cls-1{fill:#fff;}</style></defs><title>300x600txt2</title><g id="english"><rect class="cls-1" x="37.28" y="512" width="229.17" height="42.22"/><path d="M47.58,524.63H51.8c3.05,0,4.4,1.56,4.4,4.38a3.56,3.56,0,0,1-2,3.46c1.44.64,2.29,1.79,2.29,3.92,0,2.73-1.22,4.79-4.45,4.79H47.58Zm2.84,6.79h1a1.89,1.89,0,0,0,1.91-2.11c0-1.54-.6-2.34-1.86-2.34H50.42Zm0,7.42h1.19c1.52,0,2.07-.87,2.07-2.54s-.64-2.55-2.34-2.55h-.92Z"/><path d="M61.88,541.18H59V524.63h4c3.18,0,4.81,1.35,4.81,4.88,0,2.66-1,3.74-2,4.18l2.41,7.49H65.36l-2-6.85c-.37,0-1,.07-1.47.07Zm0-9.12h1c1.53,0,2.11-.57,2.11-2.55S64.42,527,62.89,527h-1Z"/><path d="M70.5,528.64a4,4,0,0,1,4.35-4.24,4,4,0,0,1,4.36,4.24v8.53a4,4,0,0,1-4.36,4.24,4,4,0,0,1-4.35-4.24Zm2.84,8.46c0,1.24.37,1.83,1.51,1.83s1.51-.59,1.51-1.83v-8.39c0-1.24-.36-1.83-1.51-1.83s-1.51.59-1.51,1.83Z"/><path d="M86.88,524.63h2.34l1.92,10.54h0l1.58-10.54h2.66l-2.91,16.55H90.14l-2.07-10.93h0L86.1,541.18H83.72l-3.14-16.55h2.66L85,535.17h0Z"/><path d="M102.42,528.71c-.12-1.42-.87-1.83-1.51-1.83-.92,0-1.42.59-1.42,1.63,0,2.81,5.77,4.17,5.77,8.66,0,2.73-1.83,4.24-4.49,4.24s-4.15-2.11-4.26-4.58l2.7-.39c.12,1.67.78,2.49,1.7,2.49a1.46,1.46,0,0,0,1.65-1.51c0-3.28-5.78-4.15-5.78-8.89,0-2.64,1.61-4.13,4.4-4.13,2.32,0,3.69,1.68,3.94,4Z"/><path d="M107.41,541.18V524.63H115v2.48h-4.76v4.26h3.66v2.48h-3.66v4.85h5.08v2.48Z"/><path d="M124.33,527.11h-2.75v-2.48h8.34v2.48h-2.75v14.07h-2.84Z"/><path d="M131.59,541.18V524.63h2.84v6.74h3v-6.74h2.84v16.55h-2.84v-7.33h-3v7.33Z"/><path d="M143.05,541.18V524.63h7.61v2.48h-4.77v4.26h3.67v2.48h-3.67v4.85H151v2.48Z"/><path d="M164,530.16v-1.29c0-1.4-.64-2-1.38-2-1.14,0-1.51.59-1.51,1.83v8.39c0,1.24.37,1.83,1.51,1.83s1.38-.59,1.38-1.67v-2h2.84v1.9a4.29,4.29,0,0,1-8.57,0v-8.53a4,4,0,0,1,4.35-4.24c2.85,0,4.22,2.07,4.22,4.54v1.22Z"/><path d="M169.77,528.64a4.36,4.36,0,0,1,8.71,0v8.53a4.36,4.36,0,0,1-8.71,0Zm2.84,8.46c0,1.24.37,1.83,1.51,1.83s1.51-.59,1.51-1.83v-8.39c0-1.24-.36-1.83-1.51-1.83s-1.51.59-1.51,1.83Z"/><path d="M181.09,541.18V524.63h2.84V538.7h4.47v2.48Z"/><path d="M190,541.18V524.63h2.84V538.7h4.47v2.48Z"/><path d="M199.05,541.18V524.63h7.61v2.48H201.9v4.26h3.66v2.48H201.9v4.85H207v2.48Z"/><path d="M215,530.16v-1.29c0-1.4-.64-2-1.38-2-1.14,0-1.51.59-1.51,1.83v8.39c0,1.24.37,1.83,1.51,1.83s1.38-.59,1.38-1.67v-2h2.84v1.9a4.29,4.29,0,0,1-8.57,0v-8.53a4,4,0,0,1,4.35-4.24c2.84,0,4.22,2.07,4.22,4.54v1.22Z"/><path d="M222.34,527.11h-2.75v-2.48h8.34v2.48h-2.75v14.07h-2.84Z"/><path d="M230,541.18V524.63h2.84v16.55Z"/><path d="M236,528.64a4.36,4.36,0,0,1,8.71,0v8.53a4.36,4.36,0,0,1-8.71,0Zm2.84,8.46c0,1.24.37,1.83,1.52,1.83s1.51-.59,1.51-1.83v-8.39c0-1.24-.37-1.83-1.51-1.83s-1.52.59-1.52,1.83Z"/><path d="M247.43,541.18V524.63h2.64l3.46,9.47h0v-9.47h2.57v16.55h-2.48L250,530.84h0v10.34Z"/></g></svg>