<svg xmlns="http://www.w3.org/2000/svg" xmlns:xlink="http://www.w3.org/1999/xlink" viewBox="0 0 970 250"><defs><clipPath id="a"><polygon points="405.8 168.8 567.7 168.8 567.7 86.7 402.1 86.7 405.8 168.8" style="fill:none"/></clipPath></defs><title>logo1</title><g style="clip-path:url(#a)"><path d="M527.8,131.3c-.8-.8-1.8-.6-2.7.1s-1.9.5-1.2-2.2,2.8-6.6,3.1-7.4-.2-2.4-2.1-2.6a3.8,3.8,0,0,0-2.3.8,5.5,5.5,0,0,0-4.4-1.8c-3.4-.1-8.1,2.6-10.9,6.9a23.2,23.2,0,0,1-6.2,6.3,2.4,2.4,0,0,1-2,.6c-1.1-.4-.8-1.9,1.5-4.6,3.8-4.3,4.8-7.5,2.7-9.4s-3.9-1.5-6.4-.2a17.7,17.7,0,0,0-5.5,3.9c3.5-7.1,7.7-15.3,10.6-20,1.3-2.1,1.3-4-.5-4.3s-3.3.5-4.6,3.3c-3.1,6.3-5.6,12-8.6,18.4h0c-1.9,3.9-5.5,9.4-10.2,12.4-.7.5-1.5.8-1.9.6s-.9-2,1.4-4.6c3.7-4.3,4.8-7.5,2.6-9.4s-3.8-1.4-6.3-.3-4.7,3.3-6.5,5c1.5-2.2,1.3-4.1,0-4.6s-2.8.1-4.5,4.9c-.8,2.4-3.2,6.9-6.6,8.4-.7.3-2.1.5-1.5-2.1a70.6,70.6,0,0,1,3.1-7.6c.5-1-.1-2.3-1.9-2.4a2.8,2.8,0,0,0-2.4.7,5.9,5.9,0,0,0-4.4-1.9c-4.5.1-11.2,4.5-12.9,11.3a5.8,5.8,0,0,1-4.2,2.4c-3.5.1-5.4-3-6.2-6.5,7.8-1.5,15.2-5.9,16.5-12.7s-3-12-11-11.8c-11,.2-18.4,8.1-20.1,11.5s-.1,4.1,1.5,4a4,4,0,0,0,3.8-3c1.1-3.7,5.2-7.8,12.3-8.5,5.3-.4,8.4,2.9,7.8,7.4s-5.8,8.3-11.1,9.7v-.4c0-1.5-.1-2.7-1.2-3.1a1.3,1.3,0,0,0-.9-1.2c-.9-.5-2.1-.4-3.2,1.2-3.7,5.8-5.5,8.4-9.2,13.3-1.7,2.2-1.7,4.4-.1,5s3.4-.2,4.8-2.5,3.3-5.8,4.7-8.3h1.2c.2,4.9,2.6,11.6,9.3,10.5a10.4,10.4,0,0,0,5.4-2.9c1,2.6,4.2,3.3,7.4,1.8a19,19,0,0,0,6.4-5c-2,5,1.8,8.7,7.7,4a2.3,2.3,0,0,1,.7-.7c-2.9,6.2-6.5,13.1-8.7,17.7s-.8,4.6,1,4.7,3-.8,4.2-3.4a206.4,206.4,0,0,1,9.1-20.6c4.4-8.7,10.1-10.8,11.2-10s-.5,2.6-3,5.9-2.6,6.4-1.3,7.6,4.7,1.8,8.5-1.2a32.4,32.4,0,0,0,2.6-2.5c-1.2,2.4-1.6,4.1-.1,4.8a2.6,2.6,0,0,0,3.3-1.5,35.9,35.9,0,0,1,6.1-9.3c3.3-3.6,6.3-4.3,6.9-3.8s-.4,2.7-3,5.9-2.6,6.4-1.2,7.6,4.6,1.8,8.4-1.3a11.4,11.4,0,0,0,2.5-2.3c.3,4,4,5.1,7.6,3.4a19.7,19.7,0,0,0,6.5-4.9c-1.7,5.2,3,8.3,7.8,4,1.2-1.1,1.4-2.5.9-3m-83-.7c-2,1.3-4.5.8-3.3-2.7s3.9-5.2,5.7-5.1a3.3,3.3,0,0,1,3.2,2,15.3,15.3,0,0,1-5.6,5.8m69,.1c-1.9,1.2-4.5.7-3.3-2.7s3.8-5.3,5.5-5.3a4,4,0,0,1,3.4,2.2,18.9,18.9,0,0,1-5.6,5.8" style="fill:#fff"/><path d="M534.9,130.1A2.9,2.9,0,0,0,532,133a3,3,0,0,0,2.9,2.8,2.8,2.8,0,0,0,2.8-2.8,3,3,0,0,0-2.8-2.9" style="fill:#fff"/></g></svg>