<svg id="_1_-_black_friday_is_coming" data-name="1 - black friday is coming" xmlns="http://www.w3.org/2000/svg" viewBox="0 0 300 50"><defs><style>.cls-1{fill:#fff;}</style></defs><title>300x50txt1</title><g id="english"><path class="cls-1" d="M198.3,14.32h3c2.2,0,3.17,1.13,3.17,3.15A2.55,2.55,0,0,1,203.08,20a2.74,2.74,0,0,1,1.65,2.83c0,2-.87,3.44-3.2,3.44H198.3Zm2,4.89h.75a1.36,1.36,0,0,0,1.37-1.52c0-1.11-.43-1.68-1.34-1.68h-.78Zm0,5.34h.86c1.09,0,1.49-.63,1.49-1.83s-.47-1.83-1.69-1.83h-.66Z"/><path class="cls-1" d="M206.45,26.23V14.32h2V24.45h3.22v1.78Z"/><path class="cls-1" d="M214.15,26.23h-2l2.19-11.91h2.54l2.2,11.91h-2l-.37-2.64h-2.24Zm.66-4.42h1.65l-.81-5.11h0Z"/><path class="cls-1" d="M224.41,18.3v-.92c0-1-.47-1.44-1-1.44-.83,0-1.09.43-1.09,1.32v6c0,.89.26,1.32,1.09,1.32s1-.43,1-1.21V22h2v1.37a2.83,2.83,0,0,1-3,3,2.86,2.86,0,0,1-3.14-3V17.21a2.86,2.86,0,0,1,3.14-3.05,3,3,0,0,1,3,3.26v.88Z"/><path class="cls-1" d="M228.43,26.23V14.32h2v4.41h0l2.14-4.41h2l-2.21,4.44L235,26.23H232.9l-1.66-5.54h0L230.48,22v4.22Z"/><path class="cls-1" d="M239.51,26.23V14.32h5.71v1.79h-3.66v3.06h2.74V21h-2.74v5.28Z"/><path class="cls-1" d="M248.88,26.23h-2V14.32h2.87c2.29,0,3.46,1,3.46,3.52,0,1.91-.74,2.69-1.43,3l1.73,5.39h-2.08l-1.45-4.93c-.27,0-.7.05-1.06.05Zm0-6.56h.73c1.1,0,1.51-.41,1.51-1.83S250.71,16,249.61,16h-.73Z"/><path class="cls-1" d="M255.36,26.23V14.32h2.05V26.23Z"/><path class="cls-1" d="M259.67,14.32h3c2.11,0,3.24,1.16,3.24,3.6v4.72c0,2.44-1.13,3.59-3.24,3.59h-3Zm2,10.23h.71c1.09,0,1.47-.41,1.47-1.67V17.67c0-1.25-.38-1.66-1.47-1.66h-.71Z"/><path class="cls-1" d="M269.1,26.23h-2l2.2-11.91h2.54l2.19,11.91h-2l-.36-2.64h-2.25Zm.66-4.42h1.65l-.81-5.11h0Z"/><path class="cls-1" d="M278,26.23h-2V21.28l-2.47-7h2.07L277,18.86h0l1.37-4.54h2.08l-2.47,7Z"/><path class="cls-1" d="M223,35.55a2.41,2.41,0,0,0-.19.64.13.13,0,0,0,.13.14c.2,0,.72-.56.78-.64a.05.05,0,0,1,.09,0l.11.11s.06.06,0,.1a2.51,2.51,0,0,1-1.86,1,.26.26,0,0,1-.29-.28,9,9,0,0,1,.56-1.78l.28-.78a1.75,1.75,0,0,0,.16-.58c0-.08,0-.12-.11-.12s-.63.52-.77.68a.08.08,0,0,1-.12,0l-.1-.09s-.06,0,0-.09,1-1.22,1.85-1.22c.24,0,.36.12.36.32a4.23,4.23,0,0,1-.3,1Zm.17-4.63a.57.57,0,0,1,.56-.54.54.54,0,0,1,.61.5.62.62,0,0,1-.59.58A.54.54,0,0,1,223.12,30.92Z"/><path class="cls-1" d="M225.11,36.93c-.66,0-1-.24-1-.58a.39.39,0,0,1,.38-.42.51.51,0,0,1,.48.4c.06.16.14.26.32.26s.5-.22.5-.64-.24-.63-.45-1a1.69,1.69,0,0,1-.37-1,1.36,1.36,0,0,1,1.48-1.28c.34,0,.78.14.78.56a.39.39,0,0,1-.78.08c0-.12-.08-.28-.24-.28s-.42.14-.42.58a1.87,1.87,0,0,0,.46.9,1.77,1.77,0,0,1,.38,1.08A1.38,1.38,0,0,1,225.11,36.93Z"/><path class="cls-1" d="M232,36s.06,0,0,.1a2.19,2.19,0,0,1-1.54.86.93.93,0,0,1-.91-1c0-1.4,1.1-3.27,2.34-3.27a.63.63,0,0,1,.69.56.49.49,0,0,1-.42.5.32.32,0,0,1-.34-.24c-.06-.14-.15-.3-.31-.3s-.41.24-.6.68a4.72,4.72,0,0,0-.39,1.76c0,.5.15.72.41.72a1.38,1.38,0,0,0,.83-.44s.06-.06.08,0Z"/><path class="cls-1" d="M232.82,35.56a3.29,3.29,0,0,1,.84-2.25,1.85,1.85,0,0,1,1.42-.64,1.19,1.19,0,0,1,1.24,1.26,3.81,3.81,0,0,1-.86,2.34,1.79,1.79,0,0,1-1.44.66A1.24,1.24,0,0,1,232.82,35.56Zm2.2-.1a4.93,4.93,0,0,0,.68-1.82.42.42,0,0,0-.43-.45c-.41,0-.79.35-1.28,1.17a3.47,3.47,0,0,0-.53,1.56.45.45,0,0,0,.42.47C234.27,36.39,234.63,36.11,235,35.46Z"/><path class="cls-1" d="M237.65,34.85a12.49,12.49,0,0,0,.51-1.4.12.12,0,0,0-.13-.14,2.38,2.38,0,0,0-.72.6.09.09,0,0,1-.13,0l-.12-.1s0-.06,0-.1c.2-.24.93-1,1.66-1,.3,0,.43.14.43.36a11.62,11.62,0,0,1-.64,1.64l.08,0c.42-.7,1.3-2,2.2-2a.5.5,0,0,1,.55.47,6.07,6.07,0,0,1-.53,1.59l.08,0c.54-.84,1.32-2.1,2.24-2.1a.55.55,0,0,1,.55.54,9,9,0,0,1-.55,1.72,8.87,8.87,0,0,0-.4,1.16c0,.08.06.14.12.14.22,0,.7-.64.76-.72a.06.06,0,0,1,.08,0l.14.09s0,.06,0,.14-.88,1.22-1.8,1.22a.32.32,0,0,1-.34-.3,8.51,8.51,0,0,1,.6-1.8,5.41,5.41,0,0,0,.43-1.28.19.19,0,0,0-.21-.2c-.24,0-1,.9-1.66,1.84a4.53,4.53,0,0,0-.38.7l-.31.86c0,.06-.07.08-.15.08h-.63c-.08,0-.12,0-.1-.1l.63-1.66a11.64,11.64,0,0,0,.51-1.5.19.19,0,0,0-.21-.2c-.24,0-1,.84-1.6,1.68a5.1,5.1,0,0,0-.46.84l-.33.86c0,.06-.07.08-.15.08H237a.08.08,0,0,1-.08-.12Z"/><path class="cls-1" d="M245.82,35.55a2.21,2.21,0,0,0-.18.64c0,.08,0,.14.12.14s.72-.56.78-.64a.05.05,0,0,1,.09,0l.11.11s.06.06,0,.1a2.5,2.5,0,0,1-1.85,1c-.22,0-.29-.12-.29-.28a8.31,8.31,0,0,1,.56-1.78l.28-.78a2,2,0,0,0,.16-.58.11.11,0,0,0-.12-.12c-.16,0-.62.52-.76.68s-.09,0-.12,0l-.11-.09s-.06,0,0-.09,1-1.22,1.85-1.22c.24,0,.36.12.36.32a4.23,4.23,0,0,1-.3,1Zm.17-4.63a.57.57,0,0,1,.56-.54.54.54,0,0,1,.61.5.62.62,0,0,1-.59.58A.54.54,0,0,1,246,30.92Z"/><path class="cls-1" d="M248.28,36.77s0,.06-.14.06h-.64c-.09,0-.1-.07-.08-.13l.68-1.85a12.64,12.64,0,0,0,.46-1.4.14.14,0,0,0-.15-.16c-.18,0-.57.36-.73.52a.05.05,0,0,1-.09,0l-.11-.11s-.06-.06,0-.1a2.39,2.39,0,0,1,1.71-.94.34.34,0,0,1,.38.34,6.81,6.81,0,0,1-.47,1.34l.06,0c.3-.46,1.22-1.72,2.17-1.72a.55.55,0,0,1,.57.56,6,6,0,0,1-.54,1.76,5.76,5.76,0,0,0-.4,1.18c0,.1,0,.16.12.16s.52-.34.62-.48a.09.09,0,0,1,.12,0l.1.08s0,.06,0,.12a2.43,2.43,0,0,1-1.66.86c-.22,0-.34-.12-.34-.3a13.73,13.73,0,0,1,.6-1.74,12.55,12.55,0,0,0,.43-1.3.21.21,0,0,0-.23-.24c-.3,0-1.14.8-1.56,1.48a6.11,6.11,0,0,0-.54,1Z"/><path class="cls-1" d="M251.62,38.57a.89.89,0,0,1,.42-.76,4.84,4.84,0,0,1,1.27-.68c-.3-.23-.38-.41-.38-.61s.28-.46.86-.74l0,0a1.14,1.14,0,0,1-.82-1.17,2,2,0,0,1,2-1.9,1.23,1.23,0,0,1,1,.43,1.55,1.55,0,0,1,.84-.33.43.43,0,0,1,.44.44.35.35,0,0,1-.36.36.45.45,0,0,1-.34-.14.21.21,0,0,0-.18-.1.35.35,0,0,0-.24.12,1.93,1.93,0,0,1,.06.51,2,2,0,0,1-1.58,1.82l-.38.06c-.2.1-.42.3-.42.46s.12.22.2.28.68.38,1.38.81.76.7.76,1a1.22,1.22,0,0,1-.72,1.06,3,3,0,0,1-1.6.36C252.61,39.81,251.62,39.21,251.62,38.57Zm3.53.18c0-.44-.28-.63-.7-.88l-.89-.54c-.61.28-1,.62-1,1.08,0,.7.72,1,1.46,1C254.53,39.45,255.15,39.22,255.15,38.75Zm.1-5.15c0-.39-.08-.61-.36-.61s-.38.12-.55.39a2.51,2.51,0,0,0-.45,1.53c0,.38.12.56.36.56C254.87,35.47,255.25,34.31,255.25,33.6Z"/></g></svg>